<?xml version="1.0" encoding="utf-8" standalone="no"?>
<!DOCTYPE svg PUBLIC "-//W3C//DTD SVG 1.1//EN"
  "http://www.w3.org/Graphics/SVG/1.1/DTD/svg11.dtd">
<!-- Created with matplotlib (https://matplotlib.org/) -->
<svg height="345.6pt" version="1.1" viewBox="0 0 460.8 345.6" width="460.8pt" xmlns="http://www.w3.org/2000/svg" xmlns:xlink="http://www.w3.org/1999/xlink">
 <defs>
  <style type="text/css">
*{stroke-linecap:butt;stroke-linejoin:round;}
  </style>
 </defs>
 <g id="figure_1">
  <g id="patch_1">
   <path d="M 0 345.6
L 460.8 345.6
L 460.8 0
L 0 0
z
" style="fill:#ffffff;"/>
  </g>
  <g id="axes_1">
   <g id="patch_2">
    <path d="M 57.6 307.584
L 414.72 307.584
L 414.72 41.472
L 57.6 41.472
z
" style="fill:#ffffff;"/>
   </g>
   <g id="matplotlib.axis_1">
    <g id="xtick_1">
     <g id="line2d_1">
      <defs>
       <path d="M 0 0
L 0 3.5
" id="me1822cc754" style="stroke:#000000;stroke-width:0.8;"/>
      </defs>
      <g>
       <use style="stroke:#000000;stroke-width:0.8;" x="73.832708" xlink:href="#me1822cc754" y="307.584"/>
      </g>
     </g>
     <g id="text_1">
      <!-- 0.00 -->
      <defs>
       <path d="M 31.78125 66.40625
Q 24.171875 66.40625 20.328125 58.90625
Q 16.5 51.421875 16.5 36.375
Q 16.5 21.390625 20.328125 13.890625
Q 24.171875 6.390625 31.78125 6.390625
Q 39.453125 6.390625 43.28125 13.890625
Q 47.125 21.390625 47.125 36.375
Q 47.125 51.421875 43.28125 58.90625
Q 39.453125 66.40625 31.78125 66.40625
z
M 31.78125 74.21875
Q 44.046875 74.21875 50.515625 64.515625
Q 56.984375 54.828125 56.984375 36.375
Q 56.984375 17.96875 50.515625 8.265625
Q 44.046875 -1.421875 31.78125 -1.421875
Q 19.53125 -1.421875 13.0625 8.265625
Q 6.59375 17.96875 6.59375 36.375
Q 6.59375 54.828125 13.0625 64.515625
Q 19.53125 74.21875 31.78125 74.21875
z
" id="DejaVuSans-48"/>
       <path d="M 10.6875 12.40625
L 21 12.40625
L 21 0
L 10.6875 0
z
" id="DejaVuSans-46"/>
      </defs>
      <g transform="translate(62.699895 322.182437)scale(0.1 -0.1)">
       <use xlink:href="#DejaVuSans-48"/>
       <use x="63.623047" xlink:href="#DejaVuSans-46"/>
       <use x="95.410156" xlink:href="#DejaVuSans-48"/>
       <use x="159.033203" xlink:href="#DejaVuSans-48"/>
      </g>
     </g>
    </g>
    <g id="xtick_2">
     <g id="line2d_2">
      <g>
       <use style="stroke:#000000;stroke-width:0.8;" x="122.210008" xlink:href="#me1822cc754" y="307.584"/>
      </g>
     </g>
     <g id="text_2">
      <!-- 0.25 -->
      <defs>
       <path d="M 19.1875 8.296875
L 53.609375 8.296875
L 53.609375 0
L 7.328125 0
L 7.328125 8.296875
Q 12.9375 14.109375 22.625 23.890625
Q 32.328125 33.6875 34.8125 36.53125
Q 39.546875 41.84375 41.421875 45.53125
Q 43.3125 49.21875 43.3125 52.78125
Q 43.3125 58.59375 39.234375 62.25
Q 35.15625 65.921875 28.609375 65.921875
Q 23.96875 65.921875 18.8125 64.3125
Q 13.671875 62.703125 7.8125 59.421875
L 7.8125 69.390625
Q 13.765625 71.78125 18.9375 73
Q 24.125 74.21875 28.421875 74.21875
Q 39.75 74.21875 46.484375 68.546875
Q 53.21875 62.890625 53.21875 53.421875
Q 53.21875 48.921875 51.53125 44.890625
Q 49.859375 40.875 45.40625 35.40625
Q 44.1875 33.984375 37.640625 27.21875
Q 31.109375 20.453125 19.1875 8.296875
z
" id="DejaVuSans-50"/>
       <path d="M 10.796875 72.90625
L 49.515625 72.90625
L 49.515625 64.59375
L 19.828125 64.59375
L 19.828125 46.734375
Q 21.96875 47.46875 24.109375 47.828125
Q 26.265625 48.1875 28.421875 48.1875
Q 40.625 48.1875 47.75 41.5
Q 54.890625 34.8125 54.890625 23.390625
Q 54.890625 11.625 47.5625 5.09375
Q 40.234375 -1.421875 26.90625 -1.421875
Q 22.3125 -1.421875 17.546875 -0.640625
Q 12.796875 0.140625 7.71875 1.703125
L 7.71875 11.625
Q 12.109375 9.234375 16.796875 8.0625
Q 21.484375 6.890625 26.703125 6.890625
Q 35.15625 6.890625 40.078125 11.328125
Q 45.015625 15.765625 45.015625 23.390625
Q 45.015625 31 40.078125 35.4375
Q 35.15625 39.890625 26.703125 39.890625
Q 22.75 39.890625 18.8125 39.015625
Q 14.890625 38.140625 10.796875 36.28125
z
" id="DejaVuSans-53"/>
      </defs>
      <g transform="translate(111.077195 322.182437)scale(0.1 -0.1)">
       <use xlink:href="#DejaVuSans-48"/>
       <use x="63.623047" xlink:href="#DejaVuSans-46"/>
       <use x="95.410156" xlink:href="#DejaVuSans-50"/>
       <use x="159.033203" xlink:href="#DejaVuSans-53"/>
      </g>
     </g>
    </g>
    <g id="xtick_3">
     <g id="line2d_3">
      <g>
       <use style="stroke:#000000;stroke-width:0.8;" x="170.587308" xlink:href="#me1822cc754" y="307.584"/>
      </g>
     </g>
     <g id="text_3">
      <!-- 0.50 -->
      <g transform="translate(159.454495 322.182437)scale(0.1 -0.1)">
       <use xlink:href="#DejaVuSans-48"/>
       <use x="63.623047" xlink:href="#DejaVuSans-46"/>
       <use x="95.410156" xlink:href="#DejaVuSans-53"/>
       <use x="159.033203" xlink:href="#DejaVuSans-48"/>
      </g>
     </g>
    </g>
    <g id="xtick_4">
     <g id="line2d_4">
      <g>
       <use style="stroke:#000000;stroke-width:0.8;" x="218.964608" xlink:href="#me1822cc754" y="307.584"/>
      </g>
     </g>
     <g id="text_4">
      <!-- 0.75 -->
      <defs>
       <path d="M 8.203125 72.90625
L 55.078125 72.90625
L 55.078125 68.703125
L 28.609375 0
L 18.3125 0
L 43.21875 64.59375
L 8.203125 64.59375
z
" id="DejaVuSans-55"/>
      </defs>
      <g transform="translate(207.831795 322.182437)scale(0.1 -0.1)">
       <use xlink:href="#DejaVuSans-48"/>
       <use x="63.623047" xlink:href="#DejaVuSans-46"/>
       <use x="95.410156" xlink:href="#DejaVuSans-55"/>
       <use x="159.033203" xlink:href="#DejaVuSans-53"/>
      </g>
     </g>
    </g>
    <g id="xtick_5">
     <g id="line2d_5">
      <g>
       <use style="stroke:#000000;stroke-width:0.8;" x="267.341908" xlink:href="#me1822cc754" y="307.584"/>
      </g>
     </g>
     <g id="text_5">
      <!-- 1.00 -->
      <defs>
       <path d="M 12.40625 8.296875
L 28.515625 8.296875
L 28.515625 63.921875
L 10.984375 60.40625
L 10.984375 69.390625
L 28.421875 72.90625
L 38.28125 72.90625
L 38.28125 8.296875
L 54.390625 8.296875
L 54.390625 0
L 12.40625 0
z
" id="DejaVuSans-49"/>
      </defs>
      <g transform="translate(256.209096 322.182437)scale(0.1 -0.1)">
       <use xlink:href="#DejaVuSans-49"/>
       <use x="63.623047" xlink:href="#DejaVuSans-46"/>
       <use x="95.410156" xlink:href="#DejaVuSans-48"/>
       <use x="159.033203" xlink:href="#DejaVuSans-48"/>
      </g>
     </g>
    </g>
    <g id="xtick_6">
     <g id="line2d_6">
      <g>
       <use style="stroke:#000000;stroke-width:0.8;" x="315.719208" xlink:href="#me1822cc754" y="307.584"/>
      </g>
     </g>
     <g id="text_6">
      <!-- 1.25 -->
      <g transform="translate(304.586396 322.182437)scale(0.1 -0.1)">
       <use xlink:href="#DejaVuSans-49"/>
       <use x="63.623047" xlink:href="#DejaVuSans-46"/>
       <use x="95.410156" xlink:href="#DejaVuSans-50"/>
       <use x="159.033203" xlink:href="#DejaVuSans-53"/>
      </g>
     </g>
    </g>
    <g id="xtick_7">
     <g id="line2d_7">
      <g>
       <use style="stroke:#000000;stroke-width:0.8;" x="364.096508" xlink:href="#me1822cc754" y="307.584"/>
      </g>
     </g>
     <g id="text_7">
      <!-- 1.50 -->
      <g transform="translate(352.963696 322.182437)scale(0.1 -0.1)">
       <use xlink:href="#DejaVuSans-49"/>
       <use x="63.623047" xlink:href="#DejaVuSans-46"/>
       <use x="95.410156" xlink:href="#DejaVuSans-53"/>
       <use x="159.033203" xlink:href="#DejaVuSans-48"/>
      </g>
     </g>
    </g>
    <g id="xtick_8">
     <g id="line2d_8">
      <g>
       <use style="stroke:#000000;stroke-width:0.8;" x="412.473808" xlink:href="#me1822cc754" y="307.584"/>
      </g>
     </g>
     <g id="text_8">
      <!-- 1.75 -->
      <g transform="translate(401.340996 322.182437)scale(0.1 -0.1)">
       <use xlink:href="#DejaVuSans-49"/>
       <use x="63.623047" xlink:href="#DejaVuSans-46"/>
       <use x="95.410156" xlink:href="#DejaVuSans-55"/>
       <use x="159.033203" xlink:href="#DejaVuSans-53"/>
      </g>
     </g>
    </g>
    <g id="text_9">
     <!-- 1e7 -->
     <defs>
      <path d="M 56.203125 29.59375
L 56.203125 25.203125
L 14.890625 25.203125
Q 15.484375 15.921875 20.484375 11.0625
Q 25.484375 6.203125 34.421875 6.203125
Q 39.59375 6.203125 44.453125 7.46875
Q 49.3125 8.734375 54.109375 11.28125
L 54.109375 2.78125
Q 49.265625 0.734375 44.1875 -0.34375
Q 39.109375 -1.421875 33.890625 -1.421875
Q 20.796875 -1.421875 13.15625 6.1875
Q 5.515625 13.8125 5.515625 26.8125
Q 5.515625 40.234375 12.765625 48.109375
Q 20.015625 56 32.328125 56
Q 43.359375 56 49.78125 48.890625
Q 56.203125 41.796875 56.203125 29.59375
z
M 47.21875 32.234375
Q 47.125 39.59375 43.09375 43.984375
Q 39.0625 48.390625 32.421875 48.390625
Q 24.90625 48.390625 20.390625 44.140625
Q 15.875 39.890625 15.1875 32.171875
z
" id="DejaVuSans-101"/>
     </defs>
     <g transform="translate(395.841875 334.860562)scale(0.1 -0.1)">
      <use xlink:href="#DejaVuSans-49"/>
      <use x="63.623047" xlink:href="#DejaVuSans-101"/>
      <use x="125.146484" xlink:href="#DejaVuSans-55"/>
     </g>
    </g>
   </g>
   <g id="matplotlib.axis_2">
    <g id="ytick_1">
     <g id="line2d_9">
      <defs>
       <path d="M 0 0
L -3.5 0
" id="md511ff924d" style="stroke:#000000;stroke-width:0.8;"/>
      </defs>
      <g>
       <use style="stroke:#000000;stroke-width:0.8;" x="57.6" xlink:href="#md511ff924d" y="290.676426"/>
      </g>
     </g>
     <g id="text_10">
      <!-- 0 -->
      <g transform="translate(44.2375 294.475645)scale(0.1 -0.1)">
       <use xlink:href="#DejaVuSans-48"/>
      </g>
     </g>
    </g>
    <g id="ytick_2">
     <g id="line2d_10">
      <g>
       <use style="stroke:#000000;stroke-width:0.8;" x="57.6" xlink:href="#md511ff924d" y="241.481824"/>
      </g>
     </g>
     <g id="text_11">
      <!-- 1 -->
      <g transform="translate(44.2375 245.281043)scale(0.1 -0.1)">
       <use xlink:href="#DejaVuSans-49"/>
      </g>
     </g>
    </g>
    <g id="ytick_3">
     <g id="line2d_11">
      <g>
       <use style="stroke:#000000;stroke-width:0.8;" x="57.6" xlink:href="#md511ff924d" y="192.287223"/>
      </g>
     </g>
     <g id="text_12">
      <!-- 2 -->
      <g transform="translate(44.2375 196.086441)scale(0.1 -0.1)">
       <use xlink:href="#DejaVuSans-50"/>
      </g>
     </g>
    </g>
    <g id="ytick_4">
     <g id="line2d_12">
      <g>
       <use style="stroke:#000000;stroke-width:0.8;" x="57.6" xlink:href="#md511ff924d" y="143.092621"/>
      </g>
     </g>
     <g id="text_13">
      <!-- 3 -->
      <defs>
       <path d="M 40.578125 39.3125
Q 47.65625 37.796875 51.625 33
Q 55.609375 28.21875 55.609375 21.1875
Q 55.609375 10.40625 48.1875 4.484375
Q 40.765625 -1.421875 27.09375 -1.421875
Q 22.515625 -1.421875 17.65625 -0.515625
Q 12.796875 0.390625 7.625 2.203125
L 7.625 11.71875
Q 11.71875 9.328125 16.59375 8.109375
Q 21.484375 6.890625 26.8125 6.890625
Q 36.078125 6.890625 40.9375 10.546875
Q 45.796875 14.203125 45.796875 21.1875
Q 45.796875 27.640625 41.28125 31.265625
Q 36.765625 34.90625 28.71875 34.90625
L 20.21875 34.90625
L 20.21875 43.015625
L 29.109375 43.015625
Q 36.375 43.015625 40.234375 45.921875
Q 44.09375 48.828125 44.09375 54.296875
Q 44.09375 59.90625 40.109375 62.90625
Q 36.140625 65.921875 28.71875 65.921875
Q 24.65625 65.921875 20.015625 65.03125
Q 15.375 64.15625 9.8125 62.3125
L 9.8125 71.09375
Q 15.4375 72.65625 20.34375 73.4375
Q 25.25 74.21875 29.59375 74.21875
Q 40.828125 74.21875 47.359375 69.109375
Q 53.90625 64.015625 53.90625 55.328125
Q 53.90625 49.265625 50.4375 45.09375
Q 46.96875 40.921875 40.578125 39.3125
z
" id="DejaVuSans-51"/>
      </defs>
      <g transform="translate(44.2375 146.89184)scale(0.1 -0.1)">
       <use xlink:href="#DejaVuSans-51"/>
      </g>
     </g>
    </g>
    <g id="ytick_5">
     <g id="line2d_13">
      <g>
       <use style="stroke:#000000;stroke-width:0.8;" x="57.6" xlink:href="#md511ff924d" y="93.898019"/>
      </g>
     </g>
     <g id="text_14">
      <!-- 4 -->
      <defs>
       <path d="M 37.796875 64.3125
L 12.890625 25.390625
L 37.796875 25.390625
z
M 35.203125 72.90625
L 47.609375 72.90625
L 47.609375 25.390625
L 58.015625 25.390625
L 58.015625 17.1875
L 47.609375 17.1875
L 47.609375 0
L 37.796875 0
L 37.796875 17.1875
L 4.890625 17.1875
L 4.890625 26.703125
z
" id="DejaVuSans-52"/>
      </defs>
      <g transform="translate(44.2375 97.697238)scale(0.1 -0.1)">
       <use xlink:href="#DejaVuSans-52"/>
      </g>
     </g>
    </g>
    <g id="ytick_6">
     <g id="line2d_14">
      <g>
       <use style="stroke:#000000;stroke-width:0.8;" x="57.6" xlink:href="#md511ff924d" y="44.703417"/>
      </g>
     </g>
     <g id="text_15">
      <!-- 5 -->
      <g transform="translate(44.2375 48.502636)scale(0.1 -0.1)">
       <use xlink:href="#DejaVuSans-53"/>
      </g>
     </g>
    </g>
    <g id="text_16">
     <!-- 1e8 -->
     <defs>
      <path d="M 31.78125 34.625
Q 24.75 34.625 20.71875 30.859375
Q 16.703125 27.09375 16.703125 20.515625
Q 16.703125 13.921875 20.71875 10.15625
Q 24.75 6.390625 31.78125 6.390625
Q 38.8125 6.390625 42.859375 10.171875
Q 46.921875 13.96875 46.921875 20.515625
Q 46.921875 27.09375 42.890625 30.859375
Q 38.875 34.625 31.78125 34.625
z
M 21.921875 38.8125
Q 15.578125 40.375 12.03125 44.71875
Q 8.5 49.078125 8.5 55.328125
Q 8.5 64.0625 14.71875 69.140625
Q 20.953125 74.21875 31.78125 74.21875
Q 42.671875 74.21875 48.875 69.140625
Q 55.078125 64.0625 55.078125 55.328125
Q 55.078125 49.078125 51.53125 44.71875
Q 48 40.375 41.703125 38.8125
Q 48.828125 37.15625 52.796875 32.3125
Q 56.78125 27.484375 56.78125 20.515625
Q 56.78125 9.90625 50.3125 4.234375
Q 43.84375 -1.421875 31.78125 -1.421875
Q 19.734375 -1.421875 13.25 4.234375
Q 6.78125 9.90625 6.78125 20.515625
Q 6.78125 27.484375 10.78125 32.3125
Q 14.796875 37.15625 21.921875 38.8125
z
M 18.3125 54.390625
Q 18.3125 48.734375 21.84375 45.5625
Q 25.390625 42.390625 31.78125 42.390625
Q 38.140625 42.390625 41.71875 45.5625
Q 45.3125 48.734375 45.3125 54.390625
Q 45.3125 60.0625 41.71875 63.234375
Q 38.140625 66.40625 31.78125 66.40625
Q 25.390625 66.40625 21.84375 63.234375
Q 18.3125 60.0625 18.3125 54.390625
z
" id="DejaVuSans-56"/>
     </defs>
     <g transform="translate(57.6 38.472)scale(0.1 -0.1)">
      <use xlink:href="#DejaVuSans-49"/>
      <use x="63.623047" xlink:href="#DejaVuSans-101"/>
      <use x="125.146484" xlink:href="#DejaVuSans-56"/>
     </g>
    </g>
   </g>
   <g id="LineCollection_1">
    <path clip-path="url(#p1488fa3f28)" d="M 73.832727 290.676402
L 73.832727 290.6764
" style="fill:none;stroke:#1f77b4;stroke-width:0.5;"/>
    <path clip-path="url(#p1488fa3f28)" d="M 73.911969 290.646345
L 73.911969 290.646315
" style="fill:none;stroke:#1f77b4;stroke-width:0.5;"/>
    <path clip-path="url(#p1488fa3f28)" d="M 75.10089 290.188569
L 75.10089 290.186755
" style="fill:none;stroke:#1f77b4;stroke-width:0.5;"/>
    <path clip-path="url(#p1488fa3f28)" d="M 84.11658 286.783971
L 84.11658 286.763721
" style="fill:none;stroke:#1f77b4;stroke-width:0.5;"/>
    <path clip-path="url(#p1488fa3f28)" d="M 94.123618 282.898171
L 94.123618 282.839651
" style="fill:none;stroke:#1f77b4;stroke-width:0.5;"/>
    <path clip-path="url(#p1488fa3f28)" d="M 154.996349 259.293525
L 154.996349 259.274225
" style="fill:none;stroke:#1f77b4;stroke-width:0.5;"/>
    <path clip-path="url(#p1488fa3f28)" d="M 256.450901 217.31151
L 256.450901 216.826004
" style="fill:none;stroke:#1f77b4;stroke-width:0.5;"/>
    <path clip-path="url(#p1488fa3f28)" d="M 398.487273 161.512803
L 398.487273 159.664756
" style="fill:none;stroke:#1f77b4;stroke-width:0.5;"/>
   </g>
   <g id="LineCollection_2">
    <path clip-path="url(#p1488fa3f28)" d="M 73.832727 290.676401
L 73.832727 290.676399
" style="fill:none;stroke:#ff7f0e;stroke-width:0.5;"/>
    <path clip-path="url(#p1488fa3f28)" d="M 73.911969 290.644586
L 73.911969 290.644221
" style="fill:none;stroke:#ff7f0e;stroke-width:0.5;"/>
    <path clip-path="url(#p1488fa3f28)" d="M 75.972765 289.817336
L 75.972765 289.81674
" style="fill:none;stroke:#ff7f0e;stroke-width:0.5;"/>
    <path clip-path="url(#p1488fa3f28)" d="M 84.11658 286.520945
L 84.11658 286.461559
" style="fill:none;stroke:#ff7f0e;stroke-width:0.5;"/>
    <path clip-path="url(#p1488fa3f28)" d="M 114.414529 274.061817
L 114.414529 273.832108
" style="fill:none;stroke:#ff7f0e;stroke-width:0.5;"/>
    <path clip-path="url(#p1488fa3f28)" d="M 186.687273 245.032195
L 186.687273 243.742517
" style="fill:none;stroke:#ff7f0e;stroke-width:0.5;"/>
    <path clip-path="url(#p1488fa3f28)" d="M 268.845397 211.408066
L 268.845397 210.78982
" style="fill:none;stroke:#ff7f0e;stroke-width:0.5;"/>
    <path clip-path="url(#p1488fa3f28)" d="M 398.487273 162.105357
L 398.487273 160.691492
" style="fill:none;stroke:#ff7f0e;stroke-width:0.5;"/>
   </g>
   <g id="LineCollection_3">
    <path clip-path="url(#p1488fa3f28)" d="M 73.832727 290.676406
L 73.832727 290.676402
" style="fill:none;stroke:#2ca02c;stroke-width:0.5;"/>
    <path clip-path="url(#p1488fa3f28)" d="M 73.911969 290.645402
L 73.911969 290.645034
" style="fill:none;stroke:#2ca02c;stroke-width:0.5;"/>
    <path clip-path="url(#p1488fa3f28)" d="M 75.10089 290.177617
L 75.10089 290.172517
" style="fill:none;stroke:#2ca02c;stroke-width:0.5;"/>
    <path clip-path="url(#p1488fa3f28)" d="M 84.11658 286.583233
L 84.11658 286.549099
" style="fill:none;stroke:#2ca02c;stroke-width:0.5;"/>
    <path clip-path="url(#p1488fa3f28)" d="M 106.334823 275.933118
L 106.334823 275.401506
" style="fill:none;stroke:#2ca02c;stroke-width:0.5;"/>
    <path clip-path="url(#p1488fa3f28)" d="M 153.183574 259.100271
L 153.183574 257.811195
" style="fill:none;stroke:#2ca02c;stroke-width:0.5;"/>
    <path clip-path="url(#p1488fa3f28)" d="M 238.374664 229.037528
L 238.374664 222.560135
" style="fill:none;stroke:#2ca02c;stroke-width:0.5;"/>
    <path clip-path="url(#p1488fa3f28)" d="M 398.487273 159.325229
L 398.487273 156.321283
" style="fill:none;stroke:#2ca02c;stroke-width:0.5;"/>
   </g>
   <g id="LineCollection_4">
    <path clip-path="url(#p1488fa3f28)" d="M 73.832727 290.676406
L 73.832727 290.676401
" style="fill:none;stroke:#d62728;stroke-width:0.5;"/>
    <path clip-path="url(#p1488fa3f28)" d="M 73.911969 290.645635
L 73.911969 290.645352
" style="fill:none;stroke:#d62728;stroke-width:0.5;"/>
    <path clip-path="url(#p1488fa3f28)" d="M 75.10089 290.183186
L 75.10089 290.177857
" style="fill:none;stroke:#d62728;stroke-width:0.5;"/>
    <path clip-path="url(#p1488fa3f28)" d="M 84.11658 286.46304
L 84.11658 286.110078
" style="fill:none;stroke:#d62728;stroke-width:0.5;"/>
    <path clip-path="url(#p1488fa3f28)" d="M 94.123618 282.566317
L 94.123618 282.514031
" style="fill:none;stroke:#d62728;stroke-width:0.5;"/>
    <path clip-path="url(#p1488fa3f28)" d="M 154.996349 249.940952
L 154.996349 244.943435
" style="fill:none;stroke:#d62728;stroke-width:0.5;"/>
    <path clip-path="url(#p1488fa3f28)" d="M 256.450901 200.380948
L 256.450901 193.493933
" style="fill:none;stroke:#d62728;stroke-width:0.5;"/>
    <path clip-path="url(#p1488fa3f28)" d="M 398.487273 69.863888
L 398.487273 53.568
" style="fill:none;stroke:#d62728;stroke-width:0.5;"/>
   </g>
   <g id="LineCollection_5">
    <path clip-path="url(#p1488fa3f28)" d="M 73.832727 290.676476
L 73.832727 290.676452
" style="fill:none;stroke:#9467bd;stroke-width:0.5;"/>
    <path clip-path="url(#p1488fa3f28)" d="M 73.911969 290.641963
L 73.911969 290.640064
" style="fill:none;stroke:#9467bd;stroke-width:0.5;"/>
    <path clip-path="url(#p1488fa3f28)" d="M 75.972765 289.797561
L 75.972765 289.774949
" style="fill:none;stroke:#9467bd;stroke-width:0.5;"/>
    <path clip-path="url(#p1488fa3f28)" d="M 84.11658 286.601698
L 84.11658 286.513167
" style="fill:none;stroke:#9467bd;stroke-width:0.5;"/>
    <path clip-path="url(#p1488fa3f28)" d="M 114.414529 273.167832
L 114.414529 272.270311
" style="fill:none;stroke:#9467bd;stroke-width:0.5;"/>
    <path clip-path="url(#p1488fa3f28)" d="M 186.687273 246.368687
L 186.687273 245.918028
" style="fill:none;stroke:#9467bd;stroke-width:0.5;"/>
    <path clip-path="url(#p1488fa3f28)" d="M 268.845397 209.629267
L 268.845397 203.354471
" style="fill:none;stroke:#9467bd;stroke-width:0.5;"/>
    <path clip-path="url(#p1488fa3f28)" d="M 398.487273 132.208788
L 398.487273 108.361546
" style="fill:none;stroke:#9467bd;stroke-width:0.5;"/>
   </g>
   <g id="LineCollection_6">
    <path clip-path="url(#p1488fa3f28)" d="M 73.832727 290.676438
L 73.832727 290.676408
" style="fill:none;stroke:#8c564b;stroke-width:0.5;"/>
    <path clip-path="url(#p1488fa3f28)" d="M 73.911969 290.639116
L 73.911969 290.633495
" style="fill:none;stroke:#8c564b;stroke-width:0.5;"/>
    <path clip-path="url(#p1488fa3f28)" d="M 75.10089 290.065726
L 75.10089 289.990778
" style="fill:none;stroke:#8c564b;stroke-width:0.5;"/>
    <path clip-path="url(#p1488fa3f28)" d="M 84.11658 285.091518
L 84.11658 284.313457
" style="fill:none;stroke:#8c564b;stroke-width:0.5;"/>
    <path clip-path="url(#p1488fa3f28)" d="M 106.334823 272.626666
L 106.334823 271.282158
" style="fill:none;stroke:#8c564b;stroke-width:0.5;"/>
    <path clip-path="url(#p1488fa3f28)" d="M 153.183574 264.485163
L 153.183574 263.143544
" style="fill:none;stroke:#8c564b;stroke-width:0.5;"/>
    <path clip-path="url(#p1488fa3f28)" d="M 238.374664 223.113997
L 238.374664 221.214376
" style="fill:none;stroke:#8c564b;stroke-width:0.5;"/>
    <path clip-path="url(#p1488fa3f28)" d="M 398.487273 158.142056
L 398.487273 155.101201
" style="fill:none;stroke:#8c564b;stroke-width:0.5;"/>
   </g>
   <g id="line2d_15">
    <path clip-path="url(#p1488fa3f28)" d="M 73.832727 290.894145
L 73.911969 290.862331
L 75.10089 290.385009
L 84.11658 286.765432
L 94.123618 282.747854
L 154.996349 258.308957
L 256.450901 217.577463
L 398.487273 160.553371
" style="fill:none;stroke:#1f77b4;stroke-dasharray:0.5,0.825;stroke-dashoffset:0;stroke-width:0.5;"/>
   </g>
   <g id="line2d_16">
    <path clip-path="url(#p1488fa3f28)" d="M 73.832727 290.368528
L 73.911969 290.336803
L 75.972765 289.511749
L 84.11658 286.251316
L 114.414529 274.12132
L 186.687273 245.18642
L 268.845397 212.293839
L 398.487273 160.390805
" style="fill:none;stroke:#ff7f0e;stroke-dasharray:0.5,0.825;stroke-dashoffset:0;stroke-width:0.5;"/>
   </g>
   <g id="line2d_17">
    <path clip-path="url(#p1488fa3f28)" d="M 73.832727 290.581791
L 73.911969 290.549606
L 75.10089 290.066714
L 84.11658 286.404902
L 106.334823 277.380742
L 153.183574 258.352657
L 238.374664 223.75145
L 398.487273 158.720125
" style="fill:none;stroke:#2ca02c;stroke-dasharray:0.5,0.825;stroke-dashoffset:0;stroke-width:0.5;"/>
   </g>
   <g id="line2d_18">
    <path clip-path="url(#p1488fa3f28)" d="M 73.832727 295.488
L 73.911969 295.434673
L 75.10089 294.634572
L 84.11658 288.567332
L 94.123618 281.83295
L 154.996349 240.86776
L 256.450901 172.592443
L 398.487273 77.007
" style="fill:none;stroke:#d62728;stroke-dasharray:0.5,0.825;stroke-dashoffset:0;stroke-width:0.5;"/>
   </g>
   <g id="line2d_19">
    <path clip-path="url(#p1488fa3f28)" d="M 73.832727 293.561621
L 73.911969 293.521723
L 75.972765 292.484145
L 84.11658 288.38386
L 114.414529 273.129313
L 186.687273 236.741107
L 268.845397 195.375767
L 398.487273 130.103094
" style="fill:none;stroke:#9467bd;stroke-dasharray:0.5,0.825;stroke-dashoffset:0;stroke-width:0.5;"/>
   </g>
   <g id="line2d_20">
    <path clip-path="url(#p1488fa3f28)" d="M 73.832727 290.180841
L 73.911969 290.148397
L 75.10089 289.661619
L 84.11658 285.970343
L 106.334823 276.87357
L 153.183574 257.692376
L 238.374664 222.812751
L 398.487273 157.258152
" style="fill:none;stroke:#8c564b;stroke-dasharray:0.5,0.825;stroke-dashoffset:0;stroke-width:0.5;"/>
   </g>
   <g id="line2d_21">
    <path clip-path="url(#p1488fa3f28)" d="M 73.832727 290.676401
L 73.911969 290.64633
L 75.10089 290.187662
L 84.11658 286.773846
L 94.123618 282.868911
L 154.996349 259.283875
L 256.450901 217.068757
L 398.487273 160.588779
" style="fill:none;stroke:#1f77b4;stroke-linecap:square;stroke-width:0.5;"/>
    <defs>
     <path d="M 0 3
C 0.795609 3 1.55874 2.683901 2.12132 2.12132
C 2.683901 1.55874 3 0.795609 3 0
C 3 -0.795609 2.683901 -1.55874 2.12132 -2.12132
C 1.55874 -2.683901 0.795609 -3 0 -3
C -0.795609 -3 -1.55874 -2.683901 -2.12132 -2.12132
C -2.683901 -1.55874 -3 -0.795609 -3 0
C -3 0.795609 -2.683901 1.55874 -2.12132 2.12132
C -1.55874 2.683901 -0.795609 3 0 3
z
" id="m0bc536bb83" style="stroke:#1f77b4;"/>
    </defs>
    <g clip-path="url(#p1488fa3f28)">
     <use style="fill:#1f77b4;stroke:#1f77b4;" x="73.832727" xlink:href="#m0bc536bb83" y="290.676401"/>
     <use style="fill:#1f77b4;stroke:#1f77b4;" x="73.911969" xlink:href="#m0bc536bb83" y="290.64633"/>
     <use style="fill:#1f77b4;stroke:#1f77b4;" x="75.10089" xlink:href="#m0bc536bb83" y="290.187662"/>
     <use style="fill:#1f77b4;stroke:#1f77b4;" x="84.11658" xlink:href="#m0bc536bb83" y="286.773846"/>
     <use style="fill:#1f77b4;stroke:#1f77b4;" x="94.123618" xlink:href="#m0bc536bb83" y="282.868911"/>
     <use style="fill:#1f77b4;stroke:#1f77b4;" x="154.996349" xlink:href="#m0bc536bb83" y="259.283875"/>
     <use style="fill:#1f77b4;stroke:#1f77b4;" x="256.450901" xlink:href="#m0bc536bb83" y="217.068757"/>
     <use style="fill:#1f77b4;stroke:#1f77b4;" x="398.487273" xlink:href="#m0bc536bb83" y="160.588779"/>
    </g>
   </g>
   <g id="line2d_22">
    <path clip-path="url(#p1488fa3f28)" d="M 73.832727 290.6764
L 73.911969 290.644403
L 75.972765 289.817038
L 84.11658 286.491252
L 114.414529 273.946963
L 186.687273 244.387356
L 268.845397 211.098943
L 398.487273 161.398424
" style="fill:none;stroke:#ff7f0e;stroke-linecap:square;stroke-width:0.5;"/>
    <defs>
     <path d="M 0 3
C 0.795609 3 1.55874 2.683901 2.12132 2.12132
C 2.683901 1.55874 3 0.795609 3 0
C 3 -0.795609 2.683901 -1.55874 2.12132 -2.12132
C 1.55874 -2.683901 0.795609 -3 0 -3
C -0.795609 -3 -1.55874 -2.683901 -2.12132 -2.12132
C -2.683901 -1.55874 -3 -0.795609 -3 0
C -3 0.795609 -2.683901 1.55874 -2.12132 2.12132
C -1.55874 2.683901 -0.795609 3 0 3
z
" id="mfbbb68505c" style="stroke:#ff7f0e;"/>
    </defs>
    <g clip-path="url(#p1488fa3f28)">
     <use style="fill:#ff7f0e;stroke:#ff7f0e;" x="73.832727" xlink:href="#mfbbb68505c" y="290.6764"/>
     <use style="fill:#ff7f0e;stroke:#ff7f0e;" x="73.911969" xlink:href="#mfbbb68505c" y="290.644403"/>
     <use style="fill:#ff7f0e;stroke:#ff7f0e;" x="75.972765" xlink:href="#mfbbb68505c" y="289.817038"/>
     <use style="fill:#ff7f0e;stroke:#ff7f0e;" x="84.11658" xlink:href="#mfbbb68505c" y="286.491252"/>
     <use style="fill:#ff7f0e;stroke:#ff7f0e;" x="114.414529" xlink:href="#mfbbb68505c" y="273.946963"/>
     <use style="fill:#ff7f0e;stroke:#ff7f0e;" x="186.687273" xlink:href="#mfbbb68505c" y="244.387356"/>
     <use style="fill:#ff7f0e;stroke:#ff7f0e;" x="268.845397" xlink:href="#mfbbb68505c" y="211.098943"/>
     <use style="fill:#ff7f0e;stroke:#ff7f0e;" x="398.487273" xlink:href="#mfbbb68505c" y="161.398424"/>
    </g>
   </g>
   <g id="line2d_23">
    <path clip-path="url(#p1488fa3f28)" d="M 73.832727 290.676404
L 73.911969 290.645218
L 75.10089 290.175067
L 84.11658 286.566166
L 106.334823 275.667312
L 153.183574 258.455733
L 238.374664 225.798831
L 398.487273 157.823256
" style="fill:none;stroke:#2ca02c;stroke-linecap:square;stroke-width:0.5;"/>
    <defs>
     <path d="M 0 3
C 0.795609 3 1.55874 2.683901 2.12132 2.12132
C 2.683901 1.55874 3 0.795609 3 0
C 3 -0.795609 2.683901 -1.55874 2.12132 -2.12132
C 1.55874 -2.683901 0.795609 -3 0 -3
C -0.795609 -3 -1.55874 -2.683901 -2.12132 -2.12132
C -2.683901 -1.55874 -3 -0.795609 -3 0
C -3 0.795609 -2.683901 1.55874 -2.12132 2.12132
C -1.55874 2.683901 -0.795609 3 0 3
z
" id="m15d789a883" style="stroke:#2ca02c;"/>
    </defs>
    <g clip-path="url(#p1488fa3f28)">
     <use style="fill:#2ca02c;stroke:#2ca02c;" x="73.832727" xlink:href="#m15d789a883" y="290.676404"/>
     <use style="fill:#2ca02c;stroke:#2ca02c;" x="73.911969" xlink:href="#m15d789a883" y="290.645218"/>
     <use style="fill:#2ca02c;stroke:#2ca02c;" x="75.10089" xlink:href="#m15d789a883" y="290.175067"/>
     <use style="fill:#2ca02c;stroke:#2ca02c;" x="84.11658" xlink:href="#m15d789a883" y="286.566166"/>
     <use style="fill:#2ca02c;stroke:#2ca02c;" x="106.334823" xlink:href="#m15d789a883" y="275.667312"/>
     <use style="fill:#2ca02c;stroke:#2ca02c;" x="153.183574" xlink:href="#m15d789a883" y="258.455733"/>
     <use style="fill:#2ca02c;stroke:#2ca02c;" x="238.374664" xlink:href="#m15d789a883" y="225.798831"/>
     <use style="fill:#2ca02c;stroke:#2ca02c;" x="398.487273" xlink:href="#m15d789a883" y="157.823256"/>
    </g>
   </g>
   <g id="line2d_24">
    <path clip-path="url(#p1488fa3f28)" d="M 73.832727 290.676403
L 73.911969 290.645493
L 75.10089 290.180521
L 84.11658 286.286559
L 94.123618 282.540174
L 154.996349 247.442193
L 256.450901 196.937441
L 398.487273 61.715944
" style="fill:none;stroke:#d62728;stroke-linecap:square;stroke-width:0.5;"/>
    <defs>
     <path d="M 0 3
C 0.795609 3 1.55874 2.683901 2.12132 2.12132
C 2.683901 1.55874 3 0.795609 3 0
C 3 -0.795609 2.683901 -1.55874 2.12132 -2.12132
C 1.55874 -2.683901 0.795609 -3 0 -3
C -0.795609 -3 -1.55874 -2.683901 -2.12132 -2.12132
C -2.683901 -1.55874 -3 -0.795609 -3 0
C -3 0.795609 -2.683901 1.55874 -2.12132 2.12132
C -1.55874 2.683901 -0.795609 3 0 3
z
" id="m1417f77c5f" style="stroke:#d62728;"/>
    </defs>
    <g clip-path="url(#p1488fa3f28)">
     <use style="fill:#d62728;stroke:#d62728;" x="73.832727" xlink:href="#m1417f77c5f" y="290.676403"/>
     <use style="fill:#d62728;stroke:#d62728;" x="73.911969" xlink:href="#m1417f77c5f" y="290.645493"/>
     <use style="fill:#d62728;stroke:#d62728;" x="75.10089" xlink:href="#m1417f77c5f" y="290.180521"/>
     <use style="fill:#d62728;stroke:#d62728;" x="84.11658" xlink:href="#m1417f77c5f" y="286.286559"/>
     <use style="fill:#d62728;stroke:#d62728;" x="94.123618" xlink:href="#m1417f77c5f" y="282.540174"/>
     <use style="fill:#d62728;stroke:#d62728;" x="154.996349" xlink:href="#m1417f77c5f" y="247.442193"/>
     <use style="fill:#d62728;stroke:#d62728;" x="256.450901" xlink:href="#m1417f77c5f" y="196.937441"/>
     <use style="fill:#d62728;stroke:#d62728;" x="398.487273" xlink:href="#m1417f77c5f" y="61.715944"/>
    </g>
   </g>
   <g id="line2d_25">
    <path clip-path="url(#p1488fa3f28)" d="M 73.832727 290.676464
L 73.911969 290.641013
L 75.972765 289.786255
L 84.11658 286.557432
L 114.414529 272.719072
L 186.687273 246.143357
L 268.845397 206.491869
L 398.487273 120.285167
" style="fill:none;stroke:#9467bd;stroke-linecap:square;stroke-width:0.5;"/>
    <defs>
     <path d="M 0 3
C 0.795609 3 1.55874 2.683901 2.12132 2.12132
C 2.683901 1.55874 3 0.795609 3 0
C 3 -0.795609 2.683901 -1.55874 2.12132 -2.12132
C 1.55874 -2.683901 0.795609 -3 0 -3
C -0.795609 -3 -1.55874 -2.683901 -2.12132 -2.12132
C -2.683901 -1.55874 -3 -0.795609 -3 0
C -3 0.795609 -2.683901 1.55874 -2.12132 2.12132
C -1.55874 2.683901 -0.795609 3 0 3
z
" id="mc325d0e032" style="stroke:#9467bd;"/>
    </defs>
    <g clip-path="url(#p1488fa3f28)">
     <use style="fill:#9467bd;stroke:#9467bd;" x="73.832727" xlink:href="#mc325d0e032" y="290.676464"/>
     <use style="fill:#9467bd;stroke:#9467bd;" x="73.911969" xlink:href="#mc325d0e032" y="290.641013"/>
     <use style="fill:#9467bd;stroke:#9467bd;" x="75.972765" xlink:href="#mc325d0e032" y="289.786255"/>
     <use style="fill:#9467bd;stroke:#9467bd;" x="84.11658" xlink:href="#mc325d0e032" y="286.557432"/>
     <use style="fill:#9467bd;stroke:#9467bd;" x="114.414529" xlink:href="#mc325d0e032" y="272.719072"/>
     <use style="fill:#9467bd;stroke:#9467bd;" x="186.687273" xlink:href="#mc325d0e032" y="246.143357"/>
     <use style="fill:#9467bd;stroke:#9467bd;" x="268.845397" xlink:href="#mc325d0e032" y="206.491869"/>
     <use style="fill:#9467bd;stroke:#9467bd;" x="398.487273" xlink:href="#mc325d0e032" y="120.285167"/>
    </g>
   </g>
   <g id="line2d_26">
    <path clip-path="url(#p1488fa3f28)" d="M 73.832727 290.676423
L 73.911969 290.636305
L 75.10089 290.028252
L 84.11658 284.702488
L 106.334823 271.954412
L 153.183574 263.814353
L 238.374664 222.164187
L 398.487273 156.621628
" style="fill:none;stroke:#8c564b;stroke-linecap:square;stroke-width:0.5;"/>
    <defs>
     <path d="M 0 3
C 0.795609 3 1.55874 2.683901 2.12132 2.12132
C 2.683901 1.55874 3 0.795609 3 0
C 3 -0.795609 2.683901 -1.55874 2.12132 -2.12132
C 1.55874 -2.683901 0.795609 -3 0 -3
C -0.795609 -3 -1.55874 -2.683901 -2.12132 -2.12132
C -2.683901 -1.55874 -3 -0.795609 -3 0
C -3 0.795609 -2.683901 1.55874 -2.12132 2.12132
C -1.55874 2.683901 -0.795609 3 0 3
z
" id="m8167fc63b1" style="stroke:#8c564b;"/>
    </defs>
    <g clip-path="url(#p1488fa3f28)">
     <use style="fill:#8c564b;stroke:#8c564b;" x="73.832727" xlink:href="#m8167fc63b1" y="290.676423"/>
     <use style="fill:#8c564b;stroke:#8c564b;" x="73.911969" xlink:href="#m8167fc63b1" y="290.636305"/>
     <use style="fill:#8c564b;stroke:#8c564b;" x="75.10089" xlink:href="#m8167fc63b1" y="290.028252"/>
     <use style="fill:#8c564b;stroke:#8c564b;" x="84.11658" xlink:href="#m8167fc63b1" y="284.702488"/>
     <use style="fill:#8c564b;stroke:#8c564b;" x="106.334823" xlink:href="#m8167fc63b1" y="271.954412"/>
     <use style="fill:#8c564b;stroke:#8c564b;" x="153.183574" xlink:href="#m8167fc63b1" y="263.814353"/>
     <use style="fill:#8c564b;stroke:#8c564b;" x="238.374664" xlink:href="#m8167fc63b1" y="222.164187"/>
     <use style="fill:#8c564b;stroke:#8c564b;" x="398.487273" xlink:href="#m8167fc63b1" y="156.621628"/>
    </g>
   </g>
   <g id="patch_3">
    <path d="M 57.6 307.584
L 57.6 41.472
" style="fill:none;stroke:#000000;stroke-linecap:square;stroke-linejoin:miter;stroke-width:0.8;"/>
   </g>
   <g id="patch_4">
    <path d="M 414.72 307.584
L 414.72 41.472
" style="fill:none;stroke:#000000;stroke-linecap:square;stroke-linejoin:miter;stroke-width:0.8;"/>
   </g>
   <g id="patch_5">
    <path d="M 57.6 307.584
L 414.72 307.584
" style="fill:none;stroke:#000000;stroke-linecap:square;stroke-linejoin:miter;stroke-width:0.8;"/>
   </g>
   <g id="patch_6">
    <path d="M 57.6 41.472
L 414.72 41.472
" style="fill:none;stroke:#000000;stroke-linecap:square;stroke-linejoin:miter;stroke-width:0.8;"/>
   </g>
   <g id="text_17">
    <!-- FillRandTensor -->
    <defs>
     <path d="M 9.8125 72.90625
L 51.703125 72.90625
L 51.703125 64.59375
L 19.671875 64.59375
L 19.671875 43.109375
L 48.578125 43.109375
L 48.578125 34.8125
L 19.671875 34.8125
L 19.671875 0
L 9.8125 0
z
" id="DejaVuSans-70"/>
     <path d="M 9.421875 54.6875
L 18.40625 54.6875
L 18.40625 0
L 9.421875 0
z
M 9.421875 75.984375
L 18.40625 75.984375
L 18.40625 64.59375
L 9.421875 64.59375
z
" id="DejaVuSans-105"/>
     <path d="M 9.421875 75.984375
L 18.40625 75.984375
L 18.40625 0
L 9.421875 0
z
" id="DejaVuSans-108"/>
     <path d="M 44.390625 34.1875
Q 47.5625 33.109375 50.5625 29.59375
Q 53.5625 26.078125 56.59375 19.921875
L 66.609375 0
L 56 0
L 46.6875 18.703125
Q 43.0625 26.03125 39.671875 28.421875
Q 36.28125 30.8125 30.421875 30.8125
L 19.671875 30.8125
L 19.671875 0
L 9.8125 0
L 9.8125 72.90625
L 32.078125 72.90625
Q 44.578125 72.90625 50.734375 67.671875
Q 56.890625 62.453125 56.890625 51.90625
Q 56.890625 45.015625 53.6875 40.46875
Q 50.484375 35.9375 44.390625 34.1875
z
M 19.671875 64.796875
L 19.671875 38.921875
L 32.078125 38.921875
Q 39.203125 38.921875 42.84375 42.21875
Q 46.484375 45.515625 46.484375 51.90625
Q 46.484375 58.296875 42.84375 61.546875
Q 39.203125 64.796875 32.078125 64.796875
z
" id="DejaVuSans-82"/>
     <path d="M 34.28125 27.484375
Q 23.390625 27.484375 19.1875 25
Q 14.984375 22.515625 14.984375 16.5
Q 14.984375 11.71875 18.140625 8.90625
Q 21.296875 6.109375 26.703125 6.109375
Q 34.1875 6.109375 38.703125 11.40625
Q 43.21875 16.703125 43.21875 25.484375
L 43.21875 27.484375
z
M 52.203125 31.203125
L 52.203125 0
L 43.21875 0
L 43.21875 8.296875
Q 40.140625 3.328125 35.546875 0.953125
Q 30.953125 -1.421875 24.3125 -1.421875
Q 15.921875 -1.421875 10.953125 3.296875
Q 6 8.015625 6 15.921875
Q 6 25.140625 12.171875 29.828125
Q 18.359375 34.515625 30.609375 34.515625
L 43.21875 34.515625
L 43.21875 35.40625
Q 43.21875 41.609375 39.140625 45
Q 35.0625 48.390625 27.6875 48.390625
Q 23 48.390625 18.546875 47.265625
Q 14.109375 46.140625 10.015625 43.890625
L 10.015625 52.203125
Q 14.9375 54.109375 19.578125 55.046875
Q 24.21875 56 28.609375 56
Q 40.484375 56 46.34375 49.84375
Q 52.203125 43.703125 52.203125 31.203125
z
" id="DejaVuSans-97"/>
     <path d="M 54.890625 33.015625
L 54.890625 0
L 45.90625 0
L 45.90625 32.71875
Q 45.90625 40.484375 42.875 44.328125
Q 39.84375 48.1875 33.796875 48.1875
Q 26.515625 48.1875 22.3125 43.546875
Q 18.109375 38.921875 18.109375 30.90625
L 18.109375 0
L 9.078125 0
L 9.078125 54.6875
L 18.109375 54.6875
L 18.109375 46.1875
Q 21.34375 51.125 25.703125 53.5625
Q 30.078125 56 35.796875 56
Q 45.21875 56 50.046875 50.171875
Q 54.890625 44.34375 54.890625 33.015625
z
" id="DejaVuSans-110"/>
     <path d="M 45.40625 46.390625
L 45.40625 75.984375
L 54.390625 75.984375
L 54.390625 0
L 45.40625 0
L 45.40625 8.203125
Q 42.578125 3.328125 38.25 0.953125
Q 33.9375 -1.421875 27.875 -1.421875
Q 17.96875 -1.421875 11.734375 6.484375
Q 5.515625 14.40625 5.515625 27.296875
Q 5.515625 40.1875 11.734375 48.09375
Q 17.96875 56 27.875 56
Q 33.9375 56 38.25 53.625
Q 42.578125 51.265625 45.40625 46.390625
z
M 14.796875 27.296875
Q 14.796875 17.390625 18.875 11.75
Q 22.953125 6.109375 30.078125 6.109375
Q 37.203125 6.109375 41.296875 11.75
Q 45.40625 17.390625 45.40625 27.296875
Q 45.40625 37.203125 41.296875 42.84375
Q 37.203125 48.484375 30.078125 48.484375
Q 22.953125 48.484375 18.875 42.84375
Q 14.796875 37.203125 14.796875 27.296875
z
" id="DejaVuSans-100"/>
     <path d="M -0.296875 72.90625
L 61.375 72.90625
L 61.375 64.59375
L 35.5 64.59375
L 35.5 0
L 25.59375 0
L 25.59375 64.59375
L -0.296875 64.59375
z
" id="DejaVuSans-84"/>
     <path d="M 44.28125 53.078125
L 44.28125 44.578125
Q 40.484375 46.53125 36.375 47.5
Q 32.28125 48.484375 27.875 48.484375
Q 21.1875 48.484375 17.84375 46.4375
Q 14.5 44.390625 14.5 40.28125
Q 14.5 37.15625 16.890625 35.375
Q 19.28125 33.59375 26.515625 31.984375
L 29.59375 31.296875
Q 39.15625 29.25 43.1875 25.515625
Q 47.21875 21.78125 47.21875 15.09375
Q 47.21875 7.46875 41.1875 3.015625
Q 35.15625 -1.421875 24.609375 -1.421875
Q 20.21875 -1.421875 15.453125 -0.5625
Q 10.6875 0.296875 5.421875 2
L 5.421875 11.28125
Q 10.40625 8.6875 15.234375 7.390625
Q 20.0625 6.109375 24.8125 6.109375
Q 31.15625 6.109375 34.5625 8.28125
Q 37.984375 10.453125 37.984375 14.40625
Q 37.984375 18.0625 35.515625 20.015625
Q 33.0625 21.96875 24.703125 23.78125
L 21.578125 24.515625
Q 13.234375 26.265625 9.515625 29.90625
Q 5.8125 33.546875 5.8125 39.890625
Q 5.8125 47.609375 11.28125 51.796875
Q 16.75 56 26.8125 56
Q 31.78125 56 36.171875 55.265625
Q 40.578125 54.546875 44.28125 53.078125
z
" id="DejaVuSans-115"/>
     <path d="M 30.609375 48.390625
Q 23.390625 48.390625 19.1875 42.75
Q 14.984375 37.109375 14.984375 27.296875
Q 14.984375 17.484375 19.15625 11.84375
Q 23.34375 6.203125 30.609375 6.203125
Q 37.796875 6.203125 41.984375 11.859375
Q 46.1875 17.53125 46.1875 27.296875
Q 46.1875 37.015625 41.984375 42.703125
Q 37.796875 48.390625 30.609375 48.390625
z
M 30.609375 56
Q 42.328125 56 49.015625 48.375
Q 55.71875 40.765625 55.71875 27.296875
Q 55.71875 13.875 49.015625 6.21875
Q 42.328125 -1.421875 30.609375 -1.421875
Q 18.84375 -1.421875 12.171875 6.21875
Q 5.515625 13.875 5.515625 27.296875
Q 5.515625 40.765625 12.171875 48.375
Q 18.84375 56 30.609375 56
z
" id="DejaVuSans-111"/>
     <path d="M 41.109375 46.296875
Q 39.59375 47.171875 37.8125 47.578125
Q 36.03125 48 33.890625 48
Q 26.265625 48 22.1875 43.046875
Q 18.109375 38.09375 18.109375 28.8125
L 18.109375 0
L 9.078125 0
L 9.078125 54.6875
L 18.109375 54.6875
L 18.109375 46.1875
Q 20.953125 51.171875 25.484375 53.578125
Q 30.03125 56 36.53125 56
Q 37.453125 56 38.578125 55.875
Q 39.703125 55.765625 41.0625 55.515625
z
" id="DejaVuSans-114"/>
    </defs>
    <g transform="translate(191.852812 35.472)scale(0.12 -0.12)">
     <use xlink:href="#DejaVuSans-70"/>
     <use x="57.410156" xlink:href="#DejaVuSans-105"/>
     <use x="85.193359" xlink:href="#DejaVuSans-108"/>
     <use x="112.976562" xlink:href="#DejaVuSans-108"/>
     <use x="140.759766" xlink:href="#DejaVuSans-82"/>
     <use x="210.210938" xlink:href="#DejaVuSans-97"/>
     <use x="271.490234" xlink:href="#DejaVuSans-110"/>
     <use x="334.869141" xlink:href="#DejaVuSans-100"/>
     <use x="398.345703" xlink:href="#DejaVuSans-84"/>
     <use x="459.164062" xlink:href="#DejaVuSans-101"/>
     <use x="520.6875" xlink:href="#DejaVuSans-110"/>
     <use x="584.066406" xlink:href="#DejaVuSans-115"/>
     <use x="636.166016" xlink:href="#DejaVuSans-111"/>
     <use x="697.347656" xlink:href="#DejaVuSans-114"/>
    </g>
   </g>
   <g id="legend_1">
    <g id="patch_7">
     <path d="M 64.6 137.54075
L 230.585938 137.54075
Q 232.585938 137.54075 232.585938 135.54075
L 232.585938 48.472
Q 232.585938 46.472 230.585938 46.472
L 64.6 46.472
Q 62.6 46.472 62.6 48.472
L 62.6 135.54075
Q 62.6 137.54075 64.6 137.54075
z
" style="fill:#ffffff;opacity:0.8;stroke:#cccccc;stroke-linejoin:miter;"/>
    </g>
    <g id="LineCollection_7">
     <path d="M 76.6 59.570438
L 76.6 49.570438
" style="fill:none;stroke:#d62728;stroke-width:0.5;"/>
    </g>
    <g id="line2d_27">
     <path d="M 66.6 54.570438
L 86.6 54.570438
" style="fill:none;stroke:#d62728;stroke-linecap:square;stroke-width:0.5;"/>
    </g>
    <g id="line2d_28">
     <g>
      <use style="fill:#d62728;stroke:#d62728;" x="76.6" xlink:href="#m1417f77c5f" y="54.570438"/>
     </g>
    </g>
    <g id="text_18">
     <!-- 2 -->
     <g transform="translate(94.6 58.070438)scale(0.1 -0.1)">
      <use xlink:href="#DejaVuSans-50"/>
     </g>
    </g>
    <g id="line2d_29">
     <path d="M 66.6 69.248563
L 86.6 69.248563
" style="fill:none;stroke:#d62728;stroke-dasharray:0.5,0.825;stroke-dashoffset:0;stroke-width:0.5;"/>
    </g>
    <g id="line2d_30"/>
    <g id="text_19">
     <!-- y = 26.47x + -9780721.28 -->
     <defs>
      <path d="M 32.171875 -5.078125
Q 28.375 -14.84375 24.75 -17.8125
Q 21.140625 -20.796875 15.09375 -20.796875
L 7.90625 -20.796875
L 7.90625 -13.28125
L 13.1875 -13.28125
Q 16.890625 -13.28125 18.9375 -11.515625
Q 21 -9.765625 23.484375 -3.21875
L 25.09375 0.875
L 2.984375 54.6875
L 12.5 54.6875
L 29.59375 11.921875
L 46.6875 54.6875
L 56.203125 54.6875
z
" id="DejaVuSans-121"/>
      <path id="DejaVuSans-32"/>
      <path d="M 10.59375 45.40625
L 73.1875 45.40625
L 73.1875 37.203125
L 10.59375 37.203125
z
M 10.59375 25.484375
L 73.1875 25.484375
L 73.1875 17.1875
L 10.59375 17.1875
z
" id="DejaVuSans-61"/>
      <path d="M 33.015625 40.375
Q 26.375 40.375 22.484375 35.828125
Q 18.609375 31.296875 18.609375 23.390625
Q 18.609375 15.53125 22.484375 10.953125
Q 26.375 6.390625 33.015625 6.390625
Q 39.65625 6.390625 43.53125 10.953125
Q 47.40625 15.53125 47.40625 23.390625
Q 47.40625 31.296875 43.53125 35.828125
Q 39.65625 40.375 33.015625 40.375
z
M 52.59375 71.296875
L 52.59375 62.3125
Q 48.875 64.0625 45.09375 64.984375
Q 41.3125 65.921875 37.59375 65.921875
Q 27.828125 65.921875 22.671875 59.328125
Q 17.53125 52.734375 16.796875 39.40625
Q 19.671875 43.65625 24.015625 45.921875
Q 28.375 48.1875 33.59375 48.1875
Q 44.578125 48.1875 50.953125 41.515625
Q 57.328125 34.859375 57.328125 23.390625
Q 57.328125 12.15625 50.6875 5.359375
Q 44.046875 -1.421875 33.015625 -1.421875
Q 20.359375 -1.421875 13.671875 8.265625
Q 6.984375 17.96875 6.984375 36.375
Q 6.984375 53.65625 15.1875 63.9375
Q 23.390625 74.21875 37.203125 74.21875
Q 40.921875 74.21875 44.703125 73.484375
Q 48.484375 72.75 52.59375 71.296875
z
" id="DejaVuSans-54"/>
      <path d="M 54.890625 54.6875
L 35.109375 28.078125
L 55.90625 0
L 45.3125 0
L 29.390625 21.484375
L 13.484375 0
L 2.875 0
L 24.125 28.609375
L 4.6875 54.6875
L 15.28125 54.6875
L 29.78125 35.203125
L 44.28125 54.6875
z
" id="DejaVuSans-120"/>
      <path d="M 46 62.703125
L 46 35.5
L 73.1875 35.5
L 73.1875 27.203125
L 46 27.203125
L 46 0
L 37.796875 0
L 37.796875 27.203125
L 10.59375 27.203125
L 10.59375 35.5
L 37.796875 35.5
L 37.796875 62.703125
z
" id="DejaVuSans-43"/>
      <path d="M 4.890625 31.390625
L 31.203125 31.390625
L 31.203125 23.390625
L 4.890625 23.390625
z
" id="DejaVuSans-45"/>
      <path d="M 10.984375 1.515625
L 10.984375 10.5
Q 14.703125 8.734375 18.5 7.8125
Q 22.3125 6.890625 25.984375 6.890625
Q 35.75 6.890625 40.890625 13.453125
Q 46.046875 20.015625 46.78125 33.40625
Q 43.953125 29.203125 39.59375 26.953125
Q 35.25 24.703125 29.984375 24.703125
Q 19.046875 24.703125 12.671875 31.3125
Q 6.296875 37.9375 6.296875 49.421875
Q 6.296875 60.640625 12.9375 67.421875
Q 19.578125 74.21875 30.609375 74.21875
Q 43.265625 74.21875 49.921875 64.515625
Q 56.59375 54.828125 56.59375 36.375
Q 56.59375 19.140625 48.40625 8.859375
Q 40.234375 -1.421875 26.421875 -1.421875
Q 22.703125 -1.421875 18.890625 -0.6875
Q 15.09375 0.046875 10.984375 1.515625
z
M 30.609375 32.421875
Q 37.25 32.421875 41.125 36.953125
Q 45.015625 41.5 45.015625 49.421875
Q 45.015625 57.28125 41.125 61.84375
Q 37.25 66.40625 30.609375 66.40625
Q 23.96875 66.40625 20.09375 61.84375
Q 16.21875 57.28125 16.21875 49.421875
Q 16.21875 41.5 20.09375 36.953125
Q 23.96875 32.421875 30.609375 32.421875
z
" id="DejaVuSans-57"/>
     </defs>
     <g transform="translate(94.6 72.748563)scale(0.1 -0.1)">
      <use xlink:href="#DejaVuSans-121"/>
      <use x="59.179688" xlink:href="#DejaVuSans-32"/>
      <use x="90.966797" xlink:href="#DejaVuSans-61"/>
      <use x="174.755859" xlink:href="#DejaVuSans-32"/>
      <use x="206.542969" xlink:href="#DejaVuSans-50"/>
      <use x="270.166016" xlink:href="#DejaVuSans-54"/>
      <use x="333.789062" xlink:href="#DejaVuSans-46"/>
      <use x="365.576172" xlink:href="#DejaVuSans-52"/>
      <use x="429.199219" xlink:href="#DejaVuSans-55"/>
      <use x="492.822266" xlink:href="#DejaVuSans-120"/>
      <use x="552.001953" xlink:href="#DejaVuSans-32"/>
      <use x="583.789062" xlink:href="#DejaVuSans-43"/>
      <use x="667.578125" xlink:href="#DejaVuSans-32"/>
      <use x="699.365234" xlink:href="#DejaVuSans-45"/>
      <use x="735.449219" xlink:href="#DejaVuSans-57"/>
      <use x="799.072266" xlink:href="#DejaVuSans-55"/>
      <use x="862.695312" xlink:href="#DejaVuSans-56"/>
      <use x="926.318359" xlink:href="#DejaVuSans-48"/>
      <use x="989.941406" xlink:href="#DejaVuSans-55"/>
      <use x="1053.564453" xlink:href="#DejaVuSans-50"/>
      <use x="1117.1875" xlink:href="#DejaVuSans-49"/>
      <use x="1180.810547" xlink:href="#DejaVuSans-46"/>
      <use x="1212.597656" xlink:href="#DejaVuSans-50"/>
      <use x="1276.220703" xlink:href="#DejaVuSans-56"/>
     </g>
    </g>
    <g id="LineCollection_8">
     <path d="M 76.6 88.926688
L 76.6 78.926688
" style="fill:none;stroke:#9467bd;stroke-width:0.5;"/>
    </g>
    <g id="line2d_31">
     <path d="M 66.6 83.926688
L 86.6 83.926688
" style="fill:none;stroke:#9467bd;stroke-linecap:square;stroke-width:0.5;"/>
    </g>
    <g id="line2d_32">
     <g>
      <use style="fill:#9467bd;stroke:#9467bd;" x="76.6" xlink:href="#mc325d0e032" y="83.926688"/>
     </g>
    </g>
    <g id="text_20">
     <!-- 3 -->
     <g transform="translate(94.6 87.426688)scale(0.1 -0.1)">
      <use xlink:href="#DejaVuSans-51"/>
     </g>
    </g>
    <g id="line2d_33">
     <path d="M 66.6 98.604813
L 86.6 98.604813
" style="fill:none;stroke:#9467bd;stroke-dasharray:0.5,0.825;stroke-dashoffset:0;stroke-width:0.5;"/>
    </g>
    <g id="line2d_34"/>
    <g id="text_21">
     <!-- y = 19.80x + -5864879.52 -->
     <g transform="translate(94.6 102.104813)scale(0.1 -0.1)">
      <use xlink:href="#DejaVuSans-121"/>
      <use x="59.179688" xlink:href="#DejaVuSans-32"/>
      <use x="90.966797" xlink:href="#DejaVuSans-61"/>
      <use x="174.755859" xlink:href="#DejaVuSans-32"/>
      <use x="206.542969" xlink:href="#DejaVuSans-49"/>
      <use x="270.166016" xlink:href="#DejaVuSans-57"/>
      <use x="333.789062" xlink:href="#DejaVuSans-46"/>
      <use x="365.576172" xlink:href="#DejaVuSans-56"/>
      <use x="429.199219" xlink:href="#DejaVuSans-48"/>
      <use x="492.822266" xlink:href="#DejaVuSans-120"/>
      <use x="552.001953" xlink:href="#DejaVuSans-32"/>
      <use x="583.789062" xlink:href="#DejaVuSans-43"/>
      <use x="667.578125" xlink:href="#DejaVuSans-32"/>
      <use x="699.365234" xlink:href="#DejaVuSans-45"/>
      <use x="735.449219" xlink:href="#DejaVuSans-53"/>
      <use x="799.072266" xlink:href="#DejaVuSans-56"/>
      <use x="862.695312" xlink:href="#DejaVuSans-54"/>
      <use x="926.318359" xlink:href="#DejaVuSans-52"/>
      <use x="989.941406" xlink:href="#DejaVuSans-56"/>
      <use x="1053.564453" xlink:href="#DejaVuSans-55"/>
      <use x="1117.1875" xlink:href="#DejaVuSans-57"/>
      <use x="1180.810547" xlink:href="#DejaVuSans-46"/>
      <use x="1212.597656" xlink:href="#DejaVuSans-53"/>
      <use x="1276.220703" xlink:href="#DejaVuSans-50"/>
     </g>
    </g>
    <g id="LineCollection_9">
     <path d="M 76.6 118.282938
L 76.6 108.282938
" style="fill:none;stroke:#8c564b;stroke-width:0.5;"/>
    </g>
    <g id="line2d_35">
     <path d="M 66.6 113.282938
L 86.6 113.282938
" style="fill:none;stroke:#8c564b;stroke-linecap:square;stroke-width:0.5;"/>
    </g>
    <g id="line2d_36">
     <g>
      <use style="fill:#8c564b;stroke:#8c564b;" x="76.6" xlink:href="#m8167fc63b1" y="113.282938"/>
     </g>
    </g>
    <g id="text_22">
     <!-- 4 -->
     <g transform="translate(94.6 116.782938)scale(0.1 -0.1)">
      <use xlink:href="#DejaVuSans-52"/>
     </g>
    </g>
    <g id="line2d_37">
     <path d="M 66.6 127.961063
L 86.6 127.961063
" style="fill:none;stroke:#8c564b;stroke-dasharray:0.5,0.825;stroke-dashoffset:0;stroke-width:0.5;"/>
    </g>
    <g id="line2d_38"/>
    <g id="text_23">
     <!-- y = 16.11x + 1007381.73 -->
     <g transform="translate(94.6 131.461063)scale(0.1 -0.1)">
      <use xlink:href="#DejaVuSans-121"/>
      <use x="59.179688" xlink:href="#DejaVuSans-32"/>
      <use x="90.966797" xlink:href="#DejaVuSans-61"/>
      <use x="174.755859" xlink:href="#DejaVuSans-32"/>
      <use x="206.542969" xlink:href="#DejaVuSans-49"/>
      <use x="270.166016" xlink:href="#DejaVuSans-54"/>
      <use x="333.789062" xlink:href="#DejaVuSans-46"/>
      <use x="365.576172" xlink:href="#DejaVuSans-49"/>
      <use x="429.199219" xlink:href="#DejaVuSans-49"/>
      <use x="492.822266" xlink:href="#DejaVuSans-120"/>
      <use x="552.001953" xlink:href="#DejaVuSans-32"/>
      <use x="583.789062" xlink:href="#DejaVuSans-43"/>
      <use x="667.578125" xlink:href="#DejaVuSans-32"/>
      <use x="699.365234" xlink:href="#DejaVuSans-49"/>
      <use x="762.988281" xlink:href="#DejaVuSans-48"/>
      <use x="826.611328" xlink:href="#DejaVuSans-48"/>
      <use x="890.234375" xlink:href="#DejaVuSans-55"/>
      <use x="953.857422" xlink:href="#DejaVuSans-51"/>
      <use x="1017.480469" xlink:href="#DejaVuSans-56"/>
      <use x="1081.103516" xlink:href="#DejaVuSans-49"/>
      <use x="1144.726562" xlink:href="#DejaVuSans-46"/>
      <use x="1176.513672" xlink:href="#DejaVuSans-55"/>
      <use x="1240.136719" xlink:href="#DejaVuSans-51"/>
     </g>
    </g>
   </g>
  </g>
 </g>
 <defs>
  <clipPath id="p1488fa3f28">
   <rect height="266.112" width="357.12" x="57.6" y="41.472"/>
  </clipPath>
 </defs>
</svg>
