<?xml version="1.0" encoding="utf-8" standalone="no"?>
<!DOCTYPE svg PUBLIC "-//W3C//DTD SVG 1.1//EN"
  "http://www.w3.org/Graphics/SVG/1.1/DTD/svg11.dtd">
<!-- Created with matplotlib (https://matplotlib.org/) -->
<svg height="345.6pt" version="1.1" viewBox="0 0 460.8 345.6" width="460.8pt" xmlns="http://www.w3.org/2000/svg" xmlns:xlink="http://www.w3.org/1999/xlink">
 <defs>
  <style type="text/css">
*{stroke-linecap:butt;stroke-linejoin:round;}
  </style>
 </defs>
 <g id="figure_1">
  <g id="patch_1">
   <path d="M 0 345.6
L 460.8 345.6
L 460.8 0
L 0 0
z
" style="fill:#ffffff;"/>
  </g>
  <g id="axes_1">
   <g id="patch_2">
    <path d="M 57.6 307.584
L 414.72 307.584
L 414.72 41.472
L 57.6 41.472
z
" style="fill:#ffffff;"/>
   </g>
   <g id="matplotlib.axis_1">
    <g id="xtick_1">
     <g id="line2d_1">
      <defs>
       <path d="M 0 0
L 0 3.5
" id="m6c4e606244" style="stroke:#000000;stroke-width:0.8;"/>
      </defs>
      <g>
       <use style="stroke:#000000;stroke-width:0.8;" x="73.832708" xlink:href="#m6c4e606244" y="307.584"/>
      </g>
     </g>
     <g id="text_1">
      <!-- 0.00 -->
      <defs>
       <path d="M 31.78125 66.40625
Q 24.171875 66.40625 20.328125 58.90625
Q 16.5 51.421875 16.5 36.375
Q 16.5 21.390625 20.328125 13.890625
Q 24.171875 6.390625 31.78125 6.390625
Q 39.453125 6.390625 43.28125 13.890625
Q 47.125 21.390625 47.125 36.375
Q 47.125 51.421875 43.28125 58.90625
Q 39.453125 66.40625 31.78125 66.40625
z
M 31.78125 74.21875
Q 44.046875 74.21875 50.515625 64.515625
Q 56.984375 54.828125 56.984375 36.375
Q 56.984375 17.96875 50.515625 8.265625
Q 44.046875 -1.421875 31.78125 -1.421875
Q 19.53125 -1.421875 13.0625 8.265625
Q 6.59375 17.96875 6.59375 36.375
Q 6.59375 54.828125 13.0625 64.515625
Q 19.53125 74.21875 31.78125 74.21875
z
" id="DejaVuSans-48"/>
       <path d="M 10.6875 12.40625
L 21 12.40625
L 21 0
L 10.6875 0
z
" id="DejaVuSans-46"/>
      </defs>
      <g transform="translate(62.699895 322.182437)scale(0.1 -0.1)">
       <use xlink:href="#DejaVuSans-48"/>
       <use x="63.623047" xlink:href="#DejaVuSans-46"/>
       <use x="95.410156" xlink:href="#DejaVuSans-48"/>
       <use x="159.033203" xlink:href="#DejaVuSans-48"/>
      </g>
     </g>
    </g>
    <g id="xtick_2">
     <g id="line2d_2">
      <g>
       <use style="stroke:#000000;stroke-width:0.8;" x="122.210008" xlink:href="#m6c4e606244" y="307.584"/>
      </g>
     </g>
     <g id="text_2">
      <!-- 0.25 -->
      <defs>
       <path d="M 19.1875 8.296875
L 53.609375 8.296875
L 53.609375 0
L 7.328125 0
L 7.328125 8.296875
Q 12.9375 14.109375 22.625 23.890625
Q 32.328125 33.6875 34.8125 36.53125
Q 39.546875 41.84375 41.421875 45.53125
Q 43.3125 49.21875 43.3125 52.78125
Q 43.3125 58.59375 39.234375 62.25
Q 35.15625 65.921875 28.609375 65.921875
Q 23.96875 65.921875 18.8125 64.3125
Q 13.671875 62.703125 7.8125 59.421875
L 7.8125 69.390625
Q 13.765625 71.78125 18.9375 73
Q 24.125 74.21875 28.421875 74.21875
Q 39.75 74.21875 46.484375 68.546875
Q 53.21875 62.890625 53.21875 53.421875
Q 53.21875 48.921875 51.53125 44.890625
Q 49.859375 40.875 45.40625 35.40625
Q 44.1875 33.984375 37.640625 27.21875
Q 31.109375 20.453125 19.1875 8.296875
z
" id="DejaVuSans-50"/>
       <path d="M 10.796875 72.90625
L 49.515625 72.90625
L 49.515625 64.59375
L 19.828125 64.59375
L 19.828125 46.734375
Q 21.96875 47.46875 24.109375 47.828125
Q 26.265625 48.1875 28.421875 48.1875
Q 40.625 48.1875 47.75 41.5
Q 54.890625 34.8125 54.890625 23.390625
Q 54.890625 11.625 47.5625 5.09375
Q 40.234375 -1.421875 26.90625 -1.421875
Q 22.3125 -1.421875 17.546875 -0.640625
Q 12.796875 0.140625 7.71875 1.703125
L 7.71875 11.625
Q 12.109375 9.234375 16.796875 8.0625
Q 21.484375 6.890625 26.703125 6.890625
Q 35.15625 6.890625 40.078125 11.328125
Q 45.015625 15.765625 45.015625 23.390625
Q 45.015625 31 40.078125 35.4375
Q 35.15625 39.890625 26.703125 39.890625
Q 22.75 39.890625 18.8125 39.015625
Q 14.890625 38.140625 10.796875 36.28125
z
" id="DejaVuSans-53"/>
      </defs>
      <g transform="translate(111.077195 322.182437)scale(0.1 -0.1)">
       <use xlink:href="#DejaVuSans-48"/>
       <use x="63.623047" xlink:href="#DejaVuSans-46"/>
       <use x="95.410156" xlink:href="#DejaVuSans-50"/>
       <use x="159.033203" xlink:href="#DejaVuSans-53"/>
      </g>
     </g>
    </g>
    <g id="xtick_3">
     <g id="line2d_3">
      <g>
       <use style="stroke:#000000;stroke-width:0.8;" x="170.587308" xlink:href="#m6c4e606244" y="307.584"/>
      </g>
     </g>
     <g id="text_3">
      <!-- 0.50 -->
      <g transform="translate(159.454495 322.182437)scale(0.1 -0.1)">
       <use xlink:href="#DejaVuSans-48"/>
       <use x="63.623047" xlink:href="#DejaVuSans-46"/>
       <use x="95.410156" xlink:href="#DejaVuSans-53"/>
       <use x="159.033203" xlink:href="#DejaVuSans-48"/>
      </g>
     </g>
    </g>
    <g id="xtick_4">
     <g id="line2d_4">
      <g>
       <use style="stroke:#000000;stroke-width:0.8;" x="218.964608" xlink:href="#m6c4e606244" y="307.584"/>
      </g>
     </g>
     <g id="text_4">
      <!-- 0.75 -->
      <defs>
       <path d="M 8.203125 72.90625
L 55.078125 72.90625
L 55.078125 68.703125
L 28.609375 0
L 18.3125 0
L 43.21875 64.59375
L 8.203125 64.59375
z
" id="DejaVuSans-55"/>
      </defs>
      <g transform="translate(207.831795 322.182437)scale(0.1 -0.1)">
       <use xlink:href="#DejaVuSans-48"/>
       <use x="63.623047" xlink:href="#DejaVuSans-46"/>
       <use x="95.410156" xlink:href="#DejaVuSans-55"/>
       <use x="159.033203" xlink:href="#DejaVuSans-53"/>
      </g>
     </g>
    </g>
    <g id="xtick_5">
     <g id="line2d_5">
      <g>
       <use style="stroke:#000000;stroke-width:0.8;" x="267.341908" xlink:href="#m6c4e606244" y="307.584"/>
      </g>
     </g>
     <g id="text_5">
      <!-- 1.00 -->
      <defs>
       <path d="M 12.40625 8.296875
L 28.515625 8.296875
L 28.515625 63.921875
L 10.984375 60.40625
L 10.984375 69.390625
L 28.421875 72.90625
L 38.28125 72.90625
L 38.28125 8.296875
L 54.390625 8.296875
L 54.390625 0
L 12.40625 0
z
" id="DejaVuSans-49"/>
      </defs>
      <g transform="translate(256.209096 322.182437)scale(0.1 -0.1)">
       <use xlink:href="#DejaVuSans-49"/>
       <use x="63.623047" xlink:href="#DejaVuSans-46"/>
       <use x="95.410156" xlink:href="#DejaVuSans-48"/>
       <use x="159.033203" xlink:href="#DejaVuSans-48"/>
      </g>
     </g>
    </g>
    <g id="xtick_6">
     <g id="line2d_6">
      <g>
       <use style="stroke:#000000;stroke-width:0.8;" x="315.719208" xlink:href="#m6c4e606244" y="307.584"/>
      </g>
     </g>
     <g id="text_6">
      <!-- 1.25 -->
      <g transform="translate(304.586396 322.182437)scale(0.1 -0.1)">
       <use xlink:href="#DejaVuSans-49"/>
       <use x="63.623047" xlink:href="#DejaVuSans-46"/>
       <use x="95.410156" xlink:href="#DejaVuSans-50"/>
       <use x="159.033203" xlink:href="#DejaVuSans-53"/>
      </g>
     </g>
    </g>
    <g id="xtick_7">
     <g id="line2d_7">
      <g>
       <use style="stroke:#000000;stroke-width:0.8;" x="364.096508" xlink:href="#m6c4e606244" y="307.584"/>
      </g>
     </g>
     <g id="text_7">
      <!-- 1.50 -->
      <g transform="translate(352.963696 322.182437)scale(0.1 -0.1)">
       <use xlink:href="#DejaVuSans-49"/>
       <use x="63.623047" xlink:href="#DejaVuSans-46"/>
       <use x="95.410156" xlink:href="#DejaVuSans-53"/>
       <use x="159.033203" xlink:href="#DejaVuSans-48"/>
      </g>
     </g>
    </g>
    <g id="xtick_8">
     <g id="line2d_8">
      <g>
       <use style="stroke:#000000;stroke-width:0.8;" x="412.473808" xlink:href="#m6c4e606244" y="307.584"/>
      </g>
     </g>
     <g id="text_8">
      <!-- 1.75 -->
      <g transform="translate(401.340996 322.182437)scale(0.1 -0.1)">
       <use xlink:href="#DejaVuSans-49"/>
       <use x="63.623047" xlink:href="#DejaVuSans-46"/>
       <use x="95.410156" xlink:href="#DejaVuSans-55"/>
       <use x="159.033203" xlink:href="#DejaVuSans-53"/>
      </g>
     </g>
    </g>
    <g id="text_9">
     <!-- 1e7 -->
     <defs>
      <path d="M 56.203125 29.59375
L 56.203125 25.203125
L 14.890625 25.203125
Q 15.484375 15.921875 20.484375 11.0625
Q 25.484375 6.203125 34.421875 6.203125
Q 39.59375 6.203125 44.453125 7.46875
Q 49.3125 8.734375 54.109375 11.28125
L 54.109375 2.78125
Q 49.265625 0.734375 44.1875 -0.34375
Q 39.109375 -1.421875 33.890625 -1.421875
Q 20.796875 -1.421875 13.15625 6.1875
Q 5.515625 13.8125 5.515625 26.8125
Q 5.515625 40.234375 12.765625 48.109375
Q 20.015625 56 32.328125 56
Q 43.359375 56 49.78125 48.890625
Q 56.203125 41.796875 56.203125 29.59375
z
M 47.21875 32.234375
Q 47.125 39.59375 43.09375 43.984375
Q 39.0625 48.390625 32.421875 48.390625
Q 24.90625 48.390625 20.390625 44.140625
Q 15.875 39.890625 15.1875 32.171875
z
" id="DejaVuSans-101"/>
     </defs>
     <g transform="translate(395.841875 334.860562)scale(0.1 -0.1)">
      <use xlink:href="#DejaVuSans-49"/>
      <use x="63.623047" xlink:href="#DejaVuSans-101"/>
      <use x="125.146484" xlink:href="#DejaVuSans-55"/>
     </g>
    </g>
   </g>
   <g id="matplotlib.axis_2">
    <g id="ytick_1">
     <g id="line2d_9">
      <defs>
       <path d="M 0 0
L -3.5 0
" id="m7f36f9b438" style="stroke:#000000;stroke-width:0.8;"/>
      </defs>
      <g>
       <use style="stroke:#000000;stroke-width:0.8;" x="57.6" xlink:href="#m7f36f9b438" y="278.9305"/>
      </g>
     </g>
     <g id="text_10">
      <!-- 0 -->
      <g transform="translate(44.2375 282.729719)scale(0.1 -0.1)">
       <use xlink:href="#DejaVuSans-48"/>
      </g>
     </g>
    </g>
    <g id="ytick_2">
     <g id="line2d_10">
      <g>
       <use style="stroke:#000000;stroke-width:0.8;" x="57.6" xlink:href="#m7f36f9b438" y="234.220089"/>
      </g>
     </g>
     <g id="text_11">
      <!-- 1 -->
      <g transform="translate(44.2375 238.019308)scale(0.1 -0.1)">
       <use xlink:href="#DejaVuSans-49"/>
      </g>
     </g>
    </g>
    <g id="ytick_3">
     <g id="line2d_11">
      <g>
       <use style="stroke:#000000;stroke-width:0.8;" x="57.6" xlink:href="#m7f36f9b438" y="189.509677"/>
      </g>
     </g>
     <g id="text_12">
      <!-- 2 -->
      <g transform="translate(44.2375 193.308896)scale(0.1 -0.1)">
       <use xlink:href="#DejaVuSans-50"/>
      </g>
     </g>
    </g>
    <g id="ytick_4">
     <g id="line2d_12">
      <g>
       <use style="stroke:#000000;stroke-width:0.8;" x="57.6" xlink:href="#m7f36f9b438" y="144.799266"/>
      </g>
     </g>
     <g id="text_13">
      <!-- 3 -->
      <defs>
       <path d="M 40.578125 39.3125
Q 47.65625 37.796875 51.625 33
Q 55.609375 28.21875 55.609375 21.1875
Q 55.609375 10.40625 48.1875 4.484375
Q 40.765625 -1.421875 27.09375 -1.421875
Q 22.515625 -1.421875 17.65625 -0.515625
Q 12.796875 0.390625 7.625 2.203125
L 7.625 11.71875
Q 11.71875 9.328125 16.59375 8.109375
Q 21.484375 6.890625 26.8125 6.890625
Q 36.078125 6.890625 40.9375 10.546875
Q 45.796875 14.203125 45.796875 21.1875
Q 45.796875 27.640625 41.28125 31.265625
Q 36.765625 34.90625 28.71875 34.90625
L 20.21875 34.90625
L 20.21875 43.015625
L 29.109375 43.015625
Q 36.375 43.015625 40.234375 45.921875
Q 44.09375 48.828125 44.09375 54.296875
Q 44.09375 59.90625 40.109375 62.90625
Q 36.140625 65.921875 28.71875 65.921875
Q 24.65625 65.921875 20.015625 65.03125
Q 15.375 64.15625 9.8125 62.3125
L 9.8125 71.09375
Q 15.4375 72.65625 20.34375 73.4375
Q 25.25 74.21875 29.59375 74.21875
Q 40.828125 74.21875 47.359375 69.109375
Q 53.90625 64.015625 53.90625 55.328125
Q 53.90625 49.265625 50.4375 45.09375
Q 46.96875 40.921875 40.578125 39.3125
z
" id="DejaVuSans-51"/>
      </defs>
      <g transform="translate(44.2375 148.598484)scale(0.1 -0.1)">
       <use xlink:href="#DejaVuSans-51"/>
      </g>
     </g>
    </g>
    <g id="ytick_5">
     <g id="line2d_13">
      <g>
       <use style="stroke:#000000;stroke-width:0.8;" x="57.6" xlink:href="#m7f36f9b438" y="100.088854"/>
      </g>
     </g>
     <g id="text_14">
      <!-- 4 -->
      <defs>
       <path d="M 37.796875 64.3125
L 12.890625 25.390625
L 37.796875 25.390625
z
M 35.203125 72.90625
L 47.609375 72.90625
L 47.609375 25.390625
L 58.015625 25.390625
L 58.015625 17.1875
L 47.609375 17.1875
L 47.609375 0
L 37.796875 0
L 37.796875 17.1875
L 4.890625 17.1875
L 4.890625 26.703125
z
" id="DejaVuSans-52"/>
      </defs>
      <g transform="translate(44.2375 103.888073)scale(0.1 -0.1)">
       <use xlink:href="#DejaVuSans-52"/>
      </g>
     </g>
    </g>
    <g id="ytick_6">
     <g id="line2d_14">
      <g>
       <use style="stroke:#000000;stroke-width:0.8;" x="57.6" xlink:href="#m7f36f9b438" y="55.378443"/>
      </g>
     </g>
     <g id="text_15">
      <!-- 5 -->
      <g transform="translate(44.2375 59.177661)scale(0.1 -0.1)">
       <use xlink:href="#DejaVuSans-53"/>
      </g>
     </g>
    </g>
    <g id="text_16">
     <!-- 1e7 -->
     <g transform="translate(57.6 38.472)scale(0.1 -0.1)">
      <use xlink:href="#DejaVuSans-49"/>
      <use x="63.623047" xlink:href="#DejaVuSans-101"/>
      <use x="125.146484" xlink:href="#DejaVuSans-55"/>
     </g>
    </g>
   </g>
   <g id="LineCollection_1">
    <path clip-path="url(#p297d6c1380)" d="M 73.832727 278.930397
L 73.832727 278.93038
" style="fill:none;stroke:#1f77b4;stroke-width:0.5;"/>
    <path clip-path="url(#p297d6c1380)" d="M 73.911969 278.913589
L 73.911969 278.913213
" style="fill:none;stroke:#1f77b4;stroke-width:0.5;"/>
    <path clip-path="url(#p297d6c1380)" d="M 75.10089 278.695256
L 75.10089 278.694207
" style="fill:none;stroke:#1f77b4;stroke-width:0.5;"/>
    <path clip-path="url(#p297d6c1380)" d="M 84.11658 276.994873
L 84.11658 276.986538
" style="fill:none;stroke:#1f77b4;stroke-width:0.5;"/>
    <path clip-path="url(#p297d6c1380)" d="M 94.123618 275.272668
L 94.123618 275.177091
" style="fill:none;stroke:#1f77b4;stroke-width:0.5;"/>
    <path clip-path="url(#p297d6c1380)" d="M 154.996349 263.2981
L 154.996349 262.763962
" style="fill:none;stroke:#1f77b4;stroke-width:0.5;"/>
    <path clip-path="url(#p297d6c1380)" d="M 256.450901 238.207742
L 256.450901 236.635861
" style="fill:none;stroke:#1f77b4;stroke-width:0.5;"/>
    <path clip-path="url(#p297d6c1380)" d="M 398.487273 211.747075
L 398.487273 209.452976
" style="fill:none;stroke:#1f77b4;stroke-width:0.5;"/>
   </g>
   <g id="LineCollection_2">
    <path clip-path="url(#p297d6c1380)" d="M 73.832727 278.93037
L 73.832727 278.930352
" style="fill:none;stroke:#ff7f0e;stroke-width:0.5;"/>
    <path clip-path="url(#p297d6c1380)" d="M 73.911969 278.916611
L 73.911969 278.916461
" style="fill:none;stroke:#ff7f0e;stroke-width:0.5;"/>
    <path clip-path="url(#p297d6c1380)" d="M 75.972765 278.427353
L 75.972765 278.423358
" style="fill:none;stroke:#ff7f0e;stroke-width:0.5;"/>
    <path clip-path="url(#p297d6c1380)" d="M 84.11658 276.69544
L 84.11658 276.659208
" style="fill:none;stroke:#ff7f0e;stroke-width:0.5;"/>
    <path clip-path="url(#p297d6c1380)" d="M 114.414529 270.001614
L 114.414529 268.984922
" style="fill:none;stroke:#ff7f0e;stroke-width:0.5;"/>
    <path clip-path="url(#p297d6c1380)" d="M 186.687273 253.514128
L 186.687273 250.904517
" style="fill:none;stroke:#ff7f0e;stroke-width:0.5;"/>
    <path clip-path="url(#p297d6c1380)" d="M 268.845397 238.023568
L 268.845397 236.862063
" style="fill:none;stroke:#ff7f0e;stroke-width:0.5;"/>
    <path clip-path="url(#p297d6c1380)" d="M 398.487273 215.339665
L 398.487273 210.222334
" style="fill:none;stroke:#ff7f0e;stroke-width:0.5;"/>
   </g>
   <g id="LineCollection_3">
    <path clip-path="url(#p297d6c1380)" d="M 73.832727 278.930426
L 73.832727 278.930405
" style="fill:none;stroke:#2ca02c;stroke-width:0.5;"/>
    <path clip-path="url(#p297d6c1380)" d="M 73.911969 278.918499
L 73.911969 278.918233
" style="fill:none;stroke:#2ca02c;stroke-width:0.5;"/>
    <path clip-path="url(#p297d6c1380)" d="M 75.10089 278.697381
L 75.10089 278.694556
" style="fill:none;stroke:#2ca02c;stroke-width:0.5;"/>
    <path clip-path="url(#p297d6c1380)" d="M 84.11658 277.019609
L 84.11658 277.009039
" style="fill:none;stroke:#2ca02c;stroke-width:0.5;"/>
    <path clip-path="url(#p297d6c1380)" d="M 106.334823 268.004162
L 106.334823 267.130743
" style="fill:none;stroke:#2ca02c;stroke-width:0.5;"/>
    <path clip-path="url(#p297d6c1380)" d="M 153.183574 270.013308
L 153.183574 266.340196
" style="fill:none;stroke:#2ca02c;stroke-width:0.5;"/>
    <path clip-path="url(#p297d6c1380)" d="M 238.374664 245.882764
L 238.374664 227.268102
" style="fill:none;stroke:#2ca02c;stroke-width:0.5;"/>
    <path clip-path="url(#p297d6c1380)" d="M 398.487273 193.163153
L 398.487273 181.446861
" style="fill:none;stroke:#2ca02c;stroke-width:0.5;"/>
   </g>
   <g id="LineCollection_4">
    <path clip-path="url(#p297d6c1380)" d="M 73.832727 278.930459
L 73.832727 278.930414
" style="fill:none;stroke:#d62728;stroke-width:0.5;"/>
    <path clip-path="url(#p297d6c1380)" d="M 73.911969 278.913043
L 73.911969 278.912942
" style="fill:none;stroke:#d62728;stroke-width:0.5;"/>
    <path clip-path="url(#p297d6c1380)" d="M 75.10089 278.653511
L 75.10089 278.616681
" style="fill:none;stroke:#d62728;stroke-width:0.5;"/>
    <path clip-path="url(#p297d6c1380)" d="M 84.11658 276.956104
L 84.11658 276.943602
" style="fill:none;stroke:#d62728;stroke-width:0.5;"/>
    <path clip-path="url(#p297d6c1380)" d="M 94.123618 274.908703
L 94.123618 274.869076
" style="fill:none;stroke:#d62728;stroke-width:0.5;"/>
    <path clip-path="url(#p297d6c1380)" d="M 154.996349 262.269505
L 154.996349 259.023745
" style="fill:none;stroke:#d62728;stroke-width:0.5;"/>
    <path clip-path="url(#p297d6c1380)" d="M 256.450901 249.600793
L 256.450901 236.627869
" style="fill:none;stroke:#d62728;stroke-width:0.5;"/>
    <path clip-path="url(#p297d6c1380)" d="M 398.487273 104.185787
L 398.487273 53.568
" style="fill:none;stroke:#d62728;stroke-width:0.5;"/>
   </g>
   <g id="LineCollection_5">
    <path clip-path="url(#p297d6c1380)" d="M 73.832727 278.931081
L 73.832727 278.93086
" style="fill:none;stroke:#9467bd;stroke-width:0.5;"/>
    <path clip-path="url(#p297d6c1380)" d="M 73.911969 278.913989
L 73.911969 278.911746
" style="fill:none;stroke:#9467bd;stroke-width:0.5;"/>
    <path clip-path="url(#p297d6c1380)" d="M 75.972765 278.45977
L 75.972765 278.446109
" style="fill:none;stroke:#9467bd;stroke-width:0.5;"/>
    <path clip-path="url(#p297d6c1380)" d="M 84.11658 276.905211
L 84.11658 276.798938
" style="fill:none;stroke:#9467bd;stroke-width:0.5;"/>
    <path clip-path="url(#p297d6c1380)" d="M 114.414529 264.400445
L 114.414529 261.638341
" style="fill:none;stroke:#9467bd;stroke-width:0.5;"/>
    <path clip-path="url(#p297d6c1380)" d="M 186.687273 259.299651
L 186.687273 257.405416
" style="fill:none;stroke:#9467bd;stroke-width:0.5;"/>
    <path clip-path="url(#p297d6c1380)" d="M 268.845397 205.60795
L 268.845397 182.849772
" style="fill:none;stroke:#9467bd;stroke-width:0.5;"/>
    <path clip-path="url(#p297d6c1380)" d="M 398.487273 269.50042
L 398.487273 242.631666
" style="fill:none;stroke:#9467bd;stroke-width:0.5;"/>
   </g>
   <g id="LineCollection_6">
    <path clip-path="url(#p297d6c1380)" d="M 73.832727 278.930171
L 73.832727 278.929782
" style="fill:none;stroke:#8c564b;stroke-width:0.5;"/>
    <path clip-path="url(#p297d6c1380)" d="M 73.911969 278.91634
L 73.911969 278.911737
" style="fill:none;stroke:#8c564b;stroke-width:0.5;"/>
    <path clip-path="url(#p297d6c1380)" d="M 75.10089 278.643753
L 75.10089 278.605208
" style="fill:none;stroke:#8c564b;stroke-width:0.5;"/>
    <path clip-path="url(#p297d6c1380)" d="M 84.11658 277.084337
L 84.11658 276.781225
" style="fill:none;stroke:#8c564b;stroke-width:0.5;"/>
    <path clip-path="url(#p297d6c1380)" d="M 106.334823 270.011015
L 106.334823 267.847174
" style="fill:none;stroke:#8c564b;stroke-width:0.5;"/>
    <path clip-path="url(#p297d6c1380)" d="M 153.183574 295.488
L 153.183574 281.598478
" style="fill:none;stroke:#8c564b;stroke-width:0.5;"/>
    <path clip-path="url(#p297d6c1380)" d="M 238.374664 233.719586
L 238.374664 227.701057
" style="fill:none;stroke:#8c564b;stroke-width:0.5;"/>
    <path clip-path="url(#p297d6c1380)" d="M 398.487273 208.316611
L 398.487273 200.09805
" style="fill:none;stroke:#8c564b;stroke-width:0.5;"/>
   </g>
   <g id="line2d_15">
    <path clip-path="url(#p297d6c1380)" d="M 73.832727 279.089065
L 73.911969 279.072088
L 75.10089 278.817374
L 84.11658 276.885853
L 94.123618 274.741946
L 154.996349 261.700577
L 256.450901 239.964961
L 398.487273 209.535099
" style="fill:none;stroke:#1f77b4;stroke-dasharray:0.5,0.825;stroke-dashoffset:0;stroke-width:0.5;"/>
   </g>
   <g id="line2d_16">
    <path clip-path="url(#p297d6c1380)" d="M 73.832727 278.263725
L 73.911969 278.247402
L 75.972765 277.822881
L 84.11658 276.145269
L 114.414529 269.903943
L 186.687273 255.015879
L 268.845397 238.091445
L 398.487273 211.385437
" style="fill:none;stroke:#ff7f0e;stroke-dasharray:0.5,0.825;stroke-dashoffset:0;stroke-width:0.5;"/>
   </g>
   <g id="line2d_17">
    <path clip-path="url(#p297d6c1380)" d="M 73.832727 280.4226
L 73.911969 280.400587
L 75.10089 280.070316
L 84.11658 277.56584
L 106.334823 271.393816
L 153.183574 258.379662
L 238.374664 234.714357
L 398.487273 190.23654
" style="fill:none;stroke:#2ca02c;stroke-dasharray:0.5,0.825;stroke-dashoffset:0;stroke-width:0.5;"/>
   </g>
   <g id="line2d_18">
    <path clip-path="url(#p297d6c1380)" d="M 73.832727 288.315479
L 73.911969 288.272615
L 75.10089 287.629496
L 84.11658 282.752664
L 94.123618 277.339586
L 154.996349 244.411877
L 256.450901 189.532361
L 398.487273 112.701038
" style="fill:none;stroke:#d62728;stroke-dasharray:0.5,0.825;stroke-dashoffset:0;stroke-width:0.5;"/>
   </g>
   <g id="line2d_19">
    <path clip-path="url(#p297d6c1380)" d="M 73.832727 273.016483
L 73.911969 273.005004
L 75.972765 272.706479
L 84.11658 271.526776
L 114.414529 267.137851
L 186.687273 256.668506
L 268.845397 244.767177
L 398.487273 225.987407
" style="fill:none;stroke:#9467bd;stroke-dasharray:0.5,0.825;stroke-dashoffset:0;stroke-width:0.5;"/>
   </g>
   <g id="line2d_20">
    <path clip-path="url(#p297d6c1380)" d="M 73.832727 281.464762
L 73.911969 281.445889
L 75.10089 281.162714
L 84.11658 279.015379
L 106.334823 273.72349
L 153.183574 262.565165
L 238.374664 242.274553
L 398.487273 204.13931
" style="fill:none;stroke:#8c564b;stroke-dasharray:0.5,0.825;stroke-dashoffset:0;stroke-width:0.5;"/>
   </g>
   <g id="line2d_21">
    <path clip-path="url(#p297d6c1380)" d="M 73.832727 278.930389
L 73.911969 278.913401
L 75.10089 278.694731
L 84.11658 276.990706
L 94.123618 275.224879
L 154.996349 263.031031
L 256.450901 237.421801
L 398.487273 210.600026
" style="fill:none;stroke:#1f77b4;stroke-linecap:square;stroke-width:0.5;"/>
    <defs>
     <path d="M 0 3
C 0.795609 3 1.55874 2.683901 2.12132 2.12132
C 2.683901 1.55874 3 0.795609 3 0
C 3 -0.795609 2.683901 -1.55874 2.12132 -2.12132
C 1.55874 -2.683901 0.795609 -3 0 -3
C -0.795609 -3 -1.55874 -2.683901 -2.12132 -2.12132
C -2.683901 -1.55874 -3 -0.795609 -3 0
C -3 0.795609 -2.683901 1.55874 -2.12132 2.12132
C -1.55874 2.683901 -0.795609 3 0 3
z
" id="me52ef5bbe6" style="stroke:#1f77b4;"/>
    </defs>
    <g clip-path="url(#p297d6c1380)">
     <use style="fill:#1f77b4;stroke:#1f77b4;" x="73.832727" xlink:href="#me52ef5bbe6" y="278.930389"/>
     <use style="fill:#1f77b4;stroke:#1f77b4;" x="73.911969" xlink:href="#me52ef5bbe6" y="278.913401"/>
     <use style="fill:#1f77b4;stroke:#1f77b4;" x="75.10089" xlink:href="#me52ef5bbe6" y="278.694731"/>
     <use style="fill:#1f77b4;stroke:#1f77b4;" x="84.11658" xlink:href="#me52ef5bbe6" y="276.990706"/>
     <use style="fill:#1f77b4;stroke:#1f77b4;" x="94.123618" xlink:href="#me52ef5bbe6" y="275.224879"/>
     <use style="fill:#1f77b4;stroke:#1f77b4;" x="154.996349" xlink:href="#me52ef5bbe6" y="263.031031"/>
     <use style="fill:#1f77b4;stroke:#1f77b4;" x="256.450901" xlink:href="#me52ef5bbe6" y="237.421801"/>
     <use style="fill:#1f77b4;stroke:#1f77b4;" x="398.487273" xlink:href="#me52ef5bbe6" y="210.600026"/>
    </g>
   </g>
   <g id="line2d_22">
    <path clip-path="url(#p297d6c1380)" d="M 73.832727 278.930361
L 73.911969 278.916536
L 75.972765 278.425355
L 84.11658 276.677324
L 114.414529 269.493268
L 186.687273 252.209323
L 268.845397 237.442815
L 398.487273 212.780999
" style="fill:none;stroke:#ff7f0e;stroke-linecap:square;stroke-width:0.5;"/>
    <defs>
     <path d="M 0 3
C 0.795609 3 1.55874 2.683901 2.12132 2.12132
C 2.683901 1.55874 3 0.795609 3 0
C 3 -0.795609 2.683901 -1.55874 2.12132 -2.12132
C 1.55874 -2.683901 0.795609 -3 0 -3
C -0.795609 -3 -1.55874 -2.683901 -2.12132 -2.12132
C -2.683901 -1.55874 -3 -0.795609 -3 0
C -3 0.795609 -2.683901 1.55874 -2.12132 2.12132
C -1.55874 2.683901 -0.795609 3 0 3
z
" id="m9f1f4cf9f6" style="stroke:#ff7f0e;"/>
    </defs>
    <g clip-path="url(#p297d6c1380)">
     <use style="fill:#ff7f0e;stroke:#ff7f0e;" x="73.832727" xlink:href="#m9f1f4cf9f6" y="278.930361"/>
     <use style="fill:#ff7f0e;stroke:#ff7f0e;" x="73.911969" xlink:href="#m9f1f4cf9f6" y="278.916536"/>
     <use style="fill:#ff7f0e;stroke:#ff7f0e;" x="75.972765" xlink:href="#m9f1f4cf9f6" y="278.425355"/>
     <use style="fill:#ff7f0e;stroke:#ff7f0e;" x="84.11658" xlink:href="#m9f1f4cf9f6" y="276.677324"/>
     <use style="fill:#ff7f0e;stroke:#ff7f0e;" x="114.414529" xlink:href="#m9f1f4cf9f6" y="269.493268"/>
     <use style="fill:#ff7f0e;stroke:#ff7f0e;" x="186.687273" xlink:href="#m9f1f4cf9f6" y="252.209323"/>
     <use style="fill:#ff7f0e;stroke:#ff7f0e;" x="268.845397" xlink:href="#m9f1f4cf9f6" y="237.442815"/>
     <use style="fill:#ff7f0e;stroke:#ff7f0e;" x="398.487273" xlink:href="#m9f1f4cf9f6" y="212.780999"/>
    </g>
   </g>
   <g id="line2d_23">
    <path clip-path="url(#p297d6c1380)" d="M 73.832727 278.930416
L 73.911969 278.918366
L 75.10089 278.695968
L 84.11658 277.014324
L 106.334823 267.567452
L 153.183574 268.176752
L 238.374664 236.575433
L 398.487273 187.305007
" style="fill:none;stroke:#2ca02c;stroke-linecap:square;stroke-width:0.5;"/>
    <defs>
     <path d="M 0 3
C 0.795609 3 1.55874 2.683901 2.12132 2.12132
C 2.683901 1.55874 3 0.795609 3 0
C 3 -0.795609 2.683901 -1.55874 2.12132 -2.12132
C 1.55874 -2.683901 0.795609 -3 0 -3
C -0.795609 -3 -1.55874 -2.683901 -2.12132 -2.12132
C -2.683901 -1.55874 -3 -0.795609 -3 0
C -3 0.795609 -2.683901 1.55874 -2.12132 2.12132
C -1.55874 2.683901 -0.795609 3 0 3
z
" id="mbd8ba5dd9b" style="stroke:#2ca02c;"/>
    </defs>
    <g clip-path="url(#p297d6c1380)">
     <use style="fill:#2ca02c;stroke:#2ca02c;" x="73.832727" xlink:href="#mbd8ba5dd9b" y="278.930416"/>
     <use style="fill:#2ca02c;stroke:#2ca02c;" x="73.911969" xlink:href="#mbd8ba5dd9b" y="278.918366"/>
     <use style="fill:#2ca02c;stroke:#2ca02c;" x="75.10089" xlink:href="#mbd8ba5dd9b" y="278.695968"/>
     <use style="fill:#2ca02c;stroke:#2ca02c;" x="84.11658" xlink:href="#mbd8ba5dd9b" y="277.014324"/>
     <use style="fill:#2ca02c;stroke:#2ca02c;" x="106.334823" xlink:href="#mbd8ba5dd9b" y="267.567452"/>
     <use style="fill:#2ca02c;stroke:#2ca02c;" x="153.183574" xlink:href="#mbd8ba5dd9b" y="268.176752"/>
     <use style="fill:#2ca02c;stroke:#2ca02c;" x="238.374664" xlink:href="#mbd8ba5dd9b" y="236.575433"/>
     <use style="fill:#2ca02c;stroke:#2ca02c;" x="398.487273" xlink:href="#mbd8ba5dd9b" y="187.305007"/>
    </g>
   </g>
   <g id="line2d_24">
    <path clip-path="url(#p297d6c1380)" d="M 73.832727 278.930436
L 73.911969 278.912993
L 75.10089 278.635096
L 84.11658 276.949853
L 94.123618 274.888889
L 154.996349 260.646625
L 256.450901 243.114331
L 398.487273 78.876894
" style="fill:none;stroke:#d62728;stroke-linecap:square;stroke-width:0.5;"/>
    <defs>
     <path d="M 0 3
C 0.795609 3 1.55874 2.683901 2.12132 2.12132
C 2.683901 1.55874 3 0.795609 3 0
C 3 -0.795609 2.683901 -1.55874 2.12132 -2.12132
C 1.55874 -2.683901 0.795609 -3 0 -3
C -0.795609 -3 -1.55874 -2.683901 -2.12132 -2.12132
C -2.683901 -1.55874 -3 -0.795609 -3 0
C -3 0.795609 -2.683901 1.55874 -2.12132 2.12132
C -1.55874 2.683901 -0.795609 3 0 3
z
" id="mcd5c2c84b8" style="stroke:#d62728;"/>
    </defs>
    <g clip-path="url(#p297d6c1380)">
     <use style="fill:#d62728;stroke:#d62728;" x="73.832727" xlink:href="#mcd5c2c84b8" y="278.930436"/>
     <use style="fill:#d62728;stroke:#d62728;" x="73.911969" xlink:href="#mcd5c2c84b8" y="278.912993"/>
     <use style="fill:#d62728;stroke:#d62728;" x="75.10089" xlink:href="#mcd5c2c84b8" y="278.635096"/>
     <use style="fill:#d62728;stroke:#d62728;" x="84.11658" xlink:href="#mcd5c2c84b8" y="276.949853"/>
     <use style="fill:#d62728;stroke:#d62728;" x="94.123618" xlink:href="#mcd5c2c84b8" y="274.888889"/>
     <use style="fill:#d62728;stroke:#d62728;" x="154.996349" xlink:href="#mcd5c2c84b8" y="260.646625"/>
     <use style="fill:#d62728;stroke:#d62728;" x="256.450901" xlink:href="#mcd5c2c84b8" y="243.114331"/>
     <use style="fill:#d62728;stroke:#d62728;" x="398.487273" xlink:href="#mcd5c2c84b8" y="78.876894"/>
    </g>
   </g>
   <g id="line2d_25">
    <path clip-path="url(#p297d6c1380)" d="M 73.832727 278.93097
L 73.911969 278.912867
L 75.972765 278.45294
L 84.11658 276.852074
L 114.414529 263.019393
L 186.687273 258.352533
L 268.845397 194.228861
L 398.487273 256.066043
" style="fill:none;stroke:#9467bd;stroke-linecap:square;stroke-width:0.5;"/>
    <defs>
     <path d="M 0 3
C 0.795609 3 1.55874 2.683901 2.12132 2.12132
C 2.683901 1.55874 3 0.795609 3 0
C 3 -0.795609 2.683901 -1.55874 2.12132 -2.12132
C 1.55874 -2.683901 0.795609 -3 0 -3
C -0.795609 -3 -1.55874 -2.683901 -2.12132 -2.12132
C -2.683901 -1.55874 -3 -0.795609 -3 0
C -3 0.795609 -2.683901 1.55874 -2.12132 2.12132
C -1.55874 2.683901 -0.795609 3 0 3
z
" id="m85743f0a33" style="stroke:#9467bd;"/>
    </defs>
    <g clip-path="url(#p297d6c1380)">
     <use style="fill:#9467bd;stroke:#9467bd;" x="73.832727" xlink:href="#m85743f0a33" y="278.93097"/>
     <use style="fill:#9467bd;stroke:#9467bd;" x="73.911969" xlink:href="#m85743f0a33" y="278.912867"/>
     <use style="fill:#9467bd;stroke:#9467bd;" x="75.972765" xlink:href="#m85743f0a33" y="278.45294"/>
     <use style="fill:#9467bd;stroke:#9467bd;" x="84.11658" xlink:href="#m85743f0a33" y="276.852074"/>
     <use style="fill:#9467bd;stroke:#9467bd;" x="114.414529" xlink:href="#m85743f0a33" y="263.019393"/>
     <use style="fill:#9467bd;stroke:#9467bd;" x="186.687273" xlink:href="#m85743f0a33" y="258.352533"/>
     <use style="fill:#9467bd;stroke:#9467bd;" x="268.845397" xlink:href="#m85743f0a33" y="194.228861"/>
     <use style="fill:#9467bd;stroke:#9467bd;" x="398.487273" xlink:href="#m85743f0a33" y="256.066043"/>
    </g>
   </g>
   <g id="line2d_26">
    <path clip-path="url(#p297d6c1380)" d="M 73.832727 278.929976
L 73.911969 278.914038
L 75.10089 278.62448
L 84.11658 276.932781
L 106.334823 268.929094
L 153.183574 288.543239
L 238.374664 230.710322
L 398.487273 204.207331
" style="fill:none;stroke:#8c564b;stroke-linecap:square;stroke-width:0.5;"/>
    <defs>
     <path d="M 0 3
C 0.795609 3 1.55874 2.683901 2.12132 2.12132
C 2.683901 1.55874 3 0.795609 3 0
C 3 -0.795609 2.683901 -1.55874 2.12132 -2.12132
C 1.55874 -2.683901 0.795609 -3 0 -3
C -0.795609 -3 -1.55874 -2.683901 -2.12132 -2.12132
C -2.683901 -1.55874 -3 -0.795609 -3 0
C -3 0.795609 -2.683901 1.55874 -2.12132 2.12132
C -1.55874 2.683901 -0.795609 3 0 3
z
" id="meefd62fc3f" style="stroke:#8c564b;"/>
    </defs>
    <g clip-path="url(#p297d6c1380)">
     <use style="fill:#8c564b;stroke:#8c564b;" x="73.832727" xlink:href="#meefd62fc3f" y="278.929976"/>
     <use style="fill:#8c564b;stroke:#8c564b;" x="73.911969" xlink:href="#meefd62fc3f" y="278.914038"/>
     <use style="fill:#8c564b;stroke:#8c564b;" x="75.10089" xlink:href="#meefd62fc3f" y="278.62448"/>
     <use style="fill:#8c564b;stroke:#8c564b;" x="84.11658" xlink:href="#meefd62fc3f" y="276.932781"/>
     <use style="fill:#8c564b;stroke:#8c564b;" x="106.334823" xlink:href="#meefd62fc3f" y="268.929094"/>
     <use style="fill:#8c564b;stroke:#8c564b;" x="153.183574" xlink:href="#meefd62fc3f" y="288.543239"/>
     <use style="fill:#8c564b;stroke:#8c564b;" x="238.374664" xlink:href="#meefd62fc3f" y="230.710322"/>
     <use style="fill:#8c564b;stroke:#8c564b;" x="398.487273" xlink:href="#meefd62fc3f" y="204.207331"/>
    </g>
   </g>
   <g id="patch_3">
    <path d="M 57.6 307.584
L 57.6 41.472
" style="fill:none;stroke:#000000;stroke-linecap:square;stroke-linejoin:miter;stroke-width:0.8;"/>
   </g>
   <g id="patch_4">
    <path d="M 414.72 307.584
L 414.72 41.472
" style="fill:none;stroke:#000000;stroke-linecap:square;stroke-linejoin:miter;stroke-width:0.8;"/>
   </g>
   <g id="patch_5">
    <path d="M 57.6 307.584
L 414.72 307.584
" style="fill:none;stroke:#000000;stroke-linecap:square;stroke-linejoin:miter;stroke-width:0.8;"/>
   </g>
   <g id="patch_6">
    <path d="M 57.6 41.472
L 414.72 41.472
" style="fill:none;stroke:#000000;stroke-linecap:square;stroke-linejoin:miter;stroke-width:0.8;"/>
   </g>
   <g id="text_17">
    <!-- FillTensor -->
    <defs>
     <path d="M 9.8125 72.90625
L 51.703125 72.90625
L 51.703125 64.59375
L 19.671875 64.59375
L 19.671875 43.109375
L 48.578125 43.109375
L 48.578125 34.8125
L 19.671875 34.8125
L 19.671875 0
L 9.8125 0
z
" id="DejaVuSans-70"/>
     <path d="M 9.421875 54.6875
L 18.40625 54.6875
L 18.40625 0
L 9.421875 0
z
M 9.421875 75.984375
L 18.40625 75.984375
L 18.40625 64.59375
L 9.421875 64.59375
z
" id="DejaVuSans-105"/>
     <path d="M 9.421875 75.984375
L 18.40625 75.984375
L 18.40625 0
L 9.421875 0
z
" id="DejaVuSans-108"/>
     <path d="M -0.296875 72.90625
L 61.375 72.90625
L 61.375 64.59375
L 35.5 64.59375
L 35.5 0
L 25.59375 0
L 25.59375 64.59375
L -0.296875 64.59375
z
" id="DejaVuSans-84"/>
     <path d="M 54.890625 33.015625
L 54.890625 0
L 45.90625 0
L 45.90625 32.71875
Q 45.90625 40.484375 42.875 44.328125
Q 39.84375 48.1875 33.796875 48.1875
Q 26.515625 48.1875 22.3125 43.546875
Q 18.109375 38.921875 18.109375 30.90625
L 18.109375 0
L 9.078125 0
L 9.078125 54.6875
L 18.109375 54.6875
L 18.109375 46.1875
Q 21.34375 51.125 25.703125 53.5625
Q 30.078125 56 35.796875 56
Q 45.21875 56 50.046875 50.171875
Q 54.890625 44.34375 54.890625 33.015625
z
" id="DejaVuSans-110"/>
     <path d="M 44.28125 53.078125
L 44.28125 44.578125
Q 40.484375 46.53125 36.375 47.5
Q 32.28125 48.484375 27.875 48.484375
Q 21.1875 48.484375 17.84375 46.4375
Q 14.5 44.390625 14.5 40.28125
Q 14.5 37.15625 16.890625 35.375
Q 19.28125 33.59375 26.515625 31.984375
L 29.59375 31.296875
Q 39.15625 29.25 43.1875 25.515625
Q 47.21875 21.78125 47.21875 15.09375
Q 47.21875 7.46875 41.1875 3.015625
Q 35.15625 -1.421875 24.609375 -1.421875
Q 20.21875 -1.421875 15.453125 -0.5625
Q 10.6875 0.296875 5.421875 2
L 5.421875 11.28125
Q 10.40625 8.6875 15.234375 7.390625
Q 20.0625 6.109375 24.8125 6.109375
Q 31.15625 6.109375 34.5625 8.28125
Q 37.984375 10.453125 37.984375 14.40625
Q 37.984375 18.0625 35.515625 20.015625
Q 33.0625 21.96875 24.703125 23.78125
L 21.578125 24.515625
Q 13.234375 26.265625 9.515625 29.90625
Q 5.8125 33.546875 5.8125 39.890625
Q 5.8125 47.609375 11.28125 51.796875
Q 16.75 56 26.8125 56
Q 31.78125 56 36.171875 55.265625
Q 40.578125 54.546875 44.28125 53.078125
z
" id="DejaVuSans-115"/>
     <path d="M 30.609375 48.390625
Q 23.390625 48.390625 19.1875 42.75
Q 14.984375 37.109375 14.984375 27.296875
Q 14.984375 17.484375 19.15625 11.84375
Q 23.34375 6.203125 30.609375 6.203125
Q 37.796875 6.203125 41.984375 11.859375
Q 46.1875 17.53125 46.1875 27.296875
Q 46.1875 37.015625 41.984375 42.703125
Q 37.796875 48.390625 30.609375 48.390625
z
M 30.609375 56
Q 42.328125 56 49.015625 48.375
Q 55.71875 40.765625 55.71875 27.296875
Q 55.71875 13.875 49.015625 6.21875
Q 42.328125 -1.421875 30.609375 -1.421875
Q 18.84375 -1.421875 12.171875 6.21875
Q 5.515625 13.875 5.515625 27.296875
Q 5.515625 40.765625 12.171875 48.375
Q 18.84375 56 30.609375 56
z
" id="DejaVuSans-111"/>
     <path d="M 41.109375 46.296875
Q 39.59375 47.171875 37.8125 47.578125
Q 36.03125 48 33.890625 48
Q 26.265625 48 22.1875 43.046875
Q 18.109375 38.09375 18.109375 28.8125
L 18.109375 0
L 9.078125 0
L 9.078125 54.6875
L 18.109375 54.6875
L 18.109375 46.1875
Q 20.953125 51.171875 25.484375 53.578125
Q 30.03125 56 36.53125 56
Q 37.453125 56 38.578125 55.875
Q 39.703125 55.765625 41.0625 55.515625
z
" id="DejaVuSans-114"/>
    </defs>
    <g transform="translate(207.308437 35.472)scale(0.12 -0.12)">
     <use xlink:href="#DejaVuSans-70"/>
     <use x="57.410156" xlink:href="#DejaVuSans-105"/>
     <use x="85.193359" xlink:href="#DejaVuSans-108"/>
     <use x="112.976562" xlink:href="#DejaVuSans-108"/>
     <use x="140.759766" xlink:href="#DejaVuSans-84"/>
     <use x="201.578125" xlink:href="#DejaVuSans-101"/>
     <use x="263.101562" xlink:href="#DejaVuSans-110"/>
     <use x="326.480469" xlink:href="#DejaVuSans-115"/>
     <use x="378.580078" xlink:href="#DejaVuSans-111"/>
     <use x="439.761719" xlink:href="#DejaVuSans-114"/>
    </g>
   </g>
   <g id="legend_1">
    <g id="patch_7">
     <path d="M 64.6 137.54075
L 224.223438 137.54075
Q 226.223438 137.54075 226.223438 135.54075
L 226.223438 48.472
Q 226.223438 46.472 224.223438 46.472
L 64.6 46.472
Q 62.6 46.472 62.6 48.472
L 62.6 135.54075
Q 62.6 137.54075 64.6 137.54075
z
" style="fill:#ffffff;opacity:0.8;stroke:#cccccc;stroke-linejoin:miter;"/>
    </g>
    <g id="LineCollection_7">
     <path d="M 76.6 59.570438
L 76.6 49.570438
" style="fill:none;stroke:#d62728;stroke-width:0.5;"/>
    </g>
    <g id="line2d_27">
     <path d="M 66.6 54.570438
L 86.6 54.570438
" style="fill:none;stroke:#d62728;stroke-linecap:square;stroke-width:0.5;"/>
    </g>
    <g id="line2d_28">
     <g>
      <use style="fill:#d62728;stroke:#d62728;" x="76.6" xlink:href="#mcd5c2c84b8" y="54.570438"/>
     </g>
    </g>
    <g id="text_18">
     <!-- 2 -->
     <g transform="translate(94.6 58.070438)scale(0.1 -0.1)">
      <use xlink:href="#DejaVuSans-50"/>
     </g>
    </g>
    <g id="line2d_29">
     <path d="M 66.6 69.248563
L 86.6 69.248563
" style="fill:none;stroke:#d62728;stroke-dasharray:0.5,0.825;stroke-dashoffset:0;stroke-width:0.5;"/>
    </g>
    <g id="line2d_30"/>
    <g id="text_19">
     <!-- y = 2.34x + -2099061.25 -->
     <defs>
      <path d="M 32.171875 -5.078125
Q 28.375 -14.84375 24.75 -17.8125
Q 21.140625 -20.796875 15.09375 -20.796875
L 7.90625 -20.796875
L 7.90625 -13.28125
L 13.1875 -13.28125
Q 16.890625 -13.28125 18.9375 -11.515625
Q 21 -9.765625 23.484375 -3.21875
L 25.09375 0.875
L 2.984375 54.6875
L 12.5 54.6875
L 29.59375 11.921875
L 46.6875 54.6875
L 56.203125 54.6875
z
" id="DejaVuSans-121"/>
      <path id="DejaVuSans-32"/>
      <path d="M 10.59375 45.40625
L 73.1875 45.40625
L 73.1875 37.203125
L 10.59375 37.203125
z
M 10.59375 25.484375
L 73.1875 25.484375
L 73.1875 17.1875
L 10.59375 17.1875
z
" id="DejaVuSans-61"/>
      <path d="M 54.890625 54.6875
L 35.109375 28.078125
L 55.90625 0
L 45.3125 0
L 29.390625 21.484375
L 13.484375 0
L 2.875 0
L 24.125 28.609375
L 4.6875 54.6875
L 15.28125 54.6875
L 29.78125 35.203125
L 44.28125 54.6875
z
" id="DejaVuSans-120"/>
      <path d="M 46 62.703125
L 46 35.5
L 73.1875 35.5
L 73.1875 27.203125
L 46 27.203125
L 46 0
L 37.796875 0
L 37.796875 27.203125
L 10.59375 27.203125
L 10.59375 35.5
L 37.796875 35.5
L 37.796875 62.703125
z
" id="DejaVuSans-43"/>
      <path d="M 4.890625 31.390625
L 31.203125 31.390625
L 31.203125 23.390625
L 4.890625 23.390625
z
" id="DejaVuSans-45"/>
      <path d="M 10.984375 1.515625
L 10.984375 10.5
Q 14.703125 8.734375 18.5 7.8125
Q 22.3125 6.890625 25.984375 6.890625
Q 35.75 6.890625 40.890625 13.453125
Q 46.046875 20.015625 46.78125 33.40625
Q 43.953125 29.203125 39.59375 26.953125
Q 35.25 24.703125 29.984375 24.703125
Q 19.046875 24.703125 12.671875 31.3125
Q 6.296875 37.9375 6.296875 49.421875
Q 6.296875 60.640625 12.9375 67.421875
Q 19.578125 74.21875 30.609375 74.21875
Q 43.265625 74.21875 49.921875 64.515625
Q 56.59375 54.828125 56.59375 36.375
Q 56.59375 19.140625 48.40625 8.859375
Q 40.234375 -1.421875 26.421875 -1.421875
Q 22.703125 -1.421875 18.890625 -0.6875
Q 15.09375 0.046875 10.984375 1.515625
z
M 30.609375 32.421875
Q 37.25 32.421875 41.125 36.953125
Q 45.015625 41.5 45.015625 49.421875
Q 45.015625 57.28125 41.125 61.84375
Q 37.25 66.40625 30.609375 66.40625
Q 23.96875 66.40625 20.09375 61.84375
Q 16.21875 57.28125 16.21875 49.421875
Q 16.21875 41.5 20.09375 36.953125
Q 23.96875 32.421875 30.609375 32.421875
z
" id="DejaVuSans-57"/>
      <path d="M 33.015625 40.375
Q 26.375 40.375 22.484375 35.828125
Q 18.609375 31.296875 18.609375 23.390625
Q 18.609375 15.53125 22.484375 10.953125
Q 26.375 6.390625 33.015625 6.390625
Q 39.65625 6.390625 43.53125 10.953125
Q 47.40625 15.53125 47.40625 23.390625
Q 47.40625 31.296875 43.53125 35.828125
Q 39.65625 40.375 33.015625 40.375
z
M 52.59375 71.296875
L 52.59375 62.3125
Q 48.875 64.0625 45.09375 64.984375
Q 41.3125 65.921875 37.59375 65.921875
Q 27.828125 65.921875 22.671875 59.328125
Q 17.53125 52.734375 16.796875 39.40625
Q 19.671875 43.65625 24.015625 45.921875
Q 28.375 48.1875 33.59375 48.1875
Q 44.578125 48.1875 50.953125 41.515625
Q 57.328125 34.859375 57.328125 23.390625
Q 57.328125 12.15625 50.6875 5.359375
Q 44.046875 -1.421875 33.015625 -1.421875
Q 20.359375 -1.421875 13.671875 8.265625
Q 6.984375 17.96875 6.984375 36.375
Q 6.984375 53.65625 15.1875 63.9375
Q 23.390625 74.21875 37.203125 74.21875
Q 40.921875 74.21875 44.703125 73.484375
Q 48.484375 72.75 52.59375 71.296875
z
" id="DejaVuSans-54"/>
     </defs>
     <g transform="translate(94.6 72.748563)scale(0.1 -0.1)">
      <use xlink:href="#DejaVuSans-121"/>
      <use x="59.179688" xlink:href="#DejaVuSans-32"/>
      <use x="90.966797" xlink:href="#DejaVuSans-61"/>
      <use x="174.755859" xlink:href="#DejaVuSans-32"/>
      <use x="206.542969" xlink:href="#DejaVuSans-50"/>
      <use x="270.166016" xlink:href="#DejaVuSans-46"/>
      <use x="301.953125" xlink:href="#DejaVuSans-51"/>
      <use x="365.576172" xlink:href="#DejaVuSans-52"/>
      <use x="429.199219" xlink:href="#DejaVuSans-120"/>
      <use x="488.378906" xlink:href="#DejaVuSans-32"/>
      <use x="520.166016" xlink:href="#DejaVuSans-43"/>
      <use x="603.955078" xlink:href="#DejaVuSans-32"/>
      <use x="635.742188" xlink:href="#DejaVuSans-45"/>
      <use x="671.826172" xlink:href="#DejaVuSans-50"/>
      <use x="735.449219" xlink:href="#DejaVuSans-48"/>
      <use x="799.072266" xlink:href="#DejaVuSans-57"/>
      <use x="862.695312" xlink:href="#DejaVuSans-57"/>
      <use x="926.318359" xlink:href="#DejaVuSans-48"/>
      <use x="989.941406" xlink:href="#DejaVuSans-54"/>
      <use x="1053.564453" xlink:href="#DejaVuSans-49"/>
      <use x="1117.1875" xlink:href="#DejaVuSans-46"/>
      <use x="1148.974609" xlink:href="#DejaVuSans-50"/>
      <use x="1212.597656" xlink:href="#DejaVuSans-53"/>
     </g>
    </g>
    <g id="LineCollection_8">
     <path d="M 76.6 88.926688
L 76.6 78.926688
" style="fill:none;stroke:#9467bd;stroke-width:0.5;"/>
    </g>
    <g id="line2d_31">
     <path d="M 66.6 83.926688
L 86.6 83.926688
" style="fill:none;stroke:#9467bd;stroke-linecap:square;stroke-width:0.5;"/>
    </g>
    <g id="line2d_32">
     <g>
      <use style="fill:#9467bd;stroke:#9467bd;" x="76.6" xlink:href="#m85743f0a33" y="83.926688"/>
     </g>
    </g>
    <g id="text_20">
     <!-- 3 -->
     <g transform="translate(94.6 87.426688)scale(0.1 -0.1)">
      <use xlink:href="#DejaVuSans-51"/>
     </g>
    </g>
    <g id="line2d_33">
     <path d="M 66.6 98.604813
L 86.6 98.604813
" style="fill:none;stroke:#9467bd;stroke-dasharray:0.5,0.825;stroke-dashoffset:0;stroke-width:0.5;"/>
    </g>
    <g id="line2d_34"/>
    <g id="text_21">
     <!-- y = 0.63x + 1322737.77 -->
     <g transform="translate(94.6 102.104813)scale(0.1 -0.1)">
      <use xlink:href="#DejaVuSans-121"/>
      <use x="59.179688" xlink:href="#DejaVuSans-32"/>
      <use x="90.966797" xlink:href="#DejaVuSans-61"/>
      <use x="174.755859" xlink:href="#DejaVuSans-32"/>
      <use x="206.542969" xlink:href="#DejaVuSans-48"/>
      <use x="270.166016" xlink:href="#DejaVuSans-46"/>
      <use x="301.953125" xlink:href="#DejaVuSans-54"/>
      <use x="365.576172" xlink:href="#DejaVuSans-51"/>
      <use x="429.199219" xlink:href="#DejaVuSans-120"/>
      <use x="488.378906" xlink:href="#DejaVuSans-32"/>
      <use x="520.166016" xlink:href="#DejaVuSans-43"/>
      <use x="603.955078" xlink:href="#DejaVuSans-32"/>
      <use x="635.742188" xlink:href="#DejaVuSans-49"/>
      <use x="699.365234" xlink:href="#DejaVuSans-51"/>
      <use x="762.988281" xlink:href="#DejaVuSans-50"/>
      <use x="826.611328" xlink:href="#DejaVuSans-50"/>
      <use x="890.234375" xlink:href="#DejaVuSans-55"/>
      <use x="953.857422" xlink:href="#DejaVuSans-51"/>
      <use x="1017.480469" xlink:href="#DejaVuSans-55"/>
      <use x="1081.103516" xlink:href="#DejaVuSans-46"/>
      <use x="1112.890625" xlink:href="#DejaVuSans-55"/>
      <use x="1176.513672" xlink:href="#DejaVuSans-55"/>
     </g>
    </g>
    <g id="LineCollection_9">
     <path d="M 76.6 118.282938
L 76.6 108.282938
" style="fill:none;stroke:#8c564b;stroke-width:0.5;"/>
    </g>
    <g id="line2d_35">
     <path d="M 66.6 113.282938
L 86.6 113.282938
" style="fill:none;stroke:#8c564b;stroke-linecap:square;stroke-width:0.5;"/>
    </g>
    <g id="line2d_36">
     <g>
      <use style="fill:#8c564b;stroke:#8c564b;" x="76.6" xlink:href="#meefd62fc3f" y="113.282938"/>
     </g>
    </g>
    <g id="text_22">
     <!-- 4 -->
     <g transform="translate(94.6 116.782938)scale(0.1 -0.1)">
      <use xlink:href="#DejaVuSans-52"/>
     </g>
    </g>
    <g id="line2d_37">
     <path d="M 66.6 127.961063
L 86.6 127.961063
" style="fill:none;stroke:#8c564b;stroke-dasharray:0.5,0.825;stroke-dashoffset:0;stroke-width:0.5;"/>
    </g>
    <g id="line2d_38"/>
    <g id="text_23">
     <!-- y = 1.03x + -566818.01 -->
     <defs>
      <path d="M 31.78125 34.625
Q 24.75 34.625 20.71875 30.859375
Q 16.703125 27.09375 16.703125 20.515625
Q 16.703125 13.921875 20.71875 10.15625
Q 24.75 6.390625 31.78125 6.390625
Q 38.8125 6.390625 42.859375 10.171875
Q 46.921875 13.96875 46.921875 20.515625
Q 46.921875 27.09375 42.890625 30.859375
Q 38.875 34.625 31.78125 34.625
z
M 21.921875 38.8125
Q 15.578125 40.375 12.03125 44.71875
Q 8.5 49.078125 8.5 55.328125
Q 8.5 64.0625 14.71875 69.140625
Q 20.953125 74.21875 31.78125 74.21875
Q 42.671875 74.21875 48.875 69.140625
Q 55.078125 64.0625 55.078125 55.328125
Q 55.078125 49.078125 51.53125 44.71875
Q 48 40.375 41.703125 38.8125
Q 48.828125 37.15625 52.796875 32.3125
Q 56.78125 27.484375 56.78125 20.515625
Q 56.78125 9.90625 50.3125 4.234375
Q 43.84375 -1.421875 31.78125 -1.421875
Q 19.734375 -1.421875 13.25 4.234375
Q 6.78125 9.90625 6.78125 20.515625
Q 6.78125 27.484375 10.78125 32.3125
Q 14.796875 37.15625 21.921875 38.8125
z
M 18.3125 54.390625
Q 18.3125 48.734375 21.84375 45.5625
Q 25.390625 42.390625 31.78125 42.390625
Q 38.140625 42.390625 41.71875 45.5625
Q 45.3125 48.734375 45.3125 54.390625
Q 45.3125 60.0625 41.71875 63.234375
Q 38.140625 66.40625 31.78125 66.40625
Q 25.390625 66.40625 21.84375 63.234375
Q 18.3125 60.0625 18.3125 54.390625
z
" id="DejaVuSans-56"/>
     </defs>
     <g transform="translate(94.6 131.461063)scale(0.1 -0.1)">
      <use xlink:href="#DejaVuSans-121"/>
      <use x="59.179688" xlink:href="#DejaVuSans-32"/>
      <use x="90.966797" xlink:href="#DejaVuSans-61"/>
      <use x="174.755859" xlink:href="#DejaVuSans-32"/>
      <use x="206.542969" xlink:href="#DejaVuSans-49"/>
      <use x="270.166016" xlink:href="#DejaVuSans-46"/>
      <use x="301.953125" xlink:href="#DejaVuSans-48"/>
      <use x="365.576172" xlink:href="#DejaVuSans-51"/>
      <use x="429.199219" xlink:href="#DejaVuSans-120"/>
      <use x="488.378906" xlink:href="#DejaVuSans-32"/>
      <use x="520.166016" xlink:href="#DejaVuSans-43"/>
      <use x="603.955078" xlink:href="#DejaVuSans-32"/>
      <use x="635.742188" xlink:href="#DejaVuSans-45"/>
      <use x="671.826172" xlink:href="#DejaVuSans-53"/>
      <use x="735.449219" xlink:href="#DejaVuSans-54"/>
      <use x="799.072266" xlink:href="#DejaVuSans-54"/>
      <use x="862.695312" xlink:href="#DejaVuSans-56"/>
      <use x="926.318359" xlink:href="#DejaVuSans-49"/>
      <use x="989.941406" xlink:href="#DejaVuSans-56"/>
      <use x="1053.564453" xlink:href="#DejaVuSans-46"/>
      <use x="1085.351562" xlink:href="#DejaVuSans-48"/>
      <use x="1148.974609" xlink:href="#DejaVuSans-49"/>
     </g>
    </g>
   </g>
  </g>
 </g>
 <defs>
  <clipPath id="p297d6c1380">
   <rect height="266.112" width="357.12" x="57.6" y="41.472"/>
  </clipPath>
 </defs>
</svg>
