<?xml version="1.0" encoding="utf-8" standalone="no"?>
<!DOCTYPE svg PUBLIC "-//W3C//DTD SVG 1.1//EN"
  "http://www.w3.org/Graphics/SVG/1.1/DTD/svg11.dtd">
<!-- Created with matplotlib (https://matplotlib.org/) -->
<svg height="345.6pt" version="1.1" viewBox="0 0 460.8 345.6" width="460.8pt" xmlns="http://www.w3.org/2000/svg" xmlns:xlink="http://www.w3.org/1999/xlink">
 <defs>
  <style type="text/css">
*{stroke-linecap:butt;stroke-linejoin:round;}
  </style>
 </defs>
 <g id="figure_1">
  <g id="patch_1">
   <path d="M 0 345.6
L 460.8 345.6
L 460.8 0
L 0 0
z
" style="fill:#ffffff;"/>
  </g>
  <g id="axes_1">
   <g id="patch_2">
    <path d="M 57.6 307.584
L 414.72 307.584
L 414.72 41.472
L 57.6 41.472
z
" style="fill:#ffffff;"/>
   </g>
   <g id="matplotlib.axis_1">
    <g id="xtick_1">
     <g id="line2d_1">
      <defs>
       <path d="M 0 0
L 0 3.5
" id="m20de17e4dc" style="stroke:#000000;stroke-width:0.8;"/>
      </defs>
      <g>
       <use style="stroke:#000000;stroke-width:0.8;" x="73.832708" xlink:href="#m20de17e4dc" y="307.584"/>
      </g>
     </g>
     <g id="text_1">
      <!-- 0.00 -->
      <defs>
       <path d="M 31.78125 66.40625
Q 24.171875 66.40625 20.328125 58.90625
Q 16.5 51.421875 16.5 36.375
Q 16.5 21.390625 20.328125 13.890625
Q 24.171875 6.390625 31.78125 6.390625
Q 39.453125 6.390625 43.28125 13.890625
Q 47.125 21.390625 47.125 36.375
Q 47.125 51.421875 43.28125 58.90625
Q 39.453125 66.40625 31.78125 66.40625
z
M 31.78125 74.21875
Q 44.046875 74.21875 50.515625 64.515625
Q 56.984375 54.828125 56.984375 36.375
Q 56.984375 17.96875 50.515625 8.265625
Q 44.046875 -1.421875 31.78125 -1.421875
Q 19.53125 -1.421875 13.0625 8.265625
Q 6.59375 17.96875 6.59375 36.375
Q 6.59375 54.828125 13.0625 64.515625
Q 19.53125 74.21875 31.78125 74.21875
z
" id="DejaVuSans-48"/>
       <path d="M 10.6875 12.40625
L 21 12.40625
L 21 0
L 10.6875 0
z
" id="DejaVuSans-46"/>
      </defs>
      <g transform="translate(62.699895 322.182437)scale(0.1 -0.1)">
       <use xlink:href="#DejaVuSans-48"/>
       <use x="63.623047" xlink:href="#DejaVuSans-46"/>
       <use x="95.410156" xlink:href="#DejaVuSans-48"/>
       <use x="159.033203" xlink:href="#DejaVuSans-48"/>
      </g>
     </g>
    </g>
    <g id="xtick_2">
     <g id="line2d_2">
      <g>
       <use style="stroke:#000000;stroke-width:0.8;" x="122.210008" xlink:href="#m20de17e4dc" y="307.584"/>
      </g>
     </g>
     <g id="text_2">
      <!-- 0.25 -->
      <defs>
       <path d="M 19.1875 8.296875
L 53.609375 8.296875
L 53.609375 0
L 7.328125 0
L 7.328125 8.296875
Q 12.9375 14.109375 22.625 23.890625
Q 32.328125 33.6875 34.8125 36.53125
Q 39.546875 41.84375 41.421875 45.53125
Q 43.3125 49.21875 43.3125 52.78125
Q 43.3125 58.59375 39.234375 62.25
Q 35.15625 65.921875 28.609375 65.921875
Q 23.96875 65.921875 18.8125 64.3125
Q 13.671875 62.703125 7.8125 59.421875
L 7.8125 69.390625
Q 13.765625 71.78125 18.9375 73
Q 24.125 74.21875 28.421875 74.21875
Q 39.75 74.21875 46.484375 68.546875
Q 53.21875 62.890625 53.21875 53.421875
Q 53.21875 48.921875 51.53125 44.890625
Q 49.859375 40.875 45.40625 35.40625
Q 44.1875 33.984375 37.640625 27.21875
Q 31.109375 20.453125 19.1875 8.296875
z
" id="DejaVuSans-50"/>
       <path d="M 10.796875 72.90625
L 49.515625 72.90625
L 49.515625 64.59375
L 19.828125 64.59375
L 19.828125 46.734375
Q 21.96875 47.46875 24.109375 47.828125
Q 26.265625 48.1875 28.421875 48.1875
Q 40.625 48.1875 47.75 41.5
Q 54.890625 34.8125 54.890625 23.390625
Q 54.890625 11.625 47.5625 5.09375
Q 40.234375 -1.421875 26.90625 -1.421875
Q 22.3125 -1.421875 17.546875 -0.640625
Q 12.796875 0.140625 7.71875 1.703125
L 7.71875 11.625
Q 12.109375 9.234375 16.796875 8.0625
Q 21.484375 6.890625 26.703125 6.890625
Q 35.15625 6.890625 40.078125 11.328125
Q 45.015625 15.765625 45.015625 23.390625
Q 45.015625 31 40.078125 35.4375
Q 35.15625 39.890625 26.703125 39.890625
Q 22.75 39.890625 18.8125 39.015625
Q 14.890625 38.140625 10.796875 36.28125
z
" id="DejaVuSans-53"/>
      </defs>
      <g transform="translate(111.077195 322.182437)scale(0.1 -0.1)">
       <use xlink:href="#DejaVuSans-48"/>
       <use x="63.623047" xlink:href="#DejaVuSans-46"/>
       <use x="95.410156" xlink:href="#DejaVuSans-50"/>
       <use x="159.033203" xlink:href="#DejaVuSans-53"/>
      </g>
     </g>
    </g>
    <g id="xtick_3">
     <g id="line2d_3">
      <g>
       <use style="stroke:#000000;stroke-width:0.8;" x="170.587308" xlink:href="#m20de17e4dc" y="307.584"/>
      </g>
     </g>
     <g id="text_3">
      <!-- 0.50 -->
      <g transform="translate(159.454495 322.182437)scale(0.1 -0.1)">
       <use xlink:href="#DejaVuSans-48"/>
       <use x="63.623047" xlink:href="#DejaVuSans-46"/>
       <use x="95.410156" xlink:href="#DejaVuSans-53"/>
       <use x="159.033203" xlink:href="#DejaVuSans-48"/>
      </g>
     </g>
    </g>
    <g id="xtick_4">
     <g id="line2d_4">
      <g>
       <use style="stroke:#000000;stroke-width:0.8;" x="218.964608" xlink:href="#m20de17e4dc" y="307.584"/>
      </g>
     </g>
     <g id="text_4">
      <!-- 0.75 -->
      <defs>
       <path d="M 8.203125 72.90625
L 55.078125 72.90625
L 55.078125 68.703125
L 28.609375 0
L 18.3125 0
L 43.21875 64.59375
L 8.203125 64.59375
z
" id="DejaVuSans-55"/>
      </defs>
      <g transform="translate(207.831795 322.182437)scale(0.1 -0.1)">
       <use xlink:href="#DejaVuSans-48"/>
       <use x="63.623047" xlink:href="#DejaVuSans-46"/>
       <use x="95.410156" xlink:href="#DejaVuSans-55"/>
       <use x="159.033203" xlink:href="#DejaVuSans-53"/>
      </g>
     </g>
    </g>
    <g id="xtick_5">
     <g id="line2d_5">
      <g>
       <use style="stroke:#000000;stroke-width:0.8;" x="267.341908" xlink:href="#m20de17e4dc" y="307.584"/>
      </g>
     </g>
     <g id="text_5">
      <!-- 1.00 -->
      <defs>
       <path d="M 12.40625 8.296875
L 28.515625 8.296875
L 28.515625 63.921875
L 10.984375 60.40625
L 10.984375 69.390625
L 28.421875 72.90625
L 38.28125 72.90625
L 38.28125 8.296875
L 54.390625 8.296875
L 54.390625 0
L 12.40625 0
z
" id="DejaVuSans-49"/>
      </defs>
      <g transform="translate(256.209096 322.182437)scale(0.1 -0.1)">
       <use xlink:href="#DejaVuSans-49"/>
       <use x="63.623047" xlink:href="#DejaVuSans-46"/>
       <use x="95.410156" xlink:href="#DejaVuSans-48"/>
       <use x="159.033203" xlink:href="#DejaVuSans-48"/>
      </g>
     </g>
    </g>
    <g id="xtick_6">
     <g id="line2d_6">
      <g>
       <use style="stroke:#000000;stroke-width:0.8;" x="315.719208" xlink:href="#m20de17e4dc" y="307.584"/>
      </g>
     </g>
     <g id="text_6">
      <!-- 1.25 -->
      <g transform="translate(304.586396 322.182437)scale(0.1 -0.1)">
       <use xlink:href="#DejaVuSans-49"/>
       <use x="63.623047" xlink:href="#DejaVuSans-46"/>
       <use x="95.410156" xlink:href="#DejaVuSans-50"/>
       <use x="159.033203" xlink:href="#DejaVuSans-53"/>
      </g>
     </g>
    </g>
    <g id="xtick_7">
     <g id="line2d_7">
      <g>
       <use style="stroke:#000000;stroke-width:0.8;" x="364.096508" xlink:href="#m20de17e4dc" y="307.584"/>
      </g>
     </g>
     <g id="text_7">
      <!-- 1.50 -->
      <g transform="translate(352.963696 322.182437)scale(0.1 -0.1)">
       <use xlink:href="#DejaVuSans-49"/>
       <use x="63.623047" xlink:href="#DejaVuSans-46"/>
       <use x="95.410156" xlink:href="#DejaVuSans-53"/>
       <use x="159.033203" xlink:href="#DejaVuSans-48"/>
      </g>
     </g>
    </g>
    <g id="xtick_8">
     <g id="line2d_8">
      <g>
       <use style="stroke:#000000;stroke-width:0.8;" x="412.473808" xlink:href="#m20de17e4dc" y="307.584"/>
      </g>
     </g>
     <g id="text_8">
      <!-- 1.75 -->
      <g transform="translate(401.340996 322.182437)scale(0.1 -0.1)">
       <use xlink:href="#DejaVuSans-49"/>
       <use x="63.623047" xlink:href="#DejaVuSans-46"/>
       <use x="95.410156" xlink:href="#DejaVuSans-55"/>
       <use x="159.033203" xlink:href="#DejaVuSans-53"/>
      </g>
     </g>
    </g>
    <g id="text_9">
     <!-- 1e7 -->
     <defs>
      <path d="M 56.203125 29.59375
L 56.203125 25.203125
L 14.890625 25.203125
Q 15.484375 15.921875 20.484375 11.0625
Q 25.484375 6.203125 34.421875 6.203125
Q 39.59375 6.203125 44.453125 7.46875
Q 49.3125 8.734375 54.109375 11.28125
L 54.109375 2.78125
Q 49.265625 0.734375 44.1875 -0.34375
Q 39.109375 -1.421875 33.890625 -1.421875
Q 20.796875 -1.421875 13.15625 6.1875
Q 5.515625 13.8125 5.515625 26.8125
Q 5.515625 40.234375 12.765625 48.109375
Q 20.015625 56 32.328125 56
Q 43.359375 56 49.78125 48.890625
Q 56.203125 41.796875 56.203125 29.59375
z
M 47.21875 32.234375
Q 47.125 39.59375 43.09375 43.984375
Q 39.0625 48.390625 32.421875 48.390625
Q 24.90625 48.390625 20.390625 44.140625
Q 15.875 39.890625 15.1875 32.171875
z
" id="DejaVuSans-101"/>
     </defs>
     <g transform="translate(395.841875 334.860562)scale(0.1 -0.1)">
      <use xlink:href="#DejaVuSans-49"/>
      <use x="63.623047" xlink:href="#DejaVuSans-101"/>
      <use x="125.146484" xlink:href="#DejaVuSans-55"/>
     </g>
    </g>
   </g>
   <g id="matplotlib.axis_2">
    <g id="ytick_1">
     <g id="line2d_9">
      <defs>
       <path d="M 0 0
L -3.5 0
" id="m48798b6a4e" style="stroke:#000000;stroke-width:0.8;"/>
      </defs>
      <g>
       <use style="stroke:#000000;stroke-width:0.8;" x="57.6" xlink:href="#m48798b6a4e" y="305.125887"/>
      </g>
     </g>
     <g id="text_10">
      <!-- −1.00 -->
      <defs>
       <path d="M 10.59375 35.5
L 73.1875 35.5
L 73.1875 27.203125
L 10.59375 27.203125
z
" id="DejaVuSans-8722"/>
      </defs>
      <g transform="translate(19.954687 308.925105)scale(0.1 -0.1)">
       <use xlink:href="#DejaVuSans-8722"/>
       <use x="83.789062" xlink:href="#DejaVuSans-49"/>
       <use x="147.412109" xlink:href="#DejaVuSans-46"/>
       <use x="179.199219" xlink:href="#DejaVuSans-48"/>
       <use x="242.822266" xlink:href="#DejaVuSans-48"/>
      </g>
     </g>
    </g>
    <g id="ytick_2">
     <g id="line2d_10">
      <g>
       <use style="stroke:#000000;stroke-width:0.8;" x="57.6" xlink:href="#m48798b6a4e" y="273.537561"/>
      </g>
     </g>
     <g id="text_11">
      <!-- −0.75 -->
      <g transform="translate(19.954687 277.336779)scale(0.1 -0.1)">
       <use xlink:href="#DejaVuSans-8722"/>
       <use x="83.789062" xlink:href="#DejaVuSans-48"/>
       <use x="147.412109" xlink:href="#DejaVuSans-46"/>
       <use x="179.199219" xlink:href="#DejaVuSans-55"/>
       <use x="242.822266" xlink:href="#DejaVuSans-53"/>
      </g>
     </g>
    </g>
    <g id="ytick_3">
     <g id="line2d_11">
      <g>
       <use style="stroke:#000000;stroke-width:0.8;" x="57.6" xlink:href="#m48798b6a4e" y="241.949235"/>
      </g>
     </g>
     <g id="text_12">
      <!-- −0.50 -->
      <g transform="translate(19.954687 245.748454)scale(0.1 -0.1)">
       <use xlink:href="#DejaVuSans-8722"/>
       <use x="83.789062" xlink:href="#DejaVuSans-48"/>
       <use x="147.412109" xlink:href="#DejaVuSans-46"/>
       <use x="179.199219" xlink:href="#DejaVuSans-53"/>
       <use x="242.822266" xlink:href="#DejaVuSans-48"/>
      </g>
     </g>
    </g>
    <g id="ytick_4">
     <g id="line2d_12">
      <g>
       <use style="stroke:#000000;stroke-width:0.8;" x="57.6" xlink:href="#m48798b6a4e" y="210.360909"/>
      </g>
     </g>
     <g id="text_13">
      <!-- −0.25 -->
      <g transform="translate(19.954687 214.160128)scale(0.1 -0.1)">
       <use xlink:href="#DejaVuSans-8722"/>
       <use x="83.789062" xlink:href="#DejaVuSans-48"/>
       <use x="147.412109" xlink:href="#DejaVuSans-46"/>
       <use x="179.199219" xlink:href="#DejaVuSans-50"/>
       <use x="242.822266" xlink:href="#DejaVuSans-53"/>
      </g>
     </g>
    </g>
    <g id="ytick_5">
     <g id="line2d_13">
      <g>
       <use style="stroke:#000000;stroke-width:0.8;" x="57.6" xlink:href="#m48798b6a4e" y="178.772583"/>
      </g>
     </g>
     <g id="text_14">
      <!-- 0.00 -->
      <g transform="translate(28.334375 182.571802)scale(0.1 -0.1)">
       <use xlink:href="#DejaVuSans-48"/>
       <use x="63.623047" xlink:href="#DejaVuSans-46"/>
       <use x="95.410156" xlink:href="#DejaVuSans-48"/>
       <use x="159.033203" xlink:href="#DejaVuSans-48"/>
      </g>
     </g>
    </g>
    <g id="ytick_6">
     <g id="line2d_14">
      <g>
       <use style="stroke:#000000;stroke-width:0.8;" x="57.6" xlink:href="#m48798b6a4e" y="147.184258"/>
      </g>
     </g>
     <g id="text_15">
      <!-- 0.25 -->
      <g transform="translate(28.334375 150.983476)scale(0.1 -0.1)">
       <use xlink:href="#DejaVuSans-48"/>
       <use x="63.623047" xlink:href="#DejaVuSans-46"/>
       <use x="95.410156" xlink:href="#DejaVuSans-50"/>
       <use x="159.033203" xlink:href="#DejaVuSans-53"/>
      </g>
     </g>
    </g>
    <g id="ytick_7">
     <g id="line2d_15">
      <g>
       <use style="stroke:#000000;stroke-width:0.8;" x="57.6" xlink:href="#m48798b6a4e" y="115.595932"/>
      </g>
     </g>
     <g id="text_16">
      <!-- 0.50 -->
      <g transform="translate(28.334375 119.395151)scale(0.1 -0.1)">
       <use xlink:href="#DejaVuSans-48"/>
       <use x="63.623047" xlink:href="#DejaVuSans-46"/>
       <use x="95.410156" xlink:href="#DejaVuSans-53"/>
       <use x="159.033203" xlink:href="#DejaVuSans-48"/>
      </g>
     </g>
    </g>
    <g id="ytick_8">
     <g id="line2d_16">
      <g>
       <use style="stroke:#000000;stroke-width:0.8;" x="57.6" xlink:href="#m48798b6a4e" y="84.007606"/>
      </g>
     </g>
     <g id="text_17">
      <!-- 0.75 -->
      <g transform="translate(28.334375 87.806825)scale(0.1 -0.1)">
       <use xlink:href="#DejaVuSans-48"/>
       <use x="63.623047" xlink:href="#DejaVuSans-46"/>
       <use x="95.410156" xlink:href="#DejaVuSans-55"/>
       <use x="159.033203" xlink:href="#DejaVuSans-53"/>
      </g>
     </g>
    </g>
    <g id="ytick_9">
     <g id="line2d_17">
      <g>
       <use style="stroke:#000000;stroke-width:0.8;" x="57.6" xlink:href="#m48798b6a4e" y="52.41928"/>
      </g>
     </g>
     <g id="text_18">
      <!-- 1.00 -->
      <g transform="translate(28.334375 56.218499)scale(0.1 -0.1)">
       <use xlink:href="#DejaVuSans-49"/>
       <use x="63.623047" xlink:href="#DejaVuSans-46"/>
       <use x="95.410156" xlink:href="#DejaVuSans-48"/>
       <use x="159.033203" xlink:href="#DejaVuSans-48"/>
      </g>
     </g>
    </g>
    <g id="text_19">
     <!-- 1e7 -->
     <g transform="translate(57.6 38.472)scale(0.1 -0.1)">
      <use xlink:href="#DejaVuSans-49"/>
      <use x="63.623047" xlink:href="#DejaVuSans-101"/>
      <use x="125.146484" xlink:href="#DejaVuSans-55"/>
     </g>
    </g>
   </g>
   <g id="LineCollection_1">
    <path clip-path="url(#p27db4bd935)" d="M 73.832727 178.771922
L 73.832727 178.771764
" style="fill:none;stroke:#1f77b4;stroke-width:0.5;"/>
    <path clip-path="url(#p27db4bd935)" d="M 73.911969 178.771933
L 73.911969 178.77163
" style="fill:none;stroke:#1f77b4;stroke-width:0.5;"/>
    <path clip-path="url(#p27db4bd935)" d="M 75.10089 178.773354
L 75.10089 178.772767
" style="fill:none;stroke:#1f77b4;stroke-width:0.5;"/>
    <path clip-path="url(#p27db4bd935)" d="M 84.11658 178.783495
L 84.11658 178.751991
" style="fill:none;stroke:#1f77b4;stroke-width:0.5;"/>
    <path clip-path="url(#p27db4bd935)" d="M 94.123618 178.83709
L 94.123618 178.742723
" style="fill:none;stroke:#1f77b4;stroke-width:0.5;"/>
    <path clip-path="url(#p27db4bd935)" d="M 154.996349 177.619501
L 154.996349 177.42387
" style="fill:none;stroke:#1f77b4;stroke-width:0.5;"/>
    <path clip-path="url(#p27db4bd935)" d="M 256.450901 177.856619
L 256.450901 177.027547
" style="fill:none;stroke:#1f77b4;stroke-width:0.5;"/>
    <path clip-path="url(#p27db4bd935)" d="M 398.487273 180.65479
L 398.487273 176.584602
" style="fill:none;stroke:#1f77b4;stroke-width:0.5;"/>
   </g>
   <g id="LineCollection_2">
    <path clip-path="url(#p27db4bd935)" d="M 73.832727 178.772291
L 73.832727 178.772205
" style="fill:none;stroke:#ff7f0e;stroke-width:0.5;"/>
    <path clip-path="url(#p27db4bd935)" d="M 73.911969 178.772581
L 73.911969 178.77202
" style="fill:none;stroke:#ff7f0e;stroke-width:0.5;"/>
    <path clip-path="url(#p27db4bd935)" d="M 75.972765 178.772838
L 75.972765 178.770342
" style="fill:none;stroke:#ff7f0e;stroke-width:0.5;"/>
    <path clip-path="url(#p27db4bd935)" d="M 84.11658 178.776654
L 84.11658 178.765303
" style="fill:none;stroke:#ff7f0e;stroke-width:0.5;"/>
    <path clip-path="url(#p27db4bd935)" d="M 114.414529 178.655565
L 114.414529 178.441982
" style="fill:none;stroke:#ff7f0e;stroke-width:0.5;"/>
    <path clip-path="url(#p27db4bd935)" d="M 186.687273 178.429078
L 186.687273 171.764854
" style="fill:none;stroke:#ff7f0e;stroke-width:0.5;"/>
    <path clip-path="url(#p27db4bd935)" d="M 268.845397 181.33856
L 268.845397 178.215625
" style="fill:none;stroke:#ff7f0e;stroke-width:0.5;"/>
    <path clip-path="url(#p27db4bd935)" d="M 398.487273 188.30241
L 398.487273 180.960762
" style="fill:none;stroke:#ff7f0e;stroke-width:0.5;"/>
   </g>
   <g id="LineCollection_3">
    <path clip-path="url(#p27db4bd935)" d="M 73.832727 178.772253
L 73.832727 178.772159
" style="fill:none;stroke:#2ca02c;stroke-width:0.5;"/>
    <path clip-path="url(#p27db4bd935)" d="M 73.911969 178.772257
L 73.911969 178.771979
" style="fill:none;stroke:#2ca02c;stroke-width:0.5;"/>
    <path clip-path="url(#p27db4bd935)" d="M 75.10089 178.772617
L 75.10089 178.768587
" style="fill:none;stroke:#2ca02c;stroke-width:0.5;"/>
    <path clip-path="url(#p27db4bd935)" d="M 84.11658 178.842946
L 84.11658 178.805098
" style="fill:none;stroke:#2ca02c;stroke-width:0.5;"/>
    <path clip-path="url(#p27db4bd935)" d="M 106.334823 179.209618
L 106.334823 178.411942
" style="fill:none;stroke:#2ca02c;stroke-width:0.5;"/>
    <path clip-path="url(#p27db4bd935)" d="M 153.183574 209.418372
L 153.183574 174.471459
" style="fill:none;stroke:#2ca02c;stroke-width:0.5;"/>
    <path clip-path="url(#p27db4bd935)" d="M 238.374664 183.634341
L 238.374664 153.110545
" style="fill:none;stroke:#2ca02c;stroke-width:0.5;"/>
    <path clip-path="url(#p27db4bd935)" d="M 398.487273 182.14925
L 398.487273 153.258818
" style="fill:none;stroke:#2ca02c;stroke-width:0.5;"/>
   </g>
   <g id="LineCollection_4">
    <path clip-path="url(#p27db4bd935)" d="M 73.832727 178.772521
L 73.832727 178.772382
" style="fill:none;stroke:#d62728;stroke-width:0.5;"/>
    <path clip-path="url(#p27db4bd935)" d="M 73.911969 178.77187
L 73.911969 178.771646
" style="fill:none;stroke:#d62728;stroke-width:0.5;"/>
    <path clip-path="url(#p27db4bd935)" d="M 75.10089 178.769699
L 75.10089 178.764508
" style="fill:none;stroke:#d62728;stroke-width:0.5;"/>
    <path clip-path="url(#p27db4bd935)" d="M 84.11658 178.787083
L 84.11658 178.759024
" style="fill:none;stroke:#d62728;stroke-width:0.5;"/>
    <path clip-path="url(#p27db4bd935)" d="M 94.123618 178.280048
L 94.123618 177.750067
" style="fill:none;stroke:#d62728;stroke-width:0.5;"/>
    <path clip-path="url(#p27db4bd935)" d="M 154.996349 186.516893
L 154.996349 182.298989
" style="fill:none;stroke:#d62728;stroke-width:0.5;"/>
    <path clip-path="url(#p27db4bd935)" d="M 256.450901 182.48306
L 256.450901 138.386797
" style="fill:none;stroke:#d62728;stroke-width:0.5;"/>
    <path clip-path="url(#p27db4bd935)" d="M 398.487273 262.557865
L 398.487273 220.099816
" style="fill:none;stroke:#d62728;stroke-width:0.5;"/>
   </g>
   <g id="LineCollection_5">
    <path clip-path="url(#p27db4bd935)" d="M 73.832727 178.774041
L 73.832727 178.773414
" style="fill:none;stroke:#9467bd;stroke-width:0.5;"/>
    <path clip-path="url(#p27db4bd935)" d="M 73.911969 178.772367
L 73.911969 178.772089
" style="fill:none;stroke:#9467bd;stroke-width:0.5;"/>
    <path clip-path="url(#p27db4bd935)" d="M 75.972765 178.846835
L 75.972765 178.817617
" style="fill:none;stroke:#9467bd;stroke-width:0.5;"/>
    <path clip-path="url(#p27db4bd935)" d="M 84.11658 179.359051
L 84.11658 179.071297
" style="fill:none;stroke:#9467bd;stroke-width:0.5;"/>
    <path clip-path="url(#p27db4bd935)" d="M 114.414529 178.455281
L 114.414529 176.284312
" style="fill:none;stroke:#9467bd;stroke-width:0.5;"/>
    <path clip-path="url(#p27db4bd935)" d="M 186.687273 95.941507
L 186.687273 53.568
" style="fill:none;stroke:#9467bd;stroke-width:0.5;"/>
    <path clip-path="url(#p27db4bd935)" d="M 268.845397 232.623908
L 268.845397 177.218891
" style="fill:none;stroke:#9467bd;stroke-width:0.5;"/>
    <path clip-path="url(#p27db4bd935)" d="M 398.487273 238.054055
L 398.487273 146.363932
" style="fill:none;stroke:#9467bd;stroke-width:0.5;"/>
   </g>
   <g id="LineCollection_6">
    <path clip-path="url(#p27db4bd935)" d="M 73.832727 178.771931
L 73.832727 178.770672
" style="fill:none;stroke:#8c564b;stroke-width:0.5;"/>
    <path clip-path="url(#p27db4bd935)" d="M 73.911969 178.77106
L 73.911969 178.766808
" style="fill:none;stroke:#8c564b;stroke-width:0.5;"/>
    <path clip-path="url(#p27db4bd935)" d="M 75.10089 178.769163
L 75.10089 178.7637
" style="fill:none;stroke:#8c564b;stroke-width:0.5;"/>
    <path clip-path="url(#p27db4bd935)" d="M 84.11658 179.513956
L 84.11658 179.034658
" style="fill:none;stroke:#8c564b;stroke-width:0.5;"/>
    <path clip-path="url(#p27db4bd935)" d="M 106.334823 190.721194
L 106.334823 188.790368
" style="fill:none;stroke:#8c564b;stroke-width:0.5;"/>
    <path clip-path="url(#p27db4bd935)" d="M 153.183574 295.488
L 153.183574 261.093944
" style="fill:none;stroke:#8c564b;stroke-width:0.5;"/>
    <path clip-path="url(#p27db4bd935)" d="M 238.374664 120.707062
L 238.374664 75.204432
" style="fill:none;stroke:#8c564b;stroke-width:0.5;"/>
    <path clip-path="url(#p27db4bd935)" d="M 398.487273 170.62286
L 398.487273 118.385748
" style="fill:none;stroke:#8c564b;stroke-width:0.5;"/>
   </g>
   <g id="line2d_18">
    <path clip-path="url(#p27db4bd935)" d="M 73.832727 178.577151
L 73.911969 178.577003
L 75.10089 178.574781
L 84.11658 178.557931
L 94.123618 178.539229
L 154.996349 178.425462
L 256.450901 178.23585
L 398.487273 177.970394
" style="fill:none;stroke:#1f77b4;stroke-dasharray:0.5,0.825;stroke-dashoffset:0;stroke-width:0.5;"/>
   </g>
   <g id="line2d_19">
    <path clip-path="url(#p27db4bd935)" d="M 73.832727 177.915184
L 73.911969 177.916319
L 75.972765 177.945836
L 84.11658 178.062481
L 114.414529 178.496444
L 186.687273 179.531619
L 268.845397 180.708384
L 398.487273 182.565267
" style="fill:none;stroke:#ff7f0e;stroke-dasharray:0.5,0.825;stroke-dashoffset:0;stroke-width:0.5;"/>
   </g>
   <g id="line2d_20">
    <path clip-path="url(#p27db4bd935)" d="M 73.832727 180.734431
L 73.911969 180.731339
L 75.10089 180.684952
L 84.11658 180.333197
L 106.334823 179.46633
L 153.183574 177.638481
L 238.374664 174.314669
L 398.487273 168.067721
" style="fill:none;stroke:#2ca02c;stroke-dasharray:0.5,0.825;stroke-dashoffset:0;stroke-width:0.5;"/>
   </g>
   <g id="line2d_21">
    <path clip-path="url(#p27db4bd935)" d="M 73.832727 174.123583
L 73.911969 174.134604
L 75.10089 174.299965
L 84.11658 175.553911
L 94.123618 176.945738
L 154.996349 185.412213
L 256.450901 199.523005
L 398.487273 219.278114
" style="fill:none;stroke:#d62728;stroke-dasharray:0.5,0.825;stroke-dashoffset:0;stroke-width:0.5;"/>
   </g>
   <g id="line2d_22">
    <path clip-path="url(#p27db4bd935)" d="M 73.832727 167.780552
L 73.911969 167.783165
L 75.972765 167.851108
L 84.11658 168.119602
L 114.414529 169.1185
L 186.687273 171.501272
L 268.845397 174.209957
L 398.487273 178.484142
" style="fill:none;stroke:#9467bd;stroke-dasharray:0.5,0.825;stroke-dashoffset:0;stroke-width:0.5;"/>
   </g>
   <g id="line2d_23">
    <path clip-path="url(#p27db4bd935)" d="M 73.832727 191.312133
L 73.911969 191.298629
L 75.10089 191.096021
L 84.11658 189.559622
L 106.334823 185.773325
L 153.183574 177.789648
L 238.374664 163.271905
L 398.487273 135.986496
" style="fill:none;stroke:#8c564b;stroke-dasharray:0.5,0.825;stroke-dashoffset:0;stroke-width:0.5;"/>
   </g>
   <g id="line2d_24">
    <path clip-path="url(#p27db4bd935)" d="M 73.832727 178.771843
L 73.911969 178.771781
L 75.10089 178.773061
L 84.11658 178.767743
L 94.123618 178.789906
L 154.996349 177.521686
L 256.450901 177.442083
L 398.487273 178.619696
" style="fill:none;stroke:#1f77b4;stroke-linecap:square;stroke-width:0.5;"/>
    <defs>
     <path d="M 0 3
C 0.795609 3 1.55874 2.683901 2.12132 2.12132
C 2.683901 1.55874 3 0.795609 3 0
C 3 -0.795609 2.683901 -1.55874 2.12132 -2.12132
C 1.55874 -2.683901 0.795609 -3 0 -3
C -0.795609 -3 -1.55874 -2.683901 -2.12132 -2.12132
C -2.683901 -1.55874 -3 -0.795609 -3 0
C -3 0.795609 -2.683901 1.55874 -2.12132 2.12132
C -1.55874 2.683901 -0.795609 3 0 3
z
" id="m0689f76592" style="stroke:#1f77b4;"/>
    </defs>
    <g clip-path="url(#p27db4bd935)">
     <use style="fill:#1f77b4;stroke:#1f77b4;" x="73.832727" xlink:href="#m0689f76592" y="178.771843"/>
     <use style="fill:#1f77b4;stroke:#1f77b4;" x="73.911969" xlink:href="#m0689f76592" y="178.771781"/>
     <use style="fill:#1f77b4;stroke:#1f77b4;" x="75.10089" xlink:href="#m0689f76592" y="178.773061"/>
     <use style="fill:#1f77b4;stroke:#1f77b4;" x="84.11658" xlink:href="#m0689f76592" y="178.767743"/>
     <use style="fill:#1f77b4;stroke:#1f77b4;" x="94.123618" xlink:href="#m0689f76592" y="178.789906"/>
     <use style="fill:#1f77b4;stroke:#1f77b4;" x="154.996349" xlink:href="#m0689f76592" y="177.521686"/>
     <use style="fill:#1f77b4;stroke:#1f77b4;" x="256.450901" xlink:href="#m0689f76592" y="177.442083"/>
     <use style="fill:#1f77b4;stroke:#1f77b4;" x="398.487273" xlink:href="#m0689f76592" y="178.619696"/>
    </g>
   </g>
   <g id="line2d_25">
    <path clip-path="url(#p27db4bd935)" d="M 73.832727 178.772248
L 73.911969 178.772301
L 75.972765 178.77159
L 84.11658 178.770979
L 114.414529 178.548774
L 186.687273 175.096966
L 268.845397 179.777092
L 398.487273 184.631586
" style="fill:none;stroke:#ff7f0e;stroke-linecap:square;stroke-width:0.5;"/>
    <defs>
     <path d="M 0 3
C 0.795609 3 1.55874 2.683901 2.12132 2.12132
C 2.683901 1.55874 3 0.795609 3 0
C 3 -0.795609 2.683901 -1.55874 2.12132 -2.12132
C 1.55874 -2.683901 0.795609 -3 0 -3
C -0.795609 -3 -1.55874 -2.683901 -2.12132 -2.12132
C -2.683901 -1.55874 -3 -0.795609 -3 0
C -3 0.795609 -2.683901 1.55874 -2.12132 2.12132
C -1.55874 2.683901 -0.795609 3 0 3
z
" id="m9c08b86599" style="stroke:#ff7f0e;"/>
    </defs>
    <g clip-path="url(#p27db4bd935)">
     <use style="fill:#ff7f0e;stroke:#ff7f0e;" x="73.832727" xlink:href="#m9c08b86599" y="178.772248"/>
     <use style="fill:#ff7f0e;stroke:#ff7f0e;" x="73.911969" xlink:href="#m9c08b86599" y="178.772301"/>
     <use style="fill:#ff7f0e;stroke:#ff7f0e;" x="75.972765" xlink:href="#m9c08b86599" y="178.77159"/>
     <use style="fill:#ff7f0e;stroke:#ff7f0e;" x="84.11658" xlink:href="#m9c08b86599" y="178.770979"/>
     <use style="fill:#ff7f0e;stroke:#ff7f0e;" x="114.414529" xlink:href="#m9c08b86599" y="178.548774"/>
     <use style="fill:#ff7f0e;stroke:#ff7f0e;" x="186.687273" xlink:href="#m9c08b86599" y="175.096966"/>
     <use style="fill:#ff7f0e;stroke:#ff7f0e;" x="268.845397" xlink:href="#m9c08b86599" y="179.777092"/>
     <use style="fill:#ff7f0e;stroke:#ff7f0e;" x="398.487273" xlink:href="#m9c08b86599" y="184.631586"/>
    </g>
   </g>
   <g id="line2d_26">
    <path clip-path="url(#p27db4bd935)" d="M 73.832727 178.772206
L 73.911969 178.772118
L 75.10089 178.770602
L 84.11658 178.824022
L 106.334823 178.81078
L 153.183574 191.944915
L 238.374664 168.372443
L 398.487273 167.704034
" style="fill:none;stroke:#2ca02c;stroke-linecap:square;stroke-width:0.5;"/>
    <defs>
     <path d="M 0 3
C 0.795609 3 1.55874 2.683901 2.12132 2.12132
C 2.683901 1.55874 3 0.795609 3 0
C 3 -0.795609 2.683901 -1.55874 2.12132 -2.12132
C 1.55874 -2.683901 0.795609 -3 0 -3
C -0.795609 -3 -1.55874 -2.683901 -2.12132 -2.12132
C -2.683901 -1.55874 -3 -0.795609 -3 0
C -3 0.795609 -2.683901 1.55874 -2.12132 2.12132
C -1.55874 2.683901 -0.795609 3 0 3
z
" id="m79e7355fc3" style="stroke:#2ca02c;"/>
    </defs>
    <g clip-path="url(#p27db4bd935)">
     <use style="fill:#2ca02c;stroke:#2ca02c;" x="73.832727" xlink:href="#m79e7355fc3" y="178.772206"/>
     <use style="fill:#2ca02c;stroke:#2ca02c;" x="73.911969" xlink:href="#m79e7355fc3" y="178.772118"/>
     <use style="fill:#2ca02c;stroke:#2ca02c;" x="75.10089" xlink:href="#m79e7355fc3" y="178.770602"/>
     <use style="fill:#2ca02c;stroke:#2ca02c;" x="84.11658" xlink:href="#m79e7355fc3" y="178.824022"/>
     <use style="fill:#2ca02c;stroke:#2ca02c;" x="106.334823" xlink:href="#m79e7355fc3" y="178.81078"/>
     <use style="fill:#2ca02c;stroke:#2ca02c;" x="153.183574" xlink:href="#m79e7355fc3" y="191.944915"/>
     <use style="fill:#2ca02c;stroke:#2ca02c;" x="238.374664" xlink:href="#m79e7355fc3" y="168.372443"/>
     <use style="fill:#2ca02c;stroke:#2ca02c;" x="398.487273" xlink:href="#m79e7355fc3" y="167.704034"/>
    </g>
   </g>
   <g id="line2d_27">
    <path clip-path="url(#p27db4bd935)" d="M 73.832727 178.772452
L 73.911969 178.771758
L 75.10089 178.767103
L 84.11658 178.773053
L 94.123618 178.015057
L 154.996349 184.407941
L 256.450901 160.434929
L 398.487273 241.32884
" style="fill:none;stroke:#d62728;stroke-linecap:square;stroke-width:0.5;"/>
    <defs>
     <path d="M 0 3
C 0.795609 3 1.55874 2.683901 2.12132 2.12132
C 2.683901 1.55874 3 0.795609 3 0
C 3 -0.795609 2.683901 -1.55874 2.12132 -2.12132
C 1.55874 -2.683901 0.795609 -3 0 -3
C -0.795609 -3 -1.55874 -2.683901 -2.12132 -2.12132
C -2.683901 -1.55874 -3 -0.795609 -3 0
C -3 0.795609 -2.683901 1.55874 -2.12132 2.12132
C -1.55874 2.683901 -0.795609 3 0 3
z
" id="mf48ae940bb" style="stroke:#d62728;"/>
    </defs>
    <g clip-path="url(#p27db4bd935)">
     <use style="fill:#d62728;stroke:#d62728;" x="73.832727" xlink:href="#mf48ae940bb" y="178.772452"/>
     <use style="fill:#d62728;stroke:#d62728;" x="73.911969" xlink:href="#mf48ae940bb" y="178.771758"/>
     <use style="fill:#d62728;stroke:#d62728;" x="75.10089" xlink:href="#mf48ae940bb" y="178.767103"/>
     <use style="fill:#d62728;stroke:#d62728;" x="84.11658" xlink:href="#mf48ae940bb" y="178.773053"/>
     <use style="fill:#d62728;stroke:#d62728;" x="94.123618" xlink:href="#mf48ae940bb" y="178.015057"/>
     <use style="fill:#d62728;stroke:#d62728;" x="154.996349" xlink:href="#mf48ae940bb" y="184.407941"/>
     <use style="fill:#d62728;stroke:#d62728;" x="256.450901" xlink:href="#mf48ae940bb" y="160.434929"/>
     <use style="fill:#d62728;stroke:#d62728;" x="398.487273" xlink:href="#mf48ae940bb" y="241.32884"/>
    </g>
   </g>
   <g id="line2d_28">
    <path clip-path="url(#p27db4bd935)" d="M 73.832727 178.773728
L 73.911969 178.772228
L 75.972765 178.832226
L 84.11658 179.215174
L 114.414529 177.369796
L 186.687273 74.754754
L 268.845397 204.921399
L 398.487273 192.208994
" style="fill:none;stroke:#9467bd;stroke-linecap:square;stroke-width:0.5;"/>
    <defs>
     <path d="M 0 3
C 0.795609 3 1.55874 2.683901 2.12132 2.12132
C 2.683901 1.55874 3 0.795609 3 0
C 3 -0.795609 2.683901 -1.55874 2.12132 -2.12132
C 1.55874 -2.683901 0.795609 -3 0 -3
C -0.795609 -3 -1.55874 -2.683901 -2.12132 -2.12132
C -2.683901 -1.55874 -3 -0.795609 -3 0
C -3 0.795609 -2.683901 1.55874 -2.12132 2.12132
C -1.55874 2.683901 -0.795609 3 0 3
z
" id="m16b83ec609" style="stroke:#9467bd;"/>
    </defs>
    <g clip-path="url(#p27db4bd935)">
     <use style="fill:#9467bd;stroke:#9467bd;" x="73.832727" xlink:href="#m16b83ec609" y="178.773728"/>
     <use style="fill:#9467bd;stroke:#9467bd;" x="73.911969" xlink:href="#m16b83ec609" y="178.772228"/>
     <use style="fill:#9467bd;stroke:#9467bd;" x="75.972765" xlink:href="#m16b83ec609" y="178.832226"/>
     <use style="fill:#9467bd;stroke:#9467bd;" x="84.11658" xlink:href="#m16b83ec609" y="179.215174"/>
     <use style="fill:#9467bd;stroke:#9467bd;" x="114.414529" xlink:href="#m16b83ec609" y="177.369796"/>
     <use style="fill:#9467bd;stroke:#9467bd;" x="186.687273" xlink:href="#m16b83ec609" y="74.754754"/>
     <use style="fill:#9467bd;stroke:#9467bd;" x="268.845397" xlink:href="#m16b83ec609" y="204.921399"/>
     <use style="fill:#9467bd;stroke:#9467bd;" x="398.487273" xlink:href="#m16b83ec609" y="192.208994"/>
    </g>
   </g>
   <g id="line2d_29">
    <path clip-path="url(#p27db4bd935)" d="M 73.832727 178.771302
L 73.911969 178.768934
L 75.10089 178.766431
L 84.11658 179.274307
L 106.334823 189.755781
L 153.183574 278.290972
L 238.374664 97.955747
L 398.487273 144.504304
" style="fill:none;stroke:#8c564b;stroke-linecap:square;stroke-width:0.5;"/>
    <defs>
     <path d="M 0 3
C 0.795609 3 1.55874 2.683901 2.12132 2.12132
C 2.683901 1.55874 3 0.795609 3 0
C 3 -0.795609 2.683901 -1.55874 2.12132 -2.12132
C 1.55874 -2.683901 0.795609 -3 0 -3
C -0.795609 -3 -1.55874 -2.683901 -2.12132 -2.12132
C -2.683901 -1.55874 -3 -0.795609 -3 0
C -3 0.795609 -2.683901 1.55874 -2.12132 2.12132
C -1.55874 2.683901 -0.795609 3 0 3
z
" id="m176ec89a10" style="stroke:#8c564b;"/>
    </defs>
    <g clip-path="url(#p27db4bd935)">
     <use style="fill:#8c564b;stroke:#8c564b;" x="73.832727" xlink:href="#m176ec89a10" y="178.771302"/>
     <use style="fill:#8c564b;stroke:#8c564b;" x="73.911969" xlink:href="#m176ec89a10" y="178.768934"/>
     <use style="fill:#8c564b;stroke:#8c564b;" x="75.10089" xlink:href="#m176ec89a10" y="178.766431"/>
     <use style="fill:#8c564b;stroke:#8c564b;" x="84.11658" xlink:href="#m176ec89a10" y="179.274307"/>
     <use style="fill:#8c564b;stroke:#8c564b;" x="106.334823" xlink:href="#m176ec89a10" y="189.755781"/>
     <use style="fill:#8c564b;stroke:#8c564b;" x="153.183574" xlink:href="#m176ec89a10" y="278.290972"/>
     <use style="fill:#8c564b;stroke:#8c564b;" x="238.374664" xlink:href="#m176ec89a10" y="97.955747"/>
     <use style="fill:#8c564b;stroke:#8c564b;" x="398.487273" xlink:href="#m176ec89a10" y="144.504304"/>
    </g>
   </g>
   <g id="patch_3">
    <path d="M 57.6 307.584
L 57.6 41.472
" style="fill:none;stroke:#000000;stroke-linecap:square;stroke-linejoin:miter;stroke-width:0.8;"/>
   </g>
   <g id="patch_4">
    <path d="M 414.72 307.584
L 414.72 41.472
" style="fill:none;stroke:#000000;stroke-linecap:square;stroke-linejoin:miter;stroke-width:0.8;"/>
   </g>
   <g id="patch_5">
    <path d="M 57.6 307.584
L 414.72 307.584
" style="fill:none;stroke:#000000;stroke-linecap:square;stroke-linejoin:miter;stroke-width:0.8;"/>
   </g>
   <g id="patch_6">
    <path d="M 57.6 41.472
L 414.72 41.472
" style="fill:none;stroke:#000000;stroke-linecap:square;stroke-linejoin:miter;stroke-width:0.8;"/>
   </g>
   <g id="text_20">
    <!-- SizeTensor -->
    <defs>
     <path d="M 53.515625 70.515625
L 53.515625 60.890625
Q 47.90625 63.578125 42.921875 64.890625
Q 37.9375 66.21875 33.296875 66.21875
Q 25.25 66.21875 20.875 63.09375
Q 16.5 59.96875 16.5 54.203125
Q 16.5 49.359375 19.40625 46.890625
Q 22.3125 44.4375 30.421875 42.921875
L 36.375 41.703125
Q 47.40625 39.59375 52.65625 34.296875
Q 57.90625 29 57.90625 20.125
Q 57.90625 9.515625 50.796875 4.046875
Q 43.703125 -1.421875 29.984375 -1.421875
Q 24.8125 -1.421875 18.96875 -0.25
Q 13.140625 0.921875 6.890625 3.21875
L 6.890625 13.375
Q 12.890625 10.015625 18.65625 8.296875
Q 24.421875 6.59375 29.984375 6.59375
Q 38.421875 6.59375 43.015625 9.90625
Q 47.609375 13.234375 47.609375 19.390625
Q 47.609375 24.75 44.3125 27.78125
Q 41.015625 30.8125 33.5 32.328125
L 27.484375 33.5
Q 16.453125 35.6875 11.515625 40.375
Q 6.59375 45.0625 6.59375 53.421875
Q 6.59375 63.09375 13.40625 68.65625
Q 20.21875 74.21875 32.171875 74.21875
Q 37.3125 74.21875 42.625 73.28125
Q 47.953125 72.359375 53.515625 70.515625
z
" id="DejaVuSans-83"/>
     <path d="M 9.421875 54.6875
L 18.40625 54.6875
L 18.40625 0
L 9.421875 0
z
M 9.421875 75.984375
L 18.40625 75.984375
L 18.40625 64.59375
L 9.421875 64.59375
z
" id="DejaVuSans-105"/>
     <path d="M 5.515625 54.6875
L 48.1875 54.6875
L 48.1875 46.484375
L 14.40625 7.171875
L 48.1875 7.171875
L 48.1875 0
L 4.296875 0
L 4.296875 8.203125
L 38.09375 47.515625
L 5.515625 47.515625
z
" id="DejaVuSans-122"/>
     <path d="M -0.296875 72.90625
L 61.375 72.90625
L 61.375 64.59375
L 35.5 64.59375
L 35.5 0
L 25.59375 0
L 25.59375 64.59375
L -0.296875 64.59375
z
" id="DejaVuSans-84"/>
     <path d="M 54.890625 33.015625
L 54.890625 0
L 45.90625 0
L 45.90625 32.71875
Q 45.90625 40.484375 42.875 44.328125
Q 39.84375 48.1875 33.796875 48.1875
Q 26.515625 48.1875 22.3125 43.546875
Q 18.109375 38.921875 18.109375 30.90625
L 18.109375 0
L 9.078125 0
L 9.078125 54.6875
L 18.109375 54.6875
L 18.109375 46.1875
Q 21.34375 51.125 25.703125 53.5625
Q 30.078125 56 35.796875 56
Q 45.21875 56 50.046875 50.171875
Q 54.890625 44.34375 54.890625 33.015625
z
" id="DejaVuSans-110"/>
     <path d="M 44.28125 53.078125
L 44.28125 44.578125
Q 40.484375 46.53125 36.375 47.5
Q 32.28125 48.484375 27.875 48.484375
Q 21.1875 48.484375 17.84375 46.4375
Q 14.5 44.390625 14.5 40.28125
Q 14.5 37.15625 16.890625 35.375
Q 19.28125 33.59375 26.515625 31.984375
L 29.59375 31.296875
Q 39.15625 29.25 43.1875 25.515625
Q 47.21875 21.78125 47.21875 15.09375
Q 47.21875 7.46875 41.1875 3.015625
Q 35.15625 -1.421875 24.609375 -1.421875
Q 20.21875 -1.421875 15.453125 -0.5625
Q 10.6875 0.296875 5.421875 2
L 5.421875 11.28125
Q 10.40625 8.6875 15.234375 7.390625
Q 20.0625 6.109375 24.8125 6.109375
Q 31.15625 6.109375 34.5625 8.28125
Q 37.984375 10.453125 37.984375 14.40625
Q 37.984375 18.0625 35.515625 20.015625
Q 33.0625 21.96875 24.703125 23.78125
L 21.578125 24.515625
Q 13.234375 26.265625 9.515625 29.90625
Q 5.8125 33.546875 5.8125 39.890625
Q 5.8125 47.609375 11.28125 51.796875
Q 16.75 56 26.8125 56
Q 31.78125 56 36.171875 55.265625
Q 40.578125 54.546875 44.28125 53.078125
z
" id="DejaVuSans-115"/>
     <path d="M 30.609375 48.390625
Q 23.390625 48.390625 19.1875 42.75
Q 14.984375 37.109375 14.984375 27.296875
Q 14.984375 17.484375 19.15625 11.84375
Q 23.34375 6.203125 30.609375 6.203125
Q 37.796875 6.203125 41.984375 11.859375
Q 46.1875 17.53125 46.1875 27.296875
Q 46.1875 37.015625 41.984375 42.703125
Q 37.796875 48.390625 30.609375 48.390625
z
M 30.609375 56
Q 42.328125 56 49.015625 48.375
Q 55.71875 40.765625 55.71875 27.296875
Q 55.71875 13.875 49.015625 6.21875
Q 42.328125 -1.421875 30.609375 -1.421875
Q 18.84375 -1.421875 12.171875 6.21875
Q 5.515625 13.875 5.515625 27.296875
Q 5.515625 40.765625 12.171875 48.375
Q 18.84375 56 30.609375 56
z
" id="DejaVuSans-111"/>
     <path d="M 41.109375 46.296875
Q 39.59375 47.171875 37.8125 47.578125
Q 36.03125 48 33.890625 48
Q 26.265625 48 22.1875 43.046875
Q 18.109375 38.09375 18.109375 28.8125
L 18.109375 0
L 9.078125 0
L 9.078125 54.6875
L 18.109375 54.6875
L 18.109375 46.1875
Q 20.953125 51.171875 25.484375 53.578125
Q 30.03125 56 36.53125 56
Q 37.453125 56 38.578125 55.875
Q 39.703125 55.765625 41.0625 55.515625
z
" id="DejaVuSans-114"/>
    </defs>
    <g transform="translate(203.436563 35.472)scale(0.12 -0.12)">
     <use xlink:href="#DejaVuSans-83"/>
     <use x="63.476562" xlink:href="#DejaVuSans-105"/>
     <use x="91.259766" xlink:href="#DejaVuSans-122"/>
     <use x="143.75" xlink:href="#DejaVuSans-101"/>
     <use x="205.273438" xlink:href="#DejaVuSans-84"/>
     <use x="266.091797" xlink:href="#DejaVuSans-101"/>
     <use x="327.615234" xlink:href="#DejaVuSans-110"/>
     <use x="390.994141" xlink:href="#DejaVuSans-115"/>
     <use x="443.09375" xlink:href="#DejaVuSans-111"/>
     <use x="504.275391" xlink:href="#DejaVuSans-114"/>
    </g>
   </g>
   <g id="legend_1">
    <g id="patch_7">
     <path d="M 159.529531 302.584
L 312.790469 302.584
Q 314.790469 302.584 314.790469 300.584
L 314.790469 213.51525
Q 314.790469 211.51525 312.790469 211.51525
L 159.529531 211.51525
Q 157.529531 211.51525 157.529531 213.51525
L 157.529531 300.584
Q 157.529531 302.584 159.529531 302.584
z
" style="fill:#ffffff;opacity:0.8;stroke:#cccccc;stroke-linejoin:miter;"/>
    </g>
    <g id="LineCollection_7">
     <path d="M 171.529531 224.613687
L 171.529531 214.613687
" style="fill:none;stroke:#d62728;stroke-width:0.5;"/>
    </g>
    <g id="line2d_30">
     <path d="M 161.529531 219.613687
L 181.529531 219.613687
" style="fill:none;stroke:#d62728;stroke-linecap:square;stroke-width:0.5;"/>
    </g>
    <g id="line2d_31">
     <g>
      <use style="fill:#d62728;stroke:#d62728;" x="171.529531" xlink:href="#mf48ae940bb" y="219.613687"/>
     </g>
    </g>
    <g id="text_21">
     <!-- 2 -->
     <g transform="translate(189.529531 223.113687)scale(0.1 -0.1)">
      <use xlink:href="#DejaVuSans-50"/>
     </g>
    </g>
    <g id="line2d_32">
     <path d="M 161.529531 234.291812
L 181.529531 234.291812
" style="fill:none;stroke:#d62728;stroke-dasharray:0.5,0.825;stroke-dashoffset:0;stroke-width:0.5;"/>
    </g>
    <g id="line2d_33"/>
    <g id="text_22">
     <!-- y = -0.21x + 367936.84 -->
     <defs>
      <path d="M 32.171875 -5.078125
Q 28.375 -14.84375 24.75 -17.8125
Q 21.140625 -20.796875 15.09375 -20.796875
L 7.90625 -20.796875
L 7.90625 -13.28125
L 13.1875 -13.28125
Q 16.890625 -13.28125 18.9375 -11.515625
Q 21 -9.765625 23.484375 -3.21875
L 25.09375 0.875
L 2.984375 54.6875
L 12.5 54.6875
L 29.59375 11.921875
L 46.6875 54.6875
L 56.203125 54.6875
z
" id="DejaVuSans-121"/>
      <path id="DejaVuSans-32"/>
      <path d="M 10.59375 45.40625
L 73.1875 45.40625
L 73.1875 37.203125
L 10.59375 37.203125
z
M 10.59375 25.484375
L 73.1875 25.484375
L 73.1875 17.1875
L 10.59375 17.1875
z
" id="DejaVuSans-61"/>
      <path d="M 4.890625 31.390625
L 31.203125 31.390625
L 31.203125 23.390625
L 4.890625 23.390625
z
" id="DejaVuSans-45"/>
      <path d="M 54.890625 54.6875
L 35.109375 28.078125
L 55.90625 0
L 45.3125 0
L 29.390625 21.484375
L 13.484375 0
L 2.875 0
L 24.125 28.609375
L 4.6875 54.6875
L 15.28125 54.6875
L 29.78125 35.203125
L 44.28125 54.6875
z
" id="DejaVuSans-120"/>
      <path d="M 46 62.703125
L 46 35.5
L 73.1875 35.5
L 73.1875 27.203125
L 46 27.203125
L 46 0
L 37.796875 0
L 37.796875 27.203125
L 10.59375 27.203125
L 10.59375 35.5
L 37.796875 35.5
L 37.796875 62.703125
z
" id="DejaVuSans-43"/>
      <path d="M 40.578125 39.3125
Q 47.65625 37.796875 51.625 33
Q 55.609375 28.21875 55.609375 21.1875
Q 55.609375 10.40625 48.1875 4.484375
Q 40.765625 -1.421875 27.09375 -1.421875
Q 22.515625 -1.421875 17.65625 -0.515625
Q 12.796875 0.390625 7.625 2.203125
L 7.625 11.71875
Q 11.71875 9.328125 16.59375 8.109375
Q 21.484375 6.890625 26.8125 6.890625
Q 36.078125 6.890625 40.9375 10.546875
Q 45.796875 14.203125 45.796875 21.1875
Q 45.796875 27.640625 41.28125 31.265625
Q 36.765625 34.90625 28.71875 34.90625
L 20.21875 34.90625
L 20.21875 43.015625
L 29.109375 43.015625
Q 36.375 43.015625 40.234375 45.921875
Q 44.09375 48.828125 44.09375 54.296875
Q 44.09375 59.90625 40.109375 62.90625
Q 36.140625 65.921875 28.71875 65.921875
Q 24.65625 65.921875 20.015625 65.03125
Q 15.375 64.15625 9.8125 62.3125
L 9.8125 71.09375
Q 15.4375 72.65625 20.34375 73.4375
Q 25.25 74.21875 29.59375 74.21875
Q 40.828125 74.21875 47.359375 69.109375
Q 53.90625 64.015625 53.90625 55.328125
Q 53.90625 49.265625 50.4375 45.09375
Q 46.96875 40.921875 40.578125 39.3125
z
" id="DejaVuSans-51"/>
      <path d="M 33.015625 40.375
Q 26.375 40.375 22.484375 35.828125
Q 18.609375 31.296875 18.609375 23.390625
Q 18.609375 15.53125 22.484375 10.953125
Q 26.375 6.390625 33.015625 6.390625
Q 39.65625 6.390625 43.53125 10.953125
Q 47.40625 15.53125 47.40625 23.390625
Q 47.40625 31.296875 43.53125 35.828125
Q 39.65625 40.375 33.015625 40.375
z
M 52.59375 71.296875
L 52.59375 62.3125
Q 48.875 64.0625 45.09375 64.984375
Q 41.3125 65.921875 37.59375 65.921875
Q 27.828125 65.921875 22.671875 59.328125
Q 17.53125 52.734375 16.796875 39.40625
Q 19.671875 43.65625 24.015625 45.921875
Q 28.375 48.1875 33.59375 48.1875
Q 44.578125 48.1875 50.953125 41.515625
Q 57.328125 34.859375 57.328125 23.390625
Q 57.328125 12.15625 50.6875 5.359375
Q 44.046875 -1.421875 33.015625 -1.421875
Q 20.359375 -1.421875 13.671875 8.265625
Q 6.984375 17.96875 6.984375 36.375
Q 6.984375 53.65625 15.1875 63.9375
Q 23.390625 74.21875 37.203125 74.21875
Q 40.921875 74.21875 44.703125 73.484375
Q 48.484375 72.75 52.59375 71.296875
z
" id="DejaVuSans-54"/>
      <path d="M 10.984375 1.515625
L 10.984375 10.5
Q 14.703125 8.734375 18.5 7.8125
Q 22.3125 6.890625 25.984375 6.890625
Q 35.75 6.890625 40.890625 13.453125
Q 46.046875 20.015625 46.78125 33.40625
Q 43.953125 29.203125 39.59375 26.953125
Q 35.25 24.703125 29.984375 24.703125
Q 19.046875 24.703125 12.671875 31.3125
Q 6.296875 37.9375 6.296875 49.421875
Q 6.296875 60.640625 12.9375 67.421875
Q 19.578125 74.21875 30.609375 74.21875
Q 43.265625 74.21875 49.921875 64.515625
Q 56.59375 54.828125 56.59375 36.375
Q 56.59375 19.140625 48.40625 8.859375
Q 40.234375 -1.421875 26.421875 -1.421875
Q 22.703125 -1.421875 18.890625 -0.6875
Q 15.09375 0.046875 10.984375 1.515625
z
M 30.609375 32.421875
Q 37.25 32.421875 41.125 36.953125
Q 45.015625 41.5 45.015625 49.421875
Q 45.015625 57.28125 41.125 61.84375
Q 37.25 66.40625 30.609375 66.40625
Q 23.96875 66.40625 20.09375 61.84375
Q 16.21875 57.28125 16.21875 49.421875
Q 16.21875 41.5 20.09375 36.953125
Q 23.96875 32.421875 30.609375 32.421875
z
" id="DejaVuSans-57"/>
      <path d="M 31.78125 34.625
Q 24.75 34.625 20.71875 30.859375
Q 16.703125 27.09375 16.703125 20.515625
Q 16.703125 13.921875 20.71875 10.15625
Q 24.75 6.390625 31.78125 6.390625
Q 38.8125 6.390625 42.859375 10.171875
Q 46.921875 13.96875 46.921875 20.515625
Q 46.921875 27.09375 42.890625 30.859375
Q 38.875 34.625 31.78125 34.625
z
M 21.921875 38.8125
Q 15.578125 40.375 12.03125 44.71875
Q 8.5 49.078125 8.5 55.328125
Q 8.5 64.0625 14.71875 69.140625
Q 20.953125 74.21875 31.78125 74.21875
Q 42.671875 74.21875 48.875 69.140625
Q 55.078125 64.0625 55.078125 55.328125
Q 55.078125 49.078125 51.53125 44.71875
Q 48 40.375 41.703125 38.8125
Q 48.828125 37.15625 52.796875 32.3125
Q 56.78125 27.484375 56.78125 20.515625
Q 56.78125 9.90625 50.3125 4.234375
Q 43.84375 -1.421875 31.78125 -1.421875
Q 19.734375 -1.421875 13.25 4.234375
Q 6.78125 9.90625 6.78125 20.515625
Q 6.78125 27.484375 10.78125 32.3125
Q 14.796875 37.15625 21.921875 38.8125
z
M 18.3125 54.390625
Q 18.3125 48.734375 21.84375 45.5625
Q 25.390625 42.390625 31.78125 42.390625
Q 38.140625 42.390625 41.71875 45.5625
Q 45.3125 48.734375 45.3125 54.390625
Q 45.3125 60.0625 41.71875 63.234375
Q 38.140625 66.40625 31.78125 66.40625
Q 25.390625 66.40625 21.84375 63.234375
Q 18.3125 60.0625 18.3125 54.390625
z
" id="DejaVuSans-56"/>
      <path d="M 37.796875 64.3125
L 12.890625 25.390625
L 37.796875 25.390625
z
M 35.203125 72.90625
L 47.609375 72.90625
L 47.609375 25.390625
L 58.015625 25.390625
L 58.015625 17.1875
L 47.609375 17.1875
L 47.609375 0
L 37.796875 0
L 37.796875 17.1875
L 4.890625 17.1875
L 4.890625 26.703125
z
" id="DejaVuSans-52"/>
     </defs>
     <g transform="translate(189.529531 237.791812)scale(0.1 -0.1)">
      <use xlink:href="#DejaVuSans-121"/>
      <use x="59.179688" xlink:href="#DejaVuSans-32"/>
      <use x="90.966797" xlink:href="#DejaVuSans-61"/>
      <use x="174.755859" xlink:href="#DejaVuSans-32"/>
      <use x="206.542969" xlink:href="#DejaVuSans-45"/>
      <use x="242.626953" xlink:href="#DejaVuSans-48"/>
      <use x="306.25" xlink:href="#DejaVuSans-46"/>
      <use x="338.037109" xlink:href="#DejaVuSans-50"/>
      <use x="401.660156" xlink:href="#DejaVuSans-49"/>
      <use x="465.283203" xlink:href="#DejaVuSans-120"/>
      <use x="524.462891" xlink:href="#DejaVuSans-32"/>
      <use x="556.25" xlink:href="#DejaVuSans-43"/>
      <use x="640.039062" xlink:href="#DejaVuSans-32"/>
      <use x="671.826172" xlink:href="#DejaVuSans-51"/>
      <use x="735.449219" xlink:href="#DejaVuSans-54"/>
      <use x="799.072266" xlink:href="#DejaVuSans-55"/>
      <use x="862.695312" xlink:href="#DejaVuSans-57"/>
      <use x="926.318359" xlink:href="#DejaVuSans-51"/>
      <use x="989.941406" xlink:href="#DejaVuSans-54"/>
      <use x="1053.564453" xlink:href="#DejaVuSans-46"/>
      <use x="1085.351562" xlink:href="#DejaVuSans-56"/>
      <use x="1148.974609" xlink:href="#DejaVuSans-52"/>
     </g>
    </g>
    <g id="LineCollection_8">
     <path d="M 171.529531 253.969937
L 171.529531 243.969937
" style="fill:none;stroke:#9467bd;stroke-width:0.5;"/>
    </g>
    <g id="line2d_34">
     <path d="M 161.529531 248.969937
L 181.529531 248.969937
" style="fill:none;stroke:#9467bd;stroke-linecap:square;stroke-width:0.5;"/>
    </g>
    <g id="line2d_35">
     <g>
      <use style="fill:#9467bd;stroke:#9467bd;" x="171.529531" xlink:href="#m16b83ec609" y="248.969937"/>
     </g>
    </g>
    <g id="text_23">
     <!-- 3 -->
     <g transform="translate(189.529531 252.469937)scale(0.1 -0.1)">
      <use xlink:href="#DejaVuSans-51"/>
     </g>
    </g>
    <g id="line2d_36">
     <path d="M 161.529531 263.648062
L 181.529531 263.648062
" style="fill:none;stroke:#9467bd;stroke-dasharray:0.5,0.825;stroke-dashoffset:0;stroke-width:0.5;"/>
    </g>
    <g id="line2d_37"/>
    <g id="text_24">
     <!-- y = -0.05x + 869944.15 -->
     <g transform="translate(189.529531 267.148062)scale(0.1 -0.1)">
      <use xlink:href="#DejaVuSans-121"/>
      <use x="59.179688" xlink:href="#DejaVuSans-32"/>
      <use x="90.966797" xlink:href="#DejaVuSans-61"/>
      <use x="174.755859" xlink:href="#DejaVuSans-32"/>
      <use x="206.542969" xlink:href="#DejaVuSans-45"/>
      <use x="242.626953" xlink:href="#DejaVuSans-48"/>
      <use x="306.25" xlink:href="#DejaVuSans-46"/>
      <use x="338.037109" xlink:href="#DejaVuSans-48"/>
      <use x="401.660156" xlink:href="#DejaVuSans-53"/>
      <use x="465.283203" xlink:href="#DejaVuSans-120"/>
      <use x="524.462891" xlink:href="#DejaVuSans-32"/>
      <use x="556.25" xlink:href="#DejaVuSans-43"/>
      <use x="640.039062" xlink:href="#DejaVuSans-32"/>
      <use x="671.826172" xlink:href="#DejaVuSans-56"/>
      <use x="735.449219" xlink:href="#DejaVuSans-54"/>
      <use x="799.072266" xlink:href="#DejaVuSans-57"/>
      <use x="862.695312" xlink:href="#DejaVuSans-57"/>
      <use x="926.318359" xlink:href="#DejaVuSans-52"/>
      <use x="989.941406" xlink:href="#DejaVuSans-52"/>
      <use x="1053.564453" xlink:href="#DejaVuSans-46"/>
      <use x="1085.351562" xlink:href="#DejaVuSans-49"/>
      <use x="1148.974609" xlink:href="#DejaVuSans-53"/>
     </g>
    </g>
    <g id="LineCollection_9">
     <path d="M 171.529531 283.326188
L 171.529531 273.326188
" style="fill:none;stroke:#8c564b;stroke-width:0.5;"/>
    </g>
    <g id="line2d_38">
     <path d="M 161.529531 278.326188
L 181.529531 278.326188
" style="fill:none;stroke:#8c564b;stroke-linecap:square;stroke-width:0.5;"/>
    </g>
    <g id="line2d_39">
     <g>
      <use style="fill:#8c564b;stroke:#8c564b;" x="171.529531" xlink:href="#m176ec89a10" y="278.326188"/>
     </g>
    </g>
    <g id="text_25">
     <!-- 4 -->
     <g transform="translate(189.529531 281.826188)scale(0.1 -0.1)">
      <use xlink:href="#DejaVuSans-52"/>
     </g>
    </g>
    <g id="line2d_40">
     <path d="M 161.529531 293.004312
L 181.529531 293.004312
" style="fill:none;stroke:#8c564b;stroke-dasharray:0.5,0.825;stroke-dashoffset:0;stroke-width:0.5;"/>
    </g>
    <g id="line2d_41"/>
    <g id="text_26">
     <!-- y = 0.26x + -992419.88 -->
     <g transform="translate(189.529531 296.504312)scale(0.1 -0.1)">
      <use xlink:href="#DejaVuSans-121"/>
      <use x="59.179688" xlink:href="#DejaVuSans-32"/>
      <use x="90.966797" xlink:href="#DejaVuSans-61"/>
      <use x="174.755859" xlink:href="#DejaVuSans-32"/>
      <use x="206.542969" xlink:href="#DejaVuSans-48"/>
      <use x="270.166016" xlink:href="#DejaVuSans-46"/>
      <use x="301.953125" xlink:href="#DejaVuSans-50"/>
      <use x="365.576172" xlink:href="#DejaVuSans-54"/>
      <use x="429.199219" xlink:href="#DejaVuSans-120"/>
      <use x="488.378906" xlink:href="#DejaVuSans-32"/>
      <use x="520.166016" xlink:href="#DejaVuSans-43"/>
      <use x="603.955078" xlink:href="#DejaVuSans-32"/>
      <use x="635.742188" xlink:href="#DejaVuSans-45"/>
      <use x="671.826172" xlink:href="#DejaVuSans-57"/>
      <use x="735.449219" xlink:href="#DejaVuSans-57"/>
      <use x="799.072266" xlink:href="#DejaVuSans-50"/>
      <use x="862.695312" xlink:href="#DejaVuSans-52"/>
      <use x="926.318359" xlink:href="#DejaVuSans-49"/>
      <use x="989.941406" xlink:href="#DejaVuSans-57"/>
      <use x="1053.564453" xlink:href="#DejaVuSans-46"/>
      <use x="1085.351562" xlink:href="#DejaVuSans-56"/>
      <use x="1148.974609" xlink:href="#DejaVuSans-56"/>
     </g>
    </g>
   </g>
  </g>
 </g>
 <defs>
  <clipPath id="p27db4bd935">
   <rect height="266.112" width="357.12" x="57.6" y="41.472"/>
  </clipPath>
 </defs>
</svg>
